SplineFontDB: 3.0
FontName: Untitled1
FullName: Untitled1
FamilyName: Untitled1
Weight: Regular
Copyright: Copyright (c) 2018, Yuansheng Zhao,,,
UComments: "2018-7-28: Created with FontForge (http://fontforge.org)"
Version: 001.000
ItalicAngle: 0
UnderlinePosition: -100
UnderlineWidth: 50
Ascent: 800
Descent: 200
InvalidEm: 0
LayerCount: 2
Layer: 0 0 "Back" 1
Layer: 1 0 "Fore" 0
XUID: [1021 64 1373207084 13806451]
StyleMap: 0x0000
FSType: 0
OS2Version: 0
OS2_WeightWidthSlopeOnly: 0
OS2_UseTypoMetrics: 1
CreationTime: 1532764129
ModificationTime: 1533117466
OS2TypoAscent: 0
OS2TypoAOffset: 1
OS2TypoDescent: 0
OS2TypoDOffset: 1
OS2TypoLinegap: 90
OS2WinAscent: 0
OS2WinAOffset: 1
OS2WinDescent: 0
OS2WinDOffset: 1
HheadAscent: 0
HheadAOffset: 1
HheadDescent: 0
HheadDOffset: 1
OS2Vendor: 'PfEd'
DEI: 91125
Encoding: UnicodeFull
UnicodeInterp: none
NameList: AGL For New Fonts
DisplaySize: -48
AntiAlias: 1
FitToEm: 0
WinInfo: 156 26 9
BeginChars: 1114112 210

StartChar: A
Encoding: 65 65 0
Width: 771
Flags: W
HStem: -5 29<-7.52539 64.4935 182.739 251.367> 620 31<614.433 695.029 800.486 889.437> 625 33<158.414 251.548>
LayerCount: 2
Fore
SplineSet
16 -5 m 0xc0
 0 -5 -8 -2 -8 6 c 0
 -8 15 -2 19 21 24 c 0
 84 38 103 63 113 95 c 2
 252 526 l 2
 271 586 273 620 197 625 c 0
 174 627 158 633 158 644 c 0
 158 657 176 658 183 658 c 0xa0
 237 658 278 653 312 653 c 0
 323 653 333 646 338 636 c 2
 567 154 l 2
 570 148 580 135 587 135 c 0
 592 135 594 140 600 155 c 0
 617 198 712 513 719 544 c 0
 730 591 705 610 641 620 c 0
 621 623 614 630 614 639 c 0
 614 647 631 651 647 651 c 0
 683 651 715 647 754 647 c 0
 793 647 812 653 869 653 c 0
 885 653 892 650 892 642 c 0
 892 633 878 624 855 622 c 0
 804 618 794 607 772 555 c 0
 762 531 635 158 622 113 c 0
 616 92 619 82 626 66 c 0
 634 47 648 41 659 33 c 0
 670 25 678 19 678 6 c 0
 678 0 674 0 670 0 c 0
 633 0 610 -5 593 -5 c 0
 572 -5 561 0 551 21 c 0
 479 172 402 369 324 515 c 0
 316 530 307 539 300 539 c 0
 293 539 282 527 276 505 c 0
 249 406 196 241 161 96 c 0
 152 58 172 33 223 23 c 0
 243 19 252 15 252 6 c 0
 252 -2 238 -5 222 -5 c 0
 172 -5 157 0 123 0 c 0
 82 0 66 -5 16 -5 c 0xc0
EndSplineSet
EndChar

StartChar: B
Encoding: 66 66 1
Width: 694
Flags: W
HStem: -14 31<243.188 379.837> 636 28<397.737 522.924>
VStem: 78 85<120.993 344.408> 608 85<296.566 527.326>
LayerCount: 2
Fore
SplineSet
303 -14 m 0
 147 -14 78 105 78 243 c 0
 78 435 218 664 468 664 c 0
 624 664 693 545 693 407 c 0
 693 215 553 -14 303 -14 c 0
306 17 m 0
 487 17 608 251 608 445 c 0
 608 539 567 636 465 636 c 0
 292 636 163 399 163 205 c 0
 163 111 204 17 306 17 c 0
EndSplineSet
EndChar

StartChar: C
Encoding: 67 67 2
Width: 566
Flags: W
HStem: -5 29<1.84375 82.063 216.401 278.641> 254 26<305.021 390.915> 630 22<177.044 239.955 363.604 442.345>
VStem: 535 85<387.882 561.288>
LayerCount: 2
Fore
SplineSet
25 -5 m 0
 9 -5 1 -2 1 6 c 0
 1 15 14 20 37 24 c 0
 86 33 114 51 129 100 c 2
 263 537 l 2
 281 596 268 621 202 627 c 0
 182 629 177 633 177 642 c 0
 177 650 192 653 208 653 c 0
 218 653 268 652 297 652 c 0
 318 652 382 656 408 656 c 0
 534 656 620 587 620 472 c 0
 620 343 488 254 347 254 c 0
 334 254 305 256 305 267 c 0
 305 275 316 279 328 280 c 0
 347 282 365 286 383 290 c 0
 468 313 535 376 535 480 c 0
 535 563 482 630 382 630 c 0
 365 630 361 618 352 588 c 2
 206 111 l 2
 189 58 202 35 254 24 c 0
 274 20 279 15 279 6 c 0
 279 -2 265 -5 249 -5 c 0
 199 -5 183 2 148 2 c 0
 100 2 75 -5 25 -5 c 0
EndSplineSet
EndChar

StartChar: D
Encoding: 68 68 3
Width: 694
Flags: W
HStem: -270 53<507.019 624.357> -14 21<299.161 340.624> 635 29<388.65 518.545>
VStem: 79 85<126.792 353.59> 614 85<290.28 527.22>
LayerCount: 2
Fore
SplineSet
684 -165 m 0
 699 -145 711 -157 704 -171 c 0
 683 -217 616 -270 544 -270 c 0
 473 -270 410 -232 350 -198 c 0
 293 -165 233 -135 167 -135 c 0
 144 -135 122 -138 106 -144 c 0
 86 -152 71 -161 59 -161 c 0
 48 -161 47 -162 47 -152 c 0
 47 -115 241 -59 313 -26 c 0
 323 -22 332 -17 341 -12 c 1
 333 -13 324 -14 314 -14 c 0
 153 -14 79 105 79 243 c 0
 79 435 214 664 469 664 c 0
 625 664 699 545 699 407 c 0
 699 272 626 122 478 29 c 0
 402 -19 352 -51 253 -86 c 1
 307 -89 365 -114 412 -142 c 0
 475 -180 535 -217 584 -217 c 0
 627 -217 661 -196 684 -165 c 0
374 7 m 2
 375 7 l 1
 521 96 614 247 614 445 c 0
 614 539 567 635 456 635 c 0
 287 635 164 399 164 205 c 0
 164 111 216 7 374 7 c 2
EndSplineSet
EndChar

StartChar: E
Encoding: 69 69 4
Width: 687
Flags: W
HStem: -5 29<3.84375 84.063 213.132 268.641 565.334 633.361> 298 20<293.408 339> 622 31<176.117 268.126> 630 22<372.264 452.371>
VStem: 524 83<421.626 578.4>
LayerCount: 2
Fore
SplineSet
27 -5 m 0xd8
 11 -5 3 -2 3 6 c 0
 3 15 16 20 39 24 c 0
 88 33 116 51 131 100 c 2
 265 538 l 2
 287 608 279 615 204 622 c 0
 184 624 176 629 176 639 c 0
 176 649 194 653 210 653 c 2xe8
 299 652 l 2
 336 652 384 655 410 655 c 0
 512 655 607 612 607 507 c 0
 607 398 520 339 434 312 c 0
 425 309 421 304 425 295 c 0
 439 259 497 134 515 98 c 0
 541 46 561 34 600 27 c 0
 617 24 634 22 634 13 c 0
 634 -2 609 -4 583 -4 c 0
 528 -4 483 1 465 32 c 0
 432 89 387 189 362 249 c 0
 346 288 337 298 301 298 c 0
 272 298 265 294 261 280 c 2
 208 111 l 2
 193 63 200 33 244 24 c 0
 264 20 269 15 269 6 c 0
 269 -2 255 -5 239 -5 c 0
 189 -5 185 2 150 2 c 0
 102 2 77 -5 27 -5 c 0xd8
338 318 m 0
 394 318 524 360 524 508 c 0
 524 576 472 630 402 630 c 0xd8
 373 630 362 618 345 555 c 2
 292 356 l 2
 284 325 294 318 338 318 c 0
EndSplineSet
EndChar

StartChar: F
Encoding: 70 70 5
Width: 467
Flags: W
HStem: -15 30<117.392 251.972> 635 29<286.172 400.04>
VStem: 145 69<429.938 563.787> 332 77<92.8641 231.92> 459 66<492 629> 459 28<466.864 566.376>
LayerCount: 2
Fore
SplineSet
182 -15 m 0xf8
 148 -15 113 -9 79 4 c 0
 62 11 50 16 46 16 c 0
 39 16 32 13 25 10 c 0
 17 5 10 0 5 0 c 0
 -1 0 -14 11 -14 19 c 0
 -14 31 21 92 32 171 c 0
 34 185 38 191 48 191 c 0
 59 191 60 179 60 152 c 0
 60 75 96 15 179 15 c 0
 264 15 332 66 332 155 c 0
 332 207 313 242 249 302 c 0
 192 354 145 406 145 482 c 0
 145 588 236 664 354 664 c 0
 375 664 400 658 423 652 c 0
 449 644 467 635 477 635 c 0
 486 635 491 637 496 640 c 0
 501 643 506 645 513 645 c 0
 523 645 525 634 525 629 c 0xf8
 525 626 502 601 487 498 c 0xf4
 484 478 475 466 471 466 c 0
 461 466 459 477 459 492 c 0
 459 585 412 635 342 635 c 0
 271 635 214 570 214 506 c 0
 214 453 239 411 307 348 c 0
 375 286 409 240 409 184 c 0
 409 74 329 -15 182 -15 c 0xf8
EndSplineSet
EndChar

StartChar: G
Encoding: 71 71 6
Width: 622
Flags: W
HStem: -5 27<123.496 201.158 346.086 404.807> 614 28<227.805 389.601 477.889 648.863> 646 20G<184.5 189.5 731.5 738> 646 20G<184.5 189.5 731.5 738>
VStem: 674 25<497.114 562.589>
LayerCount: 2
Fore
SplineSet
147 -5 m 0xe8
 131 -5 123 -2 123 6 c 0
 123 15 137 18 160 22 c 0
 209 31 242 54 256 102 c 2
 378 530 l 2
 397 598 392 614 375 614 c 2
 292 614 l 2
 227 614 196 582 172 553 c 0
 154 532 140 504 129 504 c 0
 121 504 118 506 118 517 c 0
 118 519 120 531 128 548 c 0
 141 575 160 611 170 646 c 0xd8
 173 655 182 666 187 666 c 0
 192 666 199 660 205 654 c 0
 211 648 219 642 281 642 c 2
 638 642 l 2
 699 642 710 649 717 655 c 0
 724 661 729 666 734 666 c 0
 742 666 744 661 744 655 c 0
 744 646 738 634 734 627 c 0
 727 614 709 565 699 511 c 0
 697 500 693 497 688 497 c 0
 679 497 674 506 674 520 c 0
 674 581 657 614 607 614 c 2
 507 614 l 2
 481 614 472 603 451 527 c 2
 330 102 l 2
 316 54 336 31 380 22 c 0
 400 18 405 15 405 6 c 0
 405 -2 391 -5 375 -5 c 0
 325 -5 310 0 268 0 c 0
 221 0 197 -5 147 -5 c 0xe8
EndSplineSet
EndChar

StartChar: H
Encoding: 72 72 7
Width: 700
Flags: W
HStem: -14 40<246.715 412.423> 620 33<163.558 213.343 321.853 385.113 594.851 656.354 752.997 824.206>
LayerCount: 2
Fore
SplineSet
301 -14 m 0
 172 -14 66 65 123 251 c 2
 213 547 l 2
 228 595 212 614 193 620 c 0
 173 626 162 633 162 642 c 0
 162 650 184 653 200 653 c 0
 228 653 254 650 289 650 c 0
 318 650 344 652 364 652 c 0
 380 652 388 649 387 641 c 0
 386 632 373 628 350 621 c 0
 329 615 300 590 284 535 c 2
 196 238 l 2
 152 90 230 26 328 26 c 0
 474 26 545 143 582 269 c 0
 604 344 633 434 646 474 c 0
 685 593 668 609 620 622 c 0
 608 625 594 631 594 640 c 0
 594 648 609 651 625 651 c 2
 727 650 l 2
 757 650 782 653 803 653 c 0
 819 653 828 650 827 642 c 0
 826 633 812 627 789 622 c 0
 756 614 742 608 704 506 c 0
 676 432 648 346 615 254 c 0
 559 99 480 -14 301 -14 c 0
EndSplineSet
EndChar

StartChar: I
Encoding: 73 73 8
Width: 683
Flags: W
HStem: -14 21G<183 199.5> 623 33<168.271 233.167 347.607 424.951 575.041 618.719 736.387 809.183>
LayerCount: 2
Fore
SplineSet
192 -14 m 0
 174 -14 158 2 169 63 c 0
 208 287 234 439 243 550 c 0
 246 593 245 615 192 623 c 0
 172 626 168 634 168 643 c 0
 168 652 182 656 198 656 c 0
 224 656 262 650 304 650 c 0
 340 650 379 651 401 651 c 0
 417 651 425 648 425 640 c 0
 425 631 408 623 390 621 c 0
 351 616 330 603 322 553 c 2
 255 143 l 2
 251 120 253 112 259 112 c 0
 264 112 271 125 288 146 c 2
 568 492 l 2
 640 580 627 617 599 621 c 0
 578 624 575 632 575 641 c 0
 575 649 589 652 605 652 c 0
 622 652 662 650 696 650 c 0
 737 650 756 656 787 656 c 0
 803 656 810 651 810 643 c 0
 810 634 796 627 773 620 c 0
 738 610 695 591 656 543 c 2
 285 95 l 2
 243 45 207 -14 192 -14 c 0
EndSplineSet
EndChar

StartChar: J
Encoding: 74 74 9
Width: 1067
Flags: W
HStem: -14 21G<195.5 215 553 579> 623 33<168.512 253.042 357.489 438.968 534.732 615.724 733.437 823.183 935.044 989.704 1115.68 1193.18>
VStem: 632 192<560.5 647>
LayerCount: 2
Fore
SplineSet
208 -14 m 0
 183 -14 180 37 188 78 c 0
 217 226 250 422 262 523 c 0
 272 606 265 612 199 623 c 0
 179 626 168 632 168 643 c 0
 168 654 185 656 205 656 c 0
 231 656 267 650 318 650 c 0
 354 650 390 651 412 651 c 0
 428 651 439 647 439 639 c 0
 439 630 417 622 399 620 c 0
 351 615 343 602 333 539 c 0
 314 415 294 293 274 167 c 0
 267 121 276 122 313 165 c 2
 584 485 l 2
 621 528 632 551 632 570 c 0
 632 602 614 616 564 623 c 0
 544 626 534 633 534 644 c 0
 534 653 554 656 570 656 c 0
 600 656 662 650 701 650 c 0
 739 650 769 656 801 656 c 0
 817 656 824 651 824 643 c 0
 824 634 810 627 787 623 c 0
 724 613 711 597 704 551 c 2
 648 167 l 2
 641 122 651 122 686 166 c 2
 945 490 l 2
 1016 579 1007 612 960 621 c 0
 939 625 935 629 935 639 c 0
 935 648 950 652 966 652 c 0
 983 652 1046 650 1080 650 c 0
 1121 650 1140 656 1171 656 c 0
 1187 656 1194 651 1194 643 c 0
 1194 634 1180 624 1157 620 c 0
 1115 612 1080 592 1040 543 c 2
 670 94 l 2
 635 51 586 -14 572 -14 c 0
 534 -14 556 64 564 112 c 2
 628 492 l 1
 298 97 l 2
 262 54 222 -14 208 -14 c 0
EndSplineSet
EndChar

StartChar: K
Encoding: 75 75 10
Width: 633
Flags: W
HStem: -5 33<-59.3006 34.1781 150.977 197.959 296.069 365.017 496.876 577.02> 622 33<133.227 211.251 323.821 401.625 495.161 543.346 653.556 730.789>
LayerCount: 2
Fore
SplineSet
-37 -5 m 0
 -53 -5 -61 -2 -61 6 c 0
 -61 15 -47 25 -23 28 c 0
 24 34 67 53 134 124 c 2
 286 284 l 2
 305 304 318 319 308 351 c 2
 256 529 l 2
 233 609 202 616 164 622 c 0
 145 625 132 634 132 643 c 0
 132 651 154 655 170 655 c 0
 201 655 250 650 296 650 c 0
 333 650 361 652 378 652 c 0
 394 652 402 649 402 641 c 0
 402 632 389 623 365 621 c 0
 314 617 310 601 330 528 c 2
 365 397 l 2
 370 378 378 378 392 394 c 2
 499 520 l 2
 562 595 552 612 519 620 c 0
 507 623 495 631 495 640 c 0
 495 648 509 651 525 651 c 0
 547 651 574 650 602 650 c 0
 638 650 685 656 710 656 c 0
 726 656 734 653 734 645 c 0
 734 636 720 631 697 625 c 0
 659 615 589 568 538 513 c 2
 406 370 l 2
 388 350 385 343 388 331 c 2
 448 111 l 2
 463 55 479 45 553 26 c 0
 573 21 578 15 578 6 c 0
 578 -2 564 -5 548 -5 c 0
 522 -5 451 1 407 1 c 0
 369 1 342 0 320 0 c 0
 304 0 296 3 296 11 c 0
 296 20 320 27 334 31 c 0
 381 43 390 67 378 111 c 2
 334 270 l 2
 330 284 323 285 315 275 c 2
 169 100 l 2
 137 62 142 39 174 30 c 0
 194 24 198 21 198 12 c 0
 198 4 184 -1 168 -1 c 0
 151 -1 115 1 82 1 c 0
 40 1 -6 -5 -37 -5 c 0
EndSplineSet
EndChar

StartChar: L
Encoding: 76 76 11
Width: 575
Flags: W
HStem: -5 29<99.8438 176.653 322.55 380.641> 620 33<140.308 200.809 306.885 378.642 500.633 551.984 658.286 728.67>
LayerCount: 2
Fore
SplineSet
123 -5 m 0
 107 -5 99 -2 99 6 c 0
 99 15 112 20 135 24 c 0
 184 33 219 60 234 108 c 2
 285 268 l 2
 294 295 292 314 284 342 c 2
 228 548 l 2
 216 593 198 617 167 620 c 0
 148 622 139 633 139 642 c 0
 139 650 158 653 174 653 c 0
 202 653 238 650 282 650 c 0
 311 650 337 652 357 652 c 0
 373 652 380 649 380 641 c 0
 380 632 367 625 343 621 c 0
 305 615 298 607 310 560 c 2
 352 401 l 2
 359 375 364 363 371 363 c 0
 378 363 390 376 407 395 c 0
 451 444 478 481 523 537 c 0
 567 592 562 610 524 620 c 0
 511 623 500 631 500 640 c 0
 500 648 514 651 530 651 c 0
 558 651 578 650 608 650 c 0
 646 650 685 653 706 653 c 0
 722 653 731 650 731 642 c 0
 731 633 716 629 697 623 c 0
 658 611 599 565 570 534 c 0
 520 482 441 392 404 352 c 0
 374 320 365 294 353 256 c 2
 308 108 l 2
 294 63 312 33 356 24 c 0
 376 20 381 15 381 6 c 0
 381 -2 367 -5 351 -5 c 0
 301 -5 285 0 243 0 c 0
 196 0 173 -5 123 -5 c 0
EndSplineSet
EndChar

StartChar: M
Encoding: 77 77 12
Width: 635
Flags: W
HStem: -5 37<121.562 437.185> 617 29<340.776 542.002>
LayerCount: 2
Fore
SplineSet
502 -5 m 0
 405 -5 250 -1 167 -1 c 0
 134 -1 37 -3 -16 -3 c 0
 -22 -3 -18 11 -18 11 c 1
 -15 21 33 73 64 104 c 0
 247 290 357 416 542 601 c 0
 547 606 555 616 533 617 c 0
 489 619 360 614 294 608 c 0
 264 605 208 578 172 518 c 0
 163 503 154 493 145 493 c 0
 137 493 133 502 133 512 c 0
 133 516 136 526 141 537 c 0
 153 564 174 605 183 627 c 0
 190 644 198 653 213 653 c 0
 229 653 264 648 297 647 c 0
 345 646 413 646 455 646 c 0
 532 646 589 647 658 649 c 0
 666 649 675 631 671 627 c 2
 594 550 l 2
 408 364 301 263 130 67 c 0
 116 51 118 40 136 38 c 0
 162 35 194 32 235 32 c 0
 277 32 365 35 409 41 c 0
 477 50 537 82 579 150 c 0
 584 158 590 169 600 169 c 0
 610 169 609 159 609 150 c 0
 609 129 548 36 533 12 c 0
 528 4 520 -5 502 -5 c 0
EndSplineSet
EndChar

StartChar: N
Encoding: 78 78 13
Width: 973
Flags: W
HStem: -14 28<102.401 247.251> -5 30<824.77 882.455> 243 69<94.3186 215.5> 258 33<636.679 765.422> 561 61<809.002 831.451> 656 20G<911.5 920>
VStem: -7 43<64.6587 202.767>
LayerCount: 2
Fore
SplineSet
168 -14 m 0x9e
 46 -14 -7 62 -7 137 c 0
 -7 226 69 312 190 312 c 0
 241 312 266 284 266 256 c 0
 266 231 251 204 219 204 c 0
 194 204 185 214 177 224 c 0
 169 233 162 243 144 243 c 0
 87 243 36 203 36 146 c 0
 36 48 94 14 181 14 c 0xae
 341 14 624 287 783 569 c 0
 801 600 829 622 837 622 c 0
 865 622 869 632 885 649 c 0
 904 670 908 676 915 676 c 0
 925 676 922 652 920 644 c 2
 816 122 l 2
 804 66 811 36 851 25 c 0
 872 19 883 16 883 7 c 0
 883 -1 874 -5 852 -5 c 0x4e
 826 -5 773 1 731 1 c 0
 695 1 654 0 632 0 c 0
 615 0 608 5 608 14 c 0
 608 22 620 29 636 32 c 0
 702 43 719 56 734 112 c 2
 765 231 l 2
 770 251 755 258 736 258 c 2
 615 256 l 2
 602 256 590 251 577 238 c 0
 402 41 265 -14 168 -14 c 0x9e
649 290 m 2
 756 291 l 2x1e
 770 291 778 298 783 319 c 2
 831 538 l 2
 836 555 835 561 828 561 c 0
 823 561 815 559 809 549 c 0
 749 454 691 375 637 308 c 0
 630 299 633 290 649 290 c 2
EndSplineSet
EndChar

StartChar: O
Encoding: 79 79 14
Width: 753
Flags: W
HStem: -4 25<161.375 231.153 394.369 490.978> 346 25<455.938 534.325> 357 70<167.234 236.542> 623 43<296.14 634.072>
VStem: 103 50<441.73 539.071> 620 81<124.728 278.907> 677 81<456.355 583.716>
LayerCount: 2
Fore
SplineSet
185 -5 m 0xbc
 169 -5 161 -3 161 6 c 0
 161 16 174 20 197 24 c 0
 246 33 278 51 293 99 c 2
 436 564 l 2
 452 616 450 623 376 623 c 0
 284 623 153 568 153 495 c 0
 153 449 176 434 213 427 c 0
 231 424 241 411 241 396 c 0
 241 378 227 357 191 357 c 0
 137 357 103 409 103 461 c 0
 103 591 251 666 491 666 c 0
 682 666 758 595 758 525 c 0xba
 758 430 655 373 579 366 c 0
 568 365 571 358 576 356 c 0
 653 325 701 285 701 192 c 0
 701 76 586 -4 433 -4 c 0
 377 -4 344 3 307 3 c 0
 259 3 239 -5 185 -5 c 0xbc
466 371 m 0xda
 497 371 526 376 558 383 c 1
 624 411 677 457 677 525 c 0
 677 580 632 625 554 625 c 0
 529 625 519 621 516 609 c 2
 454 386 l 2
 451 374 456 371 466 371 c 0xda
430 21 m 0
 520 21 620 99 620 205 c 0xdc
 620 297 564 346 455 346 c 0
 445 346 437 339 434 327 c 2
 370 108 l 2
 363 84 364 59 380 45 c 0
 394 32 407 21 430 21 c 0
EndSplineSet
EndChar

StartChar: P
Encoding: 80 80 15
Width: 624
Flags: W
HStem: -208 57<217.248 372.675> 634 31<403.507 534.333>
VStem: 591 29<467.939 531.351>
LayerCount: 2
Fore
SplineSet
280 -208 m 0
 43 -208 -6 38 68 275 c 0
 136 496 269 665 477 665 c 0
 514 665 542 658 579 646 c 0
 604 638 622 630 636 630 c 0
 642 630 649 635 657 638 c 0
 665 641 673 645 680 645 c 0
 692 645 691 633 687 629 c 0
 665 599 629 532 620 487 c 0
 618 477 609 467 602 467 c 0
 578 467 591 487 591 528 c 0
 591 547 586 567 572 585 c 0
 549 614 520 634 474 634 c 0
 333 634 228 466 165 268 c 0
 101 64 117 -151 304 -151 c 0
 399 -151 462 -76 498 0 c 0
 503 10 506 16 517 16 c 0
 524 16 527 4 523 -5 c 0
 488 -95 409 -208 280 -208 c 0
EndSplineSet
EndChar

StartChar: Q
Encoding: 81 81 16
Width: 913
Flags: W
HStem: -7 30<344.254 570.275> -5 29<157.763 248.218> 348 70<164.234 233.542> 622 35<523.182 698.816>
VStem: 100 50<432.518 530.071> 820 86<265.985 493.048>
LayerCount: 2
Fore
SplineSet
478 -7 m 0xbc
 459 -7 358 0 285 0 c 0
 248 0 230 -5 181 -5 c 0
 165 -5 157 -2 157 6 c 0
 157 15 170 23 193 24 c 0x7c
 256 26 268 51 284 99 c 2
 428 540 l 2
 448 604 435 614 373 614 c 0
 281 614 150 559 150 486 c 0
 150 440 173 424 210 418 c 0
 228 415 238 402 238 387 c 0
 238 369 224 348 188 348 c 0
 134 348 100 400 100 452 c 0
 100 582 248 657 488 657 c 0
 528 657 546 655 593 655 c 0
 780 655 906 560 906 377 c 0
 906 174 731 -7 478 -7 c 0xbc
483 23 m 0xbc
 682 23 820 207 820 395 c 0
 820 548 738 622 603 622 c 0
 519 622 519 605 508 571 c 2
 372 141 l 2
 344 52 391 23 483 23 c 0xbc
EndSplineSet
EndChar

StartChar: R
Encoding: 82 82 17
Width: 600
Flags: W
HStem: -208 57<191.043 360.062> 275 46<296.383 457.781> 282 33<275.106 408.963> 633 31<342.296 484.331>
VStem: -3 90<-39.268 119.598> 153 88<383.123 535.941> 485 27<-35.4036 2.37133> 515 36<505.105 605.369>
LayerCount: 2
Fore
SplineSet
269 -208 m 0xbf
 87 -208 -3 -99 -3 21 c 0
 -3 131 74 251 226 302 c 0
 232 304 233 308 229 312 c 0
 181 360 153 411 153 458 c 0
 153 570 277 664 436 664 c 0
 497 664 523 653 557 644 c 0
 569 641 573 632 571 622 c 0
 565 592 562 565 551 530 c 0
 549 521 539 505 534 505 c 0
 529 505 515 514 515 529 c 0
 515 555 513 577 505 593 c 0
 492 620 465 633 423 633 c 0
 284 633 241 532 241 443 c 0
 241 375 266 315 294 315 c 0xbf
 345 315 386 321 426 321 c 0
 439 321 458 313 458 296 c 0
 458 276 424 275 410 275 c 0xdf
 389 275 295 282 288 282 c 0
 148 282 87 173 87 64 c 0
 87 -46 149 -151 284 -151 c 0
 388 -151 445 -92 485 -14 c 0
 491 -3 498 6 510 6 c 0
 517 6 516 -10 512 -19 c 0
 491 -86 399 -208 269 -208 c 0xbf
EndSplineSet
EndChar

StartChar: S
Encoding: 83 83 18
Width: 650
Flags: W
HStem: -200 38<81.2595 160.669> 322 27<423.332 594.603> 410 38<177.226 233.779> 575 55<611.173 777.783> 651 31<236.348 423.769> 689 20G<810.5 824>
VStem: 102 56<462.591 592.613> 608 28<252.052 308.246> 770 70<630.982 701.772>
LayerCount: 2
Fore
SplineSet
817 709 m 0
 831 709 840 694 840 675 c 0
 840 646 789 575 700 575 c 0
 644 575 572 598 497 619 c 1
 424 374 l 2
 420 357 423 349 431 349 c 2
 576 352 l 2
 603 353 628 368 647 389 c 0
 656 399 670 408 675 408 c 0
 680 408 687 401 682 392 c 0
 656 342 649 320 636 269 c 0
 633 260 630 252 623 252 c 0
 612 252 608 268 608 275 c 0
 608 306 585 319 571 320 c 0
 548 322 464 322 446 322 c 0
 423 322 406 320 398 291 c 2
 355 142 l 2
 294 -69 259 -94 221 -134 c 0
 184 -173 142 -200 87 -200 c 0
 27 -200 -2 -169 -2 -147 c 0
 -2 -119 5 -102 22 -102 c 0
 33 -102 49 -120 70 -135 c 0
 86 -147 106 -162 128 -162 c 0
 167 -162 196 -133 234 -5 c 2
 425 638 l 1
 389 646 354 651 322 651 c 0
 200 651 158 584 158 526 c 0
 158 484 181 448 210 448 c 0
 216 448 222 455 229 462 c 0
 236 469 244 476 256 476 c 0
 275 476 284 462 284 447 c 0
 284 429 258 410 222 410 c 0
 148 410 102 465 102 526 c 0
 102 600 170 682 337 682 c 0
 482 682 692 630 786 630 c 1
 779 651 770 669 770 682 c 0
 770 695 804 709 817 709 c 0
EndSplineSet
EndChar

StartChar: T
Encoding: 84 84 19
Width: 687
Flags: W
HStem: -291 38<278.26 357.788> -14 28<317.817 445.166> 260 30<432.012 519.25 623.233 686.871> 634 29<412.974 555.552>
VStem: 81 88<142.781 368.126> 613 33<464.2 536.318>
LayerCount: 2
Fore
SplineSet
628 464 m 0
 615 464 610 475 613 493 c 0
 618 523 617 557 596 585 c 0
 579 608 547 634 495 634 c 0
 310 634 169 431 169 228 c 0
 169 95 288 14 389 14 c 0
 450 14 486 53 498 100 c 2
 526 209 l 2
 532 234 526 245 508 250 c 0
 491 255 473 258 463 260 c 0
 449 263 432 266 432 275 c 0
 432 284 446 290 464 290 c 0
 510 290 535 284 581 284 c 0
 614 284 633 290 666 290 c 0
 678 290 687 284 687 276 c 0
 687 269 676 260 655 256 c 0
 625 251 610 240 598 213 c 2
 571 122 l 1
 562 92 l 2
 500 -109 455 -186 418 -225 c 0
 381 -264 339 -291 284 -291 c 0
 224 -291 195 -260 195 -238 c 0
 195 -210 202 -193 219 -193 c 0
 230 -193 246 -211 267 -226 c 0
 283 -238 303 -253 325 -253 c 0
 364 -253 394 -225 433 -96 c 2
 461 -3 l 1
 435 -10 409 -14 389 -14 c 0
 217 -14 81 73 81 254 c 0
 81 486 268 663 514 663 c 0
 557 663 587 653 611 644 c 0
 631 636 647 629 663 629 c 0
 670 629 678 634 686 638 c 0
 693 642 699 645 706 645 c 0
 718 645 717 634 713 629 c 0
 691 599 655 532 646 487 c 0
 643 474 635 464 628 464 c 0
EndSplineSet
EndChar

StartChar: U
Encoding: 85 85 20
Width: 982
Flags: W
HStem: -14 38<164.26 243.788> -5 29<598.844 674.446 791.559 847.641> 307 38<442.912 782> 346 70<163.234 232.542> 612 38<312.535 437.921> 622 31<545.255 624.556> 701 21G<1152.5 1166.5> 785 41<1023.21 1116.76>
VStem: 99 50<430.518 522.314> 1131 69<708.465 771.903>
LayerCount: 2
Fore
SplineSet
170 -14 m 0xb3c0
 110 -14 81 17 81 39 c 0
 81 67 88 84 105 84 c 0
 116 84 132 66 153 51 c 0
 169 39 189 24 211 24 c 0
 250 24 280 52 319 181 c 2
 427 538 l 2
 448 605 446 612 372 612 c 0
 280 612 149 557 149 484 c 0
 149 438 172 422 209 416 c 0
 227 413 237 400 237 385 c 0
 237 367 223 346 187 346 c 0
 133 346 99 398 99 450 c 0
 99 580 263 650 503 650 c 0xbbc0
 541 650 552 653 602 653 c 0
 618 653 626 650 626 642 c 0
 626 633 612 626 589 622 c 0
 540 613 516 590 504 551 c 2
 443 354 l 2
 441 346 447 345 453 345 c 2
 788 345 l 2
 793 345 795 348 798 357 c 2
 866 570 l 1
 914 760 1025 826 1095 826 c 0
 1154 826 1200 797 1200 755 c 0
 1200 719 1176 701 1157 701 c 0
 1148 701 1141 719 1131 742 c 0
 1119 770 1101 785 1072 785 c 0
 1017 785 990 736 955 616 c 2
 795 100 l 2
 780 51 779 33 823 24 c 0
 843 20 848 15 848 6 c 0
 848 -2 834 -5 818 -5 c 0
 768 -5 761 0 723 0 c 0
 684 0 672 -5 622 -5 c 0
 606 -5 598 -2 598 6 c 0
 598 15 611 20 634 24 c 0x77c0
 676 31 706 54 720 97 c 2
 782 292 l 2
 784 299 788 307 782 307 c 2
 437 307 l 2
 433 307 431 304 429 296 c 2
 424 279 l 2
 374 118 342 92 304 52 c 0
 267 13 225 -14 170 -14 c 0xb3c0
EndSplineSet
EndChar

StartChar: V
Encoding: 86 86 21
Width: 543
Flags: W
HStem: -5 29<162.698 243.49 380.031 442.899> 357 70<167.234 236.542> 617 37<294.662 440.921 534.564 625.841>
VStem: 103 50<441.518 538.641>
LayerCount: 2
Fore
SplineSet
185 -5 m 0
 169 -5 159 -2 161 6 c 0
 164 15 174 20 197 24 c 0
 246 33 279 51 293 98 c 2
 430 543 l 2
 451 610 449 617 375 617 c 0
 283 617 153 568 153 495 c 0
 153 449 176 433 213 427 c 0
 231 424 241 411 241 396 c 0
 241 378 227 357 191 357 c 0
 137 357 103 409 103 461 c 0
 103 591 251 666 491 654 c 0
 531 654 556 653 606 653 c 0
 622 653 632 650 630 642 c 0
 627 633 616 626 593 622 c 0
 544 613 519 597 505 550 c 2
 367 98 l 2
 353 51 374 33 418 24 c 0
 438 20 446 15 443 6 c 0
 441 -2 429 -5 413 -5 c 0
 363 -5 348 0 305 0 c 0
 259 0 235 -5 185 -5 c 0
EndSplineSet
EndChar

StartChar: W
Encoding: 87 87 22
Width: 612
Flags: W
HStem: -200 38<145.26 224.788> 277 36<231.149 385 471 598.674> 589 116<555 619.525> 660 54<225.404 337.356>
VStem: 136 55<527.787 627.667>
LayerCount: 2
Fore
SplineSet
657 665 m 0xe8
 657 625 615 599 555 589 c 1xe8
 471 313 l 1
 595 313 l 2
 602 313 607 306 602 299 c 0
 592 286 581 277 567 277 c 2
 460 277 l 1
 419 142 l 2
 355 -68 323 -94 285 -134 c 0
 248 -173 206 -200 151 -200 c 0
 91 -200 62 -169 62 -147 c 0
 62 -119 69 -102 86 -102 c 0
 97 -102 113 -120 134 -135 c 0
 150 -147 170 -162 192 -162 c 0
 231 -162 261 -134 300 -5 c 2
 385 277 l 1
 239 277 l 2
 231 277 229 289 231 295 c 0
 234 304 248 313 259 313 c 2
 396 313 l 1
 478 584 l 1
 368 589 348 660 265 660 c 0
 214 660 191 636 191 601 c 0
 191 588 194 577 197 569 c 0
 201 557 205 549 205 543 c 0
 205 522 187 511 165 511 c 0
 146 511 136 534 136 554 c 0
 136 629 208 714 307 714 c 0xd8
 406 714 449 660 483 603 c 1
 523 680 579 704 614 705 c 0
 639 706 657 692 657 665 c 0xe8
EndSplineSet
EndChar

StartChar: X
Encoding: 88 88 23
Width: 653
Flags: W
HStem: -287 30<771.695 891.641> -5 29<-15.3024 62.2952 191.583 244.899> 323 24<261.719 279.533> 622 31<177.102 238.933 349.085 423.442 538.355 580.84 690.464 790.13>
VStem: 916 69<-222.846 -138>
LayerCount: 2
Fore
SplineSet
815 -287 m 0
 595 -287 443 -21 284 306 c 0
 277 318 256 323 251 323 c 0
 246 323 243 310 241 302 c 2
 187 110 l 2
 176 67 176 33 220 24 c 0
 240 20 248 15 245 6 c 0
 243 -2 231 -5 215 -5 c 0
 165 -5 161 2 126 2 c 0
 80 2 57 -5 7 -5 c 0
 -9 -5 -19 -2 -17 6 c 0
 -14 15 -4 20 19 24 c 0
 68 33 90 51 105 101 c 2
 243 551 l 2
 257 597 246 613 202 622 c 0
 182 626 174 633 177 642 c 0
 179 650 192 653 208 653 c 0
 258 653 271 651 311 651 c 0
 346 651 352 653 402 653 c 0
 418 653 428 650 426 642 c 0
 423 633 412 626 389 622 c 0
 340 613 329 590 317 551 c 2
 259 360 l 2
 256 350 260 347 270 347 c 0
 290 347 312 362 339 385 c 2
 550 567 l 2
 567 582 581 594 581 605 c 0
 581 609 578 615 562 620 c 0
 547 625 538 631 538 640 c 0
 538 648 558 651 574 651 c 2
 624 651 l 2
 677 651 740 655 776 655 c 0
 788 655 793 651 793 644 c 0
 793 635 779 628 756 624 c 0
 707 615 650 597 595 558 c 0
 509 497 443 444 356 357 c 0
 351 352 351 346 355 339 c 0
 496 74 654 -257 836 -257 c 0
 889 -257 916 -229 916 -203 c 0
 916 -183 900 -172 887 -163 c 0
 876 -155 864 -146 864 -125 c 0
 864 -98 888 -83 915 -83 c 0
 965 -83 985 -118 985 -158 c 0
 985 -217 933 -287 815 -287 c 0
EndSplineSet
EndChar

StartChar: Y
Encoding: 89 89 24
Width: 499
Flags: W
HStem: -250 46<470.665 570.377> 55 37<35.6029 77.7417> 600 29<403.815 491.625>
VStem: 505 62<506.351 591.939> 610 52<-157.867 -67.7781>
LayerCount: 2
Fore
SplineSet
501 -250 m 0
 405 -250 321 -162 243 -81 c 0
 176 -11 113 55 60 55 c 1
 28 35 8 11 -11 -10 c 0
 -24 -25 -65 -8 -65 17 c 0
 -65 51 -3 94 63 92 c 1
 123 153 150 257 184 358 c 0
 251 556 361 629 470 629 c 0
 539 629 569 588 567 551 c 0
 566 520 543 491 501 491 c 0
 494 491 491 493 491 499 c 0
 491 504 505 522 505 553 c 0
 505 579 487 600 455 600 c 0
 358 600 332 477 273 339 c 0
 238 258 191 171 110 102 c 0
 106 100 104 93 111 93 c 0
 193 93 269 14 340 -62 c 0
 407 -133 474 -204 529 -204 c 0
 580 -204 610 -172 610 -131 c 0
 610 -114 591 -98 591 -84 c 0
 591 -67 613 -49 628 -49 c 0
 652 -49 662 -68 662 -90 c 0
 662 -159 581 -250 501 -250 c 0
EndSplineSet
EndChar

StartChar: Z
Encoding: 90 90 25
Width: 1343
Flags: W
HStem: -14 28<109.233 240.923> -3 29<964.52 1031.02 1188.77 1245.75> 243 69<93.4249 217.5> 357 70<351.234 420.542> 621 37<1300.21 1400.55> 623 43<478.632 692.978>
VStem: -7 46<64.9837 196.134> 287 50<441.518 539.071> 726 72<215.75 522.186> 730 76<151.022 504.172>
LayerCount: 2
Fore
SplineSet
170 -14 m 0xb380
 49 -14 -7 60 -7 138 c 0
 -6 223 64 312 192 312 c 0
 243 312 268 284 268 256 c 0
 268 231 253 204 221 204 c 0
 196 204 188 214 179 224 c 0
 171 233 164 243 146 243 c 0
 82 243 41 188 39 132 c 0
 38 74 79 14 183 14 c 0
 336 14 510 269 672 536 c 0
 719 607 696 623 608 623 c 0
 496 623 337 568 337 495 c 0
 337 449 360 433 397 427 c 0
 415 424 425 411 425 396 c 0
 425 378 411 357 375 357 c 0
 321 357 287 409 287 461 c 0
 287 591 435 666 675 666 c 0
 774 666 800 636 798 585 c 2xb780
 806 163 l 2
 807 133 820 142 836 160 c 0
 959 299 1072 434 1191 575 c 1
 1206 603 1211 618 1222 636 c 0
 1228 646 1234 650 1243 650 c 2
 1281 650 l 2
 1296 650 1350 658 1368 658 c 0
 1384 658 1401 652 1401 643 c 0
 1401 632 1392 625 1360 621 c 0
 1299 613 1289 607 1268 536 c 0
 1232 413 1203 281 1179 154 c 0
 1162 65 1176 33 1220 26 c 0
 1240 23 1246 18 1246 9 c 0
 1246 3 1232 -3 1216 -3 c 0
 1166 -3 1141 8 1095 8 c 0
 1049 8 1037 -3 987 -3 c 0x7b40
 971 -3 964 1 964 9 c 0
 964 17 977 23 999 28 c 0
 1042 38 1060 59 1075 104 c 0
 1124 256 1154 365 1188 502 c 0
 1190 509 1182 511 1176 504 c 2
 881 162 l 1
 764 10 l 2
 751 -6 743 -14 739 -14 c 0
 734 -14 730 -4 730 11 c 0xb340
 735 178 732 345 726 512 c 0
 725 541 713 538 696 510 c 0
 548 266 392 -14 170 -14 c 0xb380
EndSplineSet
EndChar

StartChar: bracketleft
Encoding: 91 91 26
Width: 975
Flags: W
HStem: -287 30<1067.89 1196.54> -14 41<137.47 231.408> 341 78<165.25 228.238> 701 41<1030.3 1133.55>
VStem: 54 69<41.8906 103.775> 101 50<433.346 530.765> 1148 69<624.225 686.109> 1221 68<-222.319 -140>
LayerCount: 2
Fore
SplineSet
1119 -287 m 0xf7
 899 -287 751 -21 498 515 c 0
 490 530 481 539 474 539 c 0
 467 539 456 527 450 505 c 0
 358 144 299 -14 159 -14 c 0
 100 -14 54 15 54 57 c 0
 54 93 78 111 97 111 c 0
 106 111 112 92 123 69 c 0xfb
 136 42 156 27 188 27 c 0
 244 27 336 124 429 541 c 0
 439 591 431 615 374 615 c 0
 282 615 151 560 151 487 c 0
 151 441 174 425 211 419 c 0
 229 416 239 403 239 388 c 0
 239 370 218 341 182 341 c 0
 128 341 101 401 101 453 c 0
 101 583 246 653 486 653 c 0
 497 653 507 646 512 636 c 0
 602 462 677 299 745 164 c 0
 757 141 771 136 778 165 c 0
 885 573 950 742 1112 742 c 4
 1171 742 1217 713 1217 671 c 4
 1217 635 1193 617 1174 617 c 4
 1165 617 1159 636 1148 659 c 4
 1135 686 1115 701 1084 701 c 4
 1016 701 911 601 794 111 c 0
 789 90 791 80 798 64 c 0
 905 -131 1004 -257 1140 -257 c 0
 1193 -257 1221 -233 1221 -196 c 0
 1221 -179 1203 -169 1192 -163 c 0
 1180 -157 1170 -146 1170 -123 c 0
 1170 -98 1195 -81 1218 -81 c 0
 1270 -81 1289 -122 1289 -158 c 0
 1289 -217 1237 -287 1119 -287 c 0xf7
EndSplineSet
EndChar

StartChar: backslash
Encoding: 92 92 27
Width: 694
Flags: W
HStem: -14 31<243.188 379.837> 636 28<397.737 522.924>
VStem: 78 85<120.993 344.408> 608 85<296.566 527.326>
LayerCount: 2
Fore
SplineSet
303 -14 m 0
 147 -14 78 105 78 243 c 0
 78 435 218 664 468 664 c 0
 624 664 693 545 693 407 c 0
 693 215 553 -14 303 -14 c 0
306 17 m 0
 487 17 608 251 608 445 c 0
 608 539 567 636 465 636 c 0
 292 636 163 399 163 205 c 0
 163 111 204 17 306 17 c 0
EndSplineSet
EndChar

StartChar: bracketright
Encoding: 93 93 28
Width: 730
Flags: W
HStem: -5 29<165.844 246.063 380.401 442.641> 254 26<469.021 554.915> 341 70<165.844 230.542> 630 29<411.566 615.627>
VStem: 100 50<426.767 530.562> 699 85<387.882 561.814>
LayerCount: 2
Fore
SplineSet
189 -5 m 0
 173 -5 165 -2 165 6 c 0
 165 15 178 20 201 24 c 0
 250 33 278 51 293 100 c 2
 429 546 l 2
 450 614 449 620 374 620 c 4
 282 620 150 559 150 486 c 4
 150 440 170 417 207 411 c 4
 225 408 235 395 235 380 c 4
 235 362 221 341 185 341 c 4
 131 341 100 400 100 452 c 4
 100 582 248 659 488 659 c 4
 665 659 784 629 784 472 c 0
 784 343 652 254 511 254 c 0
 498 254 469 256 469 267 c 0
 469 275 480 279 492 280 c 0
 511 282 529 286 547 290 c 0
 632 313 699 376 699 480 c 0
 699 563 646 630 546 630 c 0
 529 630 525 618 516 588 c 2
 370 111 l 2
 353 58 366 35 418 24 c 0
 438 20 443 15 443 6 c 0
 443 -2 429 -5 413 -5 c 0
 363 -5 347 2 312 2 c 0
 264 2 239 -5 189 -5 c 0
EndSplineSet
EndChar

StartChar: asciicircum
Encoding: 94 94 29
Width: 766
Flags: W
HStem: -288 30<667.111 775.339> -229 34<-74.2461 107.845> 3 35<-91.3075 88.0615> 150 39<234.996 356.742> 633 33<358.838 525.303>
VStem: -216 77<-147.191 -39.0224> 92 82<258.225 453.641> 405 78<264.846 377.5> 628 87<285.89 525.698> 800 69<-225.744 -139>
LayerCount: 2
Fore
SplineSet
799 -84 m 4
 849 -84 869 -119 869 -159 c 4
 869 -218 817 -288 715 -288 c 4
 588 -288 452 -204 318 -129 c 1
 208 -191 93 -229 -2 -229 c 0
 -141 -229 -216 -169 -216 -107 c 0
 -216 -17 -129 38 20 38 c 0
 132 38 231 0 348 -59 c 1
 361 -50 373 -41 386 -31 c 0
 523 75 628 242 628 429 c 0
 628 565 551 633 445 633 c 0
 309 633 174 522 174 373 c 0
 174 239 235 189 293 189 c 0
 352 189 405 230 405 294 c 0
 405 316 391 329 381 343 c 0
 373 354 365 366 365 382 c 0
 365 415 384 444 417 444 c 0
 460 444 483 403 483 352 c 0
 483 259 408 150 266 150 c 0
 185 150 92 221 92 343 c 0
 92 543 276 666 450 666 c 0
 620 666 715 571 715 410 c 0
 715 234 581 57 414 -66 c 0
 406 -72 399 -77 391 -82 c 1
 538 -164 658 -258 720 -258 c 4
 773 -258 800 -230 800 -204 c 4
 800 -184 784 -173 771 -164 c 4
 760 -156 748 -147 748 -126 c 4
 748 -99 772 -84 799 -84 c 4
-139 -98 m 0
 -139 -141 -90 -195 10 -195 c 0
 82 -195 180 -160 275 -105 c 1
 139 -30 75 3 -11 3 c 0
 -115 3 -139 -53 -139 -98 c 0
EndSplineSet
EndChar

StartChar: underscore
Encoding: 95 95 30
Width: 862
Flags: W
HStem: -287 30<982.723 1102.64> -5 29<166.844 247.063 376.132 431.641> 298 20<461.961 499.849> 357 70<167.234 236.542> 630 36<396.489 632.688>
VStem: 103 50<441.518 539.071> 687 83<421.344 576.908> 1127 69<-222.846 -138>
LayerCount: 2
Fore
SplineSet
1026 -287 m 4
 806 -287 654 -21 521 260 c 0
 503 296 488 298 452 298 c 0
 442 298 428 294 424 282 c 2
 371 111 l 2
 356 63 363 33 407 24 c 0
 427 20 432 15 432 6 c 0
 432 -2 418 -5 402 -5 c 0
 352 -5 348 2 313 2 c 0
 265 2 240 -5 190 -5 c 0
 174 -5 166 -2 166 6 c 0
 166 15 179 20 202 24 c 0
 251 33 279 51 294 100 c 2
 431 549 l 2
 452 616 450 623 376 623 c 0
 284 623 153 568 153 495 c 0
 153 449 176 433 213 427 c 0
 231 424 241 411 241 396 c 0
 241 378 227 357 191 357 c 0
 137 357 103 409 103 461 c 0
 103 591 251 666 484 666 c 0
 630 666 771 640 770 501 c 0
 769 395 672 329 611 316 c 0
 583 310 582 304 591 288 c 0
 707 74 865 -257 1047 -257 c 4
 1100 -257 1127 -229 1127 -203 c 4
 1127 -183 1111 -172 1098 -163 c 4
 1087 -155 1075 -146 1075 -125 c 4
 1075 -98 1099 -83 1126 -83 c 4
 1176 -83 1196 -118 1196 -158 c 4
 1196 -217 1144 -287 1026 -287 c 4
504 318 m 0
 586 318 687 389 687 500 c 0
 687 572 643 630 571 630 c 0
 536 630 524 613 516 583 c 2
 455 356 l 2
 451 328 465 318 504 318 c 0
EndSplineSet
EndChar

StartChar: grave
Encoding: 96 96 31
Width: 573
Flags: W
HStem: -156 44<114.606 302.685> 128 76<84.4345 181.469> 635 29<332.737 447.04>
VStem: -3 39<-34.7759 98.6725> 192 69<429.103 564.895> 418 71<4.53511 181.044> 506 66<492 629> 506 28<466.864 566.376>
LayerCount: 2
Fore
SplineSet
200 -156 m 4xfe
 93 -156 -3 -92 -3 33 c 4
 -3 151 93 203 168 204 c 4
 215 205 276 185 276 140 c 4
 276 120 257 82 229 82 c 4
 216 82 195 101 166 114 c 4
 150 122 132 128 111 128 c 4
 66 128 36 88 36 40 c 4
 36 -33 83 -112 215 -112 c 4
 319 -112 418 -29 418 97 c 0
 418 181 361 236 304 292 c 0
 248 347 192 401 192 482 c 0
 192 588 283 664 401 664 c 0
 422 664 447 658 470 652 c 0
 496 644 514 635 524 635 c 0
 533 635 538 637 543 640 c 0
 548 643 553 645 560 645 c 0
 570 645 572 634 572 629 c 0xfe
 572 626 549 601 534 498 c 0xfd
 531 478 522 466 518 466 c 0
 508 466 506 477 506 492 c 0
 506 585 459 635 389 635 c 0
 316 635 261 575 261 506 c 0
 261 434 316 381 372 326 c 0
 444 255 489 193 489 116 c 0
 489 -52 365 -156 200 -156 c 4xfe
EndSplineSet
EndChar

StartChar: a
Encoding: 97 97 32
Width: 680
Flags: W
HStem: -5 27<162.496 240.158 384.643 443.807> 410 38<177.226 233.779> 575 55<594.561 749.783> 651 31<236.348 423.495> 689 20G<782.5 796>
VStem: 102 56<462.591 592.613> 742 70<630.982 701.772>
LayerCount: 2
Fore
SplineSet
789 709 m 4
 803 709 812 694 812 675 c 4
 812 646 761 575 672 575 c 4
 624 575 571 592 514 610 c 5
 369 102 l 2
 355 57 374 31 419 22 c 0
 439 18 444 15 444 6 c 0
 444 -2 430 -5 414 -5 c 0
 364 -5 349 0 307 0 c 0
 260 0 236 -5 186 -5 c 0
 170 -5 162 -2 162 6 c 0
 162 15 176 18 199 22 c 0
 248 31 281 54 295 102 c 2
 447 630 l 5
 405 642 363 651 322 651 c 4
 200 651 158 584 158 526 c 4
 158 484 181 448 210 448 c 4
 216 448 222 455 229 462 c 4
 236 469 244 476 256 476 c 4
 275 476 284 462 284 447 c 4
 284 429 258 410 222 410 c 4
 148 410 102 465 102 526 c 4
 102 600 170 682 337 682 c 4
 482 682 664 630 758 630 c 5
 751 651 742 669 742 682 c 4
 742 695 776 709 789 709 c 4
EndSplineSet
EndChar

StartChar: b
Encoding: 98 98 33
Width: 918
Flags: W
HStem: -14 40<463.715 635.726> 341 70<162.234 231.542> 607 43<292.618 438.199> 621 31<541.107 602.113> 660 41<995.738 1104.55>
VStem: 98 50<425.518 523.071> 1119 69<583.225 645.109>
LayerCount: 2
Fore
SplineSet
518 -14 m 0xde
 389 -14 283 65 340 251 c 2
 430 547 l 2
 446 599 445 607 371 607 c 4
 279 607 148 552 148 479 c 4
 148 433 171 417 208 411 c 4
 226 408 236 395 236 380 c 4
 236 362 222 341 186 341 c 4
 132 341 98 393 98 445 c 4
 98 575 246 650 486 650 c 4xee
 535 650 561 652 581 652 c 0
 597 652 605 649 604 641 c 0
 603 632 590 628 567 621 c 0
 546 615 517 590 501 535 c 2
 413 238 l 2
 369 90 447 26 545 26 c 0
 714 26 769 172 813 328 c 0
 865 508 902 701 1083 701 c 0
 1142 701 1188 672 1188 630 c 0
 1188 594 1164 576 1145 576 c 0
 1136 576 1130 595 1119 618 c 0
 1106 645 1086 660 1055 660 c 0
 925 660 894 490 845 320 c 0
 782 99 715 -14 518 -14 c 0xde
EndSplineSet
EndChar

StartChar: c
Encoding: 99 99 34
Width: 787
Flags: W
HStem: -14 75<356.254 495.397> 341 70<71.2342 140.542> 609 54<295.539 458> 645 20G<758.5 781>
VStem: 7 50<425.518 521.752> 207 84<126.185 282.38> 758 52<375.982 580.5>
LayerCount: 2
Fore
SplineSet
390 -14 m 0xde
 287 -14 207 49 207 177 c 0
 207 235 233 307 263 356 c 0
 315 442 383 520 458 609 c 1
 182 609 57 552 57 479 c 0
 57 433 80 417 117 411 c 0
 135 408 145 395 145 380 c 0
 145 362 131 341 95 341 c 0
 41 341 7 393 7 445 c 0
 7 575 155 650 514 663 c 0
 523 663 532 649 527 644 c 0
 379 491 291 351 291 217 c 0
 291 107 357 61 436 61 c 0
 574 61 758 209 758 465 c 0
 758 493 744 527 731 556 c 0
 719 582 707 603 707 609 c 0xee
 707 622 750 665 767 665 c 0
 795 665 810 604 810 557 c 0
 810 177 567 -14 390 -14 c 0xde
EndSplineSet
EndChar

StartChar: d
Encoding: 100 100 35
Width: 1013
Flags: W
HStem: -14 75<381.358 502.932> -14 67<673.018 781.085> 341 70<71.2342 140.542> 564 46<662.235 747.44> 609 54<295.539 459> 645 20G<990.5 1011.5>
VStem: 7 50<425.518 521.752> 235 85<128.98 288.485> 525 64<164.339 415.58> 761 46<377.876 553.782> 986 52<385.206 580.5>
LayerCount: 2
Fore
SplineSet
394 -14 m 0xa3e0
 302 -14 235 76 235 177 c 0
 235 235 259 307 286 356 c 0
 334 442 387 504 459 609 c 1
 183 609 57 552 57 479 c 0
 57 433 80 417 117 411 c 0
 135 408 145 395 145 380 c 0
 145 362 131 341 95 341 c 0
 41 341 7 393 7 445 c 0
 7 575 155 650 514 663 c 0xabe0
 523 663 532 644 527 639 c 0
 485 592 432 513 389 446 c 0
 346 378 320 311 320 217 c 0
 320 132 371 61 448 61 c 0
 484 61 528 78 558 94 c 1
 536 140 525 199 525 261 c 0
 525 426 600 610 727 610 c 0xb3e0
 779 610 807 567 807 503 c 0
 807 386 729 204 638 109 c 1
 668 70 701 53 735 53 c 0
 856 53 986 270 986 465 c 0
 986 493 972 528 958 556 c 0
 946 582 934 603 934 609 c 0x6be0
 934 622 982 665 999 665 c 0
 1024 665 1038 604 1038 557 c 0
 1038 279 871 -14 704 -14 c 0x67e0
 663 -14 621 4 582 46 c 1
 517 9 459 -14 394 -14 c 0xa3e0
619 143 m 1
 712 248 761 390 761 477 c 0
 761 526 746 564 715 564 c 0x33e0
 632 564 589 431 589 307 c 0
 589 247 599 188 619 143 c 1
EndSplineSet
EndChar

StartChar: e
Encoding: 101 101 36
Width: 874
Flags: W
HStem: -287 30<941.738 1060.07> -1 31<173.948 249.496 372.518 421.899> 349 70<164.234 233.542> 615 38<314.667 482.438 790.224 829.451> 624 31<957.328 1024.44>
VStem: 100 50<433.518 525.314> 1082 76<-224.42 -140>
LayerCount: 2
Fore
SplineSet
1003 -287 m 4xee
 813 -287 705 -129 592 269 c 0
 589 281 579 279 572 272 c 2
 384 93 l 2
 355 64 366 39 398 30 c 0
 418 24 425 19 422 10 c 0
 420 2 408 -1 392 -1 c 0
 375 -1 343 1 310 1 c 0
 268 1 222 -5 191 -5 c 0
 175 -5 165 -2 167 6 c 0
 170 15 182 21 205 28 c 0
 240 38 312 71 367 124 c 2
 560 310 l 2
 568 316 572 325 567 338 c 0
 543 401 517 474 488 548 c 0
 473 587 429 615 373 615 c 0
 281 615 150 560 150 487 c 0
 150 441 173 425 210 419 c 0
 228 416 238 403 238 388 c 0
 238 370 224 349 188 349 c 0
 134 349 100 401 100 453 c 0
 100 583 268 653 508 653 c 0xf6
 519 653 530 646 534 636 c 0
 573 544 596 463 623 383 c 0
 626 374 635 370 642 377 c 2
 807 537 l 2
 834 563 838 611 814 619 c 0
 802 623 787 630 790 639 c 0
 792 647 804 650 820 650 c 0
 842 650 867 649 895 649 c 0
 931 649 978 655 1003 655 c 0
 1019 655 1029 652 1027 644 c 0
 1024 635 1013 630 990 624 c 0
 952 614 889 562 834 509 c 2
 660 343 l 2
 650 335 646 327 650 317 c 0
 775 -30 829 -257 1009 -257 c 4
 1062 -257 1082 -228 1082 -191 c 4
 1082 -169 1065 -167 1052 -159 c 4
 1043 -153 1036 -145 1036 -128 c 4
 1036 -103 1059 -84 1082 -84 c 4
 1134 -84 1158 -122 1158 -158 c 4
 1158 -217 1106 -287 1003 -287 c 4xee
EndSplineSet
EndChar

StartChar: f
Encoding: 102 102 37
Width: 662
Flags: W
HStem: -5 29<254.948 331.622 478.03 534.899> 273 40<195.123 307> 621 43<244.871 408.952 718.478 827.84>
VStem: 99 48<362.595 527.245> 834 76<546.849 613.457>
LayerCount: 2
Fore
SplineSet
277 -5 m 0
 261 -5 251 -2 253 6 c 0
 256 15 267 20 290 24 c 0
 339 33 374 60 388 108 c 2
 446 301 l 2
 493 455 475 621 340 621 c 0
 204 621 147 527 147 442 c 0
 147 375 184 313 254 313 c 0
 267 313 276 322 284 331 c 0
 290 338 297 343 307 343 c 0
 327 343 339 328 339 312 c 0
 339 294 325 273 289 273 c 0
 161 273 99 354 99 441 c 0
 99 548 188 664 359 664 c 0
 492 664 531 555 531 468 c 0
 531 465 533 465 535 468 c 0
 622 609 728 664 804 664 c 0
 855 664 910 642 910 585 c 0
 910 571 894 539 865 539 c 0
 848 539 846 566 834 590 c 0
 825 607 810 623 781 623 c 0
 657 623 565 457 520 302 c 2
 462 108 l 2
 449 65 466 33 510 24 c 0
 530 20 538 15 535 6 c 0
 533 -2 521 -5 505 -5 c 0
 455 -5 440 0 398 0 c 0
 352 0 327 -5 277 -5 c 0
EndSplineSet
EndChar

StartChar: g
Encoding: 103 103 38
Width: 582
Flags: W
HStem: -256 48<471.925 569.29> 277 36<128.149 243 327 495.674> 584 121<636.25 690.406> 660 54<245.404 379.036>
VStem: 156 55<531.112 627.782> 614 52<-163.315 -73.7781>
LayerCount: 2
Fore
SplineSet
737 665 m 4xec
 737 617 674 587 593 584 c 5xec
 327 313 l 1
 492 313 l 2
 499 313 504 306 499 299 c 0
 489 286 478 277 464 277 c 2
 291 277 l 1
 111 93 l 1
 207 86 287 3 356 -74 c 0
 419 -143 474 -208 527 -208 c 0
 569 -208 614 -176 614 -137 c 0
 614 -120 595 -104 595 -90 c 0
 595 -73 617 -55 632 -55 c 0
 656 -55 666 -74 666 -96 c 0
 666 -165 585 -256 490 -256 c 0
 415 -256 342 -180 273 -103 c 0
 203 -24 138 55 80 55 c 1
 48 35 28 11 9 -10 c 0
 -4 -25 -45 -8 -45 17 c 0
 -45 45 -2 80 59 90 c 1
 243 277 l 1
 136 277 l 2
 128 277 126 289 128 295 c 0
 131 304 145 313 156 313 c 2
 278 313 l 1
 546 585 l 5
 440 594 376 660 285 660 c 4xdc
 234 660 211 636 211 584 c 4xec
 211 575 214 569 217 563 c 4
 220 558 222 554 222 547 c 4
 222 526 203 514 184 514 c 4
 165 514 156 534 156 554 c 4
 156 629 228 714 327 714 c 4xdc
 426 714 534 660 573 615 c 5
 610 676 663 706 698 705 c 4
 721 704 737 691 737 665 c 4xec
EndSplineSet
EndChar

StartChar: h
Encoding: 104 104 39
Width: 821
Flags: HW
HStem: -48.4502 89.2998<89.9218 163.982> -28.5 53.2002<638.4 731.376> 156.75 53.2002<341.293 573.8> 666.85 20G<624.625 635.55>
VStem: 25.6504 42.75<63.9137 93.4302> 557.65 82.6494<326.919 570.95>
LayerCount: 2
Fore
SplineSet
579.5 156.75 m 1x7c
 314.450195312 156.75 l 1
 244.150390625 56.0498046875 171.950195312 -48.4501953125 114 -48.4501953125 c 0
 65.5498046875 -48.4501953125 25.650390625 -1.900390625 25.650390625 31.349609375 c 0
 25.650390625 57 46.5498046875 105.450195312 61.75 105.450195312 c 0
 65.5498046875 105.450195312 66.5 101.650390625 68.400390625 95 c 0
 77.900390625 60.7998046875 118.75 40.849609375 145.349609375 40.849609375 c 0xbc
 199.5 40.849609375 312.549804688 216.599609375 361.950195312 292.599609375 c 0
 483.549804688 482.599609375 551.950195312 632.700195312 552.900390625 633.650390625 c 2
 559.549804688 645.049804688 l 1
 581.400390625 673.549804688 618.450195312 686.849609375 630.799804688 686.849609375 c 0
 640.299804688 686.849609375 640.299804688 682.099609375 640.299804688 664.049804688 c 2
 640.299804688 573.799804688 l 2
 640.299804688 490.200195312 645.049804688 406.599609375 651.700195312 323 c 0
 662.150390625 181.450195312 667.849609375 152 676.400390625 111.150390625 c 0
 687.799804688 54.150390625 694.450195312 24.7001953125 723.900390625 24.7001953125 c 0x7c
 726.75 24.7001953125 727.700195312 25.650390625 738.150390625 30.400390625 c 0
 756.200195312 39.900390625 768.549804688 40.849609375 769.5 40.849609375 c 0xbc
 777.099609375 40.849609375 778.049804688 36.099609375 778.049804688 34.2001953125 c 0
 778.049804688 14.25 703.950195312 -28.5 659.299804688 -28.5 c 0
 617.5 -28.5 611.799804688 -4.75 600.400390625 39.900390625 c 0
 593.75 64.599609375 584.25 107.349609375 579.5 156.75 c 1x7c
557.650390625 570.950195312 m 1
 556.700195312 570.950195312 l 1
 542.450195312 545.299804688 523.450195312 501.599609375 462.650390625 394.25 c 0
 429.400390625 334.400390625 399 284.049804688 340.099609375 193.799804688 c 1
 365.75 209.950195312 379.049804688 209.950195312 396.150390625 209.950195312 c 2
 573.799804688 209.950195312 l 1
 570 263.150390625 557.650390625 422.75 557.650390625 530.099609375 c 2
 557.650390625 570.950195312 l 1
EndSplineSet
EndChar

StartChar: j
Encoding: 106 106 40
Width: 542
Flags: W
HStem: -23.75 53.2002<183.503 304.203> 616.55 53.2002<323.081 466.925>
VStem: 13.2998 82.6504<127.353 332.83> 437 82.6504<534.558 630.239>
LayerCount: 2
Fore
SplineSet
486.400390625 149.150390625 m 0
 486.400390625 128.25 356.25 -23.75 199.5 -23.75 c 0
 92.150390625 -23.75 13.2998046875 52.25 13.2998046875 196.650390625 c 0
 13.2998046875 284.049804688 47.5 421.799804688 139.650390625 525.349609375 c 0
 211.849609375 608 326.799804688 669.75 440.799804688 669.75 c 0
 493.049804688 669.75 519.650390625 651.700195312 519.650390625 608 c 0
 519.650390625 562.400390625 467.400390625 474.049804688 463.599609375 468.349609375 c 0
 449.349609375 447.450195312 410.400390625 427.5 394.25 427.5 c 0
 390.450195312 427.5 384.75 428.450195312 384.75 434.150390625 c 0
 384.75 436.049804688 384.75 437.950195312 392.349609375 451.25 c 0
 397.099609375 459.799804688 437 532 437 566.200195312 c 0
 437 599.450195312 420.849609375 616.549804688 375.25 616.549804688 c 0
 298.299804688 616.549804688 243.200195312 586.150390625 200.450195312 532.950195312 c 0
 116.849609375 428.450195312 95.9501953125 303.049804688 95.9501953125 238.450195312 c 0
 95.9501953125 95 175.75 29.4501953125 264.099609375 29.4501953125 c 0
 342.950195312 29.4501953125 381.900390625 78.849609375 405.650390625 113.049804688 c 0
 427.5 144.400390625 468.349609375 156.75 477.849609375 156.75 c 0
 483.549804688 156.75 486.400390625 153.900390625 486.400390625 149.150390625 c 0
EndSplineSet
EndChar

StartChar: k
Encoding: 107 107 41
Width: 793
Flags: W
HStem: 0 53.2002<207.1 350.251> 595.65 53.1992<346.928 519.97>
VStem: 665.95 82.6494<315.177 477.621>
LayerCount: 2
Fore
SplineSet
203.299804688 0 m 2
 103.549804688 0 l 2
 81.7001953125 0 80.75 0.9501953125 80.75 6.650390625 c 0
 80.75 12.349609375 95 34.2001953125 138.700195312 50.349609375 c 1
 210.900390625 224.200195312 256.5 407.549804688 268.849609375 595.650390625 c 1
 138.700195312 589 117.799804688 555.75 104.5 517.75 c 0
 98.7998046875 501.599609375 96.900390625 495.900390625 72.2001953125 479.75 c 0
 54.150390625 468.349609375 37.0498046875 463.599609375 29.4501953125 463.599609375 c 0
 21.849609375 463.599609375 19.9501953125 467.400390625 19.9501953125 471.200195312 c 0
 19.9501953125 475 32.2998046875 552.900390625 161.5 611.799804688 c 0
 244.150390625 648.849609375 309.700195312 648.849609375 391.400390625 648.849609375 c 0
 481.650390625 648.849609375 562.400390625 648.849609375 644.099609375 605.150390625 c 0
 708.700195312 570 748.599609375 511.099609375 748.599609375 427.5 c 0
 748.599609375 169.099609375 432.25 0 203.299804688 0 c 2
207.099609375 53.2001953125 m 1
 262.200195312 53.2001953125 l 2
 494 53.2001953125 665.950195312 196.650390625 665.950195312 385.700195312 c 0
 665.950195312 595.650390625 418 595.650390625 348.650390625 595.650390625 c 1
 329.650390625 421.799804688 295.450195312 267.900390625 207.099609375 53.2001953125 c 1
EndSplineSet
EndChar

StartChar: l
Encoding: 108 108 42
Width: 542
Flags: W
HStem: -20.9004 53.2002<166.716 300.938> 330.6 53.2002<288.203 375.856> 616.55 53.2002<326.274 450.554>
VStem: 27.5498 82.6504<80.9468 176.538> 138.7 82.6494<435.67 523.828> 464.55 82.6504<550.726 633.65>
LayerCount: 2
Fore
SplineSet
230.849609375 344.849609375 m 1
 185.25 360.049804688 138.700195312 393.299804688 138.700195312 451.25 c 0
 138.700195312 565.25 303.049804688 669.75 436.049804688 669.75 c 0
 475.950195312 669.75 547.200195312 662.150390625 547.200195312 605.150390625 c 0
 547.200195312 547.200195312 481.650390625 513 457.900390625 513 c 0
 450.299804688 513 449.349609375 517.75 449.349609375 519.650390625 c 0
 449.349609375 521.549804688 449.349609375 523.450195312 454.099609375 532 c 0
 460.75 541.5 464.549804688 551.950195312 464.549804688 563.349609375 c 0
 464.549804688 612.75 397.099609375 616.549804688 371.450195312 616.549804688 c 0
 233.700195312 616.549804688 221.349609375 514.900390625 221.349609375 493.049804688 c 0
 221.349609375 442.700195312 263.150390625 389.5 383.799804688 383.799804688 c 0
 390.450195312 383.799804688 397.099609375 382.849609375 397.099609375 377.150390625 c 0
 397.099609375 368.599609375 363.849609375 332.5 316.349609375 330.599609375 c 0
 159.599609375 323.950195312 110.200195312 185.25 110.200195312 138.700195312 c 0
 110.200195312 65.5498046875 188.099609375 32.2998046875 257.450195312 32.2998046875 c 0
 344.849609375 32.2998046875 384.75 86.4501953125 403.75 113.049804688 c 0
 428.450195312 146.299804688 468.349609375 156.75 476.900390625 156.75 c 0
 482.599609375 156.75 485.450195312 153.900390625 485.450195312 149.150390625 c 0
 485.450195312 130.150390625 354.349609375 -20.900390625 192.849609375 -20.900390625 c 0
 100.700195312 -20.900390625 27.5498046875 23.75 27.5498046875 96.900390625 c 0
 27.5498046875 167.200195312 94.0498046875 279.299804688 230.849609375 344.849609375 c 1
EndSplineSet
EndChar

StartChar: m
Encoding: 109 109 43
Width: 736
Flags: W
HStem: -30.4004 53.2002<130.194 204.347> 279.3 61.75<574.751 636.09> 287.85 53.2002<406.6 574.75> 595.65 53.1992<243.126 405.65 476.4 722.718>
VStem: 405.65 75.0498<514.373 595.65>
LayerCount: 2
Fore
SplineSet
805.599609375 612.75 m 0xb8
 805.599609375 580.450195312 742.900390625 557.650390625 732.450195312 557.650390625 c 0
 719.150390625 557.650390625 722.950195312 562.400390625 722.950195312 570.950195312 c 0
 722.950195312 593.75 686.849609375 595.650390625 670.700195312 595.650390625 c 2
 480.700195312 595.650390625 l 1
 471.200195312 550.049804688 426.549804688 390.450195312 406.599609375 341.049804688 c 1
 643.150390625 341.049804688 l 2xb8
 658.349609375 341.049804688 659.299804688 339.150390625 659.299804688 335.349609375 c 0
 659.299804688 330.599609375 656.450195312 323.950195312 654.549804688 320.150390625 c 0
 646.950195312 304 607.049804688 279.299804688 583.299804688 279.299804688 c 0xd8
 575.700195312 279.299804688 574.75 278.349609375 574.75 287.849609375 c 1
 385.700195312 287.849609375 l 1
 368.599609375 234.650390625 290.700195312 68.400390625 271.700195312 46.5498046875 c 0
 233.700195312 2.849609375 184.299804688 -30.400390625 127.299804688 -30.400390625 c 0
 84.5498046875 -30.400390625 41.7998046875 -8.5498046875 22.7998046875 29.4501953125 c 0
 20.900390625 33.25 16.150390625 40.849609375 16.150390625 45.599609375 c 0
 16.150390625 62.7001953125 69.349609375 92.150390625 91.2001953125 92.150390625 c 0
 95 92.150390625 97.849609375 90.25 99.75 86.4501953125 c 0
 111.150390625 66.5 130.150390625 22.7998046875 195.700195312 22.7998046875 c 1
 212.799804688 42.75 260.299804688 147.25 287.849609375 211.849609375 c 0
 342.950195312 341.049804688 381.900390625 474.049804688 405.650390625 595.650390625 c 1
 325.849609375 595.650390625 l 2
 296.400390625 595.650390625 267.900390625 595.650390625 256.5 594.700195312 c 1
 246.049804688 586.150390625 216.599609375 563.349609375 189.049804688 563.349609375 c 0
 184.299804688 563.349609375 181.450195312 566.200195312 181.450195312 569.049804688 c 0
 181.450195312 577.599609375 188.099609375 586.150390625 193.799804688 591.849609375 c 0
 258.400390625 656.450195312 333.450195312 648.849609375 349.599609375 648.849609375 c 2
 729.599609375 648.849609375 l 2
 770.450195312 648.849609375 805.599609375 644.099609375 805.599609375 612.75 c 0xb8
EndSplineSet
EndChar

StartChar: n
Encoding: 110 110 44
Width: 610
Flags: W
HStem: -113.05 53.2002<166.614 306.725> 64.5996 53.2002<203.543 315.539> 616.55 53.2002<332.154 489.199>
VStem: 42.75 82.6504<203.123 382.941> 470.25 81.7002<258.798 329.408> 501.6 82.6504<548.509 631.75>
LayerCount: 2
Fore
SplineSet
428.450195312 152.950195312 m 1xf8
 389.5 120.650390625 304 64.599609375 214.700195312 64.599609375 c 0
 97.849609375 64.599609375 42.75 154.849609375 42.75 261.25 c 0
 42.75 356.25 85.5 461.700195312 149.150390625 529.150390625 c 0
 228 614.650390625 342 669.75 459.799804688 669.75 c 0
 523.450195312 669.75 584.25 657.400390625 584.25 606.099609375 c 0
 584.25 567.150390625 511.099609375 448.400390625 451.25 448.400390625 c 0
 447.450195312 448.400390625 441.75 449.349609375 441.75 455.049804688 c 0
 441.75 459.799804688 445.549804688 464.549804688 450.299804688 470.25 c 0
 455.049804688 475.950195312 501.599609375 532.950195312 501.599609375 564.299804688 c 0xf4
 501.599609375 596.599609375 475 604.200195312 464.549804688 607.049804688 c 0
 441.75 613.700195312 417.049804688 616.549804688 394.25 616.549804688 c 0
 305.900390625 616.549804688 249.849609375 585.200195312 209 535.799804688 c 0
 145.349609375 457.900390625 125.400390625 362.900390625 125.400390625 303.049804688 c 0
 125.400390625 199.5 180.5 117.799804688 279.299804688 117.799804688 c 0
 341.049804688 117.799804688 375.25 151.049804688 396.150390625 171 c 0
 442.700195312 218.5 460.75 274.549804688 470.25 306.849609375 c 0
 475.950195312 323.950195312 522.5 351.5 542.450195312 351.5 c 0
 547.200195312 351.5 551.950195312 348.650390625 551.950195312 343.900390625 c 0
 551.950195312 336.299804688 524.400390625 236.549804688 516.799804688 208.049804688 c 0
 503.5 167.200195312 492.099609375 130.150390625 471.200195312 82.650390625 c 0
 403.75 -67.4501953125 288.799804688 -113.049804688 210.900390625 -113.049804688 c 0
 118.75 -113.049804688 53.2001953125 -74.099609375 53.2001953125 -66.5 c 0
 53.2001953125 -50.349609375 102.599609375 -19 126.349609375 -19 c 0
 128.25 -19 130.150390625 -19 137.75 -24.7001953125 c 0
 190.950195312 -53.2001953125 241.299804688 -59.849609375 275.5 -59.849609375 c 0
 311.599609375 -59.849609375 330.599609375 -57 368.599609375 7.599609375 c 0
 385.700195312 36.099609375 410.400390625 91.2001953125 428.450195312 152.950195312 c 1xf8
EndSplineSet
EndChar

StartChar: o
Encoding: 111 111 45
Width: 871
Flags: HW
HStem: -47.5 53.2002<562.875 692.754> 265.05 53.2002<167.6 237.5 324.9 573.949> 595.65 53.1992<194.966 338.2>
VStem: 293.55 82.6504<440.39 604.675> 525.35 82.6504<-6.6499 158.439>
LayerCount: 2
Fore
SplineSet
324.900390625 318.25 m 1
 587.099609375 318.25 l 1
 608.950195312 395.200195312 637.450195312 481.650390625 672.599609375 576.650390625 c 0
 684.950195312 608.950195312 685.900390625 610.849609375 698.25 622.25 c 0
 714.400390625 635.549804688 741.950195312 648.849609375 755.25 648.849609375 c 0
 759.049804688 648.849609375 764.75 648.849609375 764.75 642.200195312 c 0
 764.75 640.299804688 764.75 638.400390625 760 627 c 0
 706.799804688 486.400390625 638.400390625 282.150390625 615.599609375 114.950195312 c 0
 613.700195312 107.349609375 608 58.900390625 608 48.4501953125 c 0
 608 26.599609375 621.299804688 5.7001953125 649.799804688 5.7001953125 c 4
 665.950195312 5.7001953125 683.049804688 8.5498046875 699.200195312 11.400390625 c 5
 705.849609375 50.349609375 763.799804688 70.2998046875 776.150390625 70.2998046875 c 4
 783.75 70.2998046875 785.650390625 66.5 785.650390625 62.7001953125 c 4
 785.650390625 30.400390625 711.549804688 -47.5 584.25 -47.5 c 4
 541.5 -47.5 525.349609375 -19.9501953125 525.349609375 6.650390625 c 0
 525.349609375 14.25 531.049804688 76.9501953125 542.450195312 137.75 c 0
 544.349609375 149.150390625 553.849609375 196.650390625 574.75 275.5 c 1
 557.650390625 265.049804688 541.5 265.049804688 529.150390625 265.049804688 c 2
 308.75 265.049804688 l 1
 289.75 191.900390625 239.400390625 52.25 220.400390625 5.7001953125 c 0
 219.450195312 4.75 216.599609375 -1.900390625 208.049804688 -9.5 c 0
 186.200195312 -28.5 160.549804688 -38.9501953125 148.200195312 -38.9501953125 c 0
 144.400390625 -38.9501953125 138.700195312 -38 138.700195312 -32.2998046875 c 0
 138.700195312 -31.349609375 138.700195312 -29.4501953125 146.299804688 -10.4501953125 c 0
 177.650390625 70.2998046875 216.599609375 186.200195312 237.5 265.049804688 c 1
 168.150390625 265.049804688 l 2
 146.299804688 265.049804688 145.349609375 266 145.349609375 271.700195312 c 0
 145.349609375 285.950195312 189.049804688 314.450195312 212.799804688 318.25 c 1
 252.700195312 318.25 l 1
 293.549804688 484.5 293.549804688 551 293.549804688 551.950195312 c 0
 293.549804688 565.25 287.849609375 595.650390625 246.049804688 595.650390625 c 0
 164.349609375 595.650390625 133 565.25 106.400390625 515.849609375 c 0
 96.900390625 499.700195312 94.0498046875 494 72.2001953125 479.75 c 0
 55.099609375 469.299804688 37.0498046875 463.599609375 29.4501953125 463.599609375 c 0
 24.7001953125 463.599609375 20.900390625 465.5 20.900390625 470.25 c 0
 20.900390625 493.049804688 124.450195312 648.849609375 310.650390625 648.849609375 c 0
 365.75 648.849609375 376.200195312 615.599609375 376.200195312 593.75 c 0
 376.200195312 589 372.400390625 537.700195312 359.099609375 462.650390625 c 0
 349.599609375 414.200195312 338.200195312 365.75 324.900390625 318.25 c 1
EndSplineSet
EndChar

StartChar: p
Encoding: 112 112 46
Width: 562
Flags: W
HStem: 0 53.2002<2.57897 173.452 208.05 438.01> 595.65 53.1992<175.669 378.1 418.054 598.378>
VStem: 27.5498 82.6504<514.427 546.603>
LayerCount: 2
Fore
SplineSet
534.849609375 595.650390625 m 2
 431.299804688 595.650390625 l 1
 389.5 543.400390625 361 430.349609375 340.099609375 344.849609375 c 0
 302.099609375 196.650390625 278.349609375 115.900390625 208.049804688 53.2001953125 c 1
 396.150390625 53.2001953125 l 2
 444.599609375 53.2001953125 446.5 57.9501953125 453.150390625 76.9501953125 c 0
 462.650390625 101.650390625 508.25 123.5 525.349609375 123.5 c 0
 529.150390625 123.5 535.799804688 123.5 535.799804688 116.849609375 c 0
 535.799804688 81.7001953125 451.25 0 337.25 0 c 2
 2.849609375 0 l 2
 -18.0498046875 0 -19 0.9501953125 -19 6.650390625 c 0
 -19 15.2001953125 -2.849609375 29.4501953125 14.25 38.9501953125 c 0
 38 53.2001953125 47.5 53.2001953125 66.5 53.2001953125 c 2
 130.150390625 53.2001953125 l 2
 155.799804688 53.2001953125 156.75 54.150390625 165.299804688 62.7001953125 c 0
 209.950195312 116.849609375 235.599609375 219.450195312 253.650390625 293.549804688 c 0
 286.900390625 423.700195312 314.450195312 536.75 378.099609375 595.650390625 c 1
 280.25 595.650390625 l 2
 248.900390625 595.650390625 216.599609375 593.75 185.25 589.950195312 c 0
 124.450195312 582.349609375 121.599609375 574.75 110.200195312 538.650390625 c 0
 101.650390625 514.900390625 53.2001953125 492.099609375 37.0498046875 492.099609375 c 0
 32.2998046875 492.099609375 27.5498046875 494 27.5498046875 499.700195312 c 0
 27.5498046875 509.200195312 38.9501953125 535.799804688 56.0498046875 555.75 c 0
 131.099609375 639.349609375 256.5 648.849609375 339.150390625 648.849609375 c 2
 597.549804688 648.849609375 l 2
 619.400390625 648.849609375 620.349609375 647.900390625 620.349609375 642.200195312 c 0
 620.349609375 635.549804688 607.049804688 621.299804688 587.099609375 609.900390625 c 0
 563.349609375 595.650390625 552.900390625 595.650390625 534.849609375 595.650390625 c 2
EndSplineSet
EndChar

StartChar: q
Encoding: 113 113 47
Width: 696
Flags: W
HStem: -113.05 53.2002<192.127 313.156> 595.65 53.1992<482.386 668.8>
VStem: 45.5996 82.6504<0.597095 93.0745> 260.3 80.75<431.793 470.725>
LayerCount: 2
Fore
SplineSet
596.599609375 648.849609375 m 2
 793.25 648.849609375 l 2
 815.099609375 648.849609375 816.049804688 647.900390625 816.049804688 642.200195312 c 0
 816.049804688 632.700195312 782.799804688 598.5 738.150390625 595.650390625 c 0
 717.25 593.75 711.549804688 590.900390625 697.299804688 574.75 c 0
 625.099609375 494 580.450195312 328.700195312 547.200195312 195.700195312 c 0
 527.25 117.799804688 521.549804688 96.900390625 488.299804688 46.5498046875 c 0
 429.400390625 -38.9501953125 312.549804688 -113.049804688 210.900390625 -113.049804688 c 0
 113.049804688 -113.049804688 45.599609375 -54.150390625 45.599609375 31.349609375 c 0
 45.599609375 75.0498046875 55.099609375 83.599609375 68.400390625 94.0498046875 c 0
 91.2001953125 111.150390625 114 118.75 122.549804688 118.75 c 0
 130.150390625 118.75 133 116.849609375 133 111.150390625 c 0
 133 108.299804688 128.25 91.2001953125 128.25 73.150390625 c 0
 128.25 -10.4501953125 196.650390625 -59.849609375 275.5 -59.849609375 c 0
 331.549804688 -59.849609375 361.950195312 -35.150390625 385.700195312 -11.400390625 c 0
 435.099609375 38.9501953125 449.349609375 95 461.700195312 146.299804688 c 0
 519.650390625 375.25 567.150390625 516.799804688 668.799804688 595.650390625 c 1
 537.700195312 595.650390625 l 2
 385.700195312 595.650390625 352.450195312 490.200195312 341.049804688 454.099609375 c 0
 335.349609375 438.900390625 291.650390625 410.400390625 269.799804688 410.400390625 c 0
 262.200195312 410.400390625 260.299804688 412.299804688 260.299804688 418 c 0
 260.299804688 421.799804688 275.5 502.549804688 379.049804688 574.75 c 0
 426.549804688 607.049804688 506.349609375 648.849609375 596.599609375 648.849609375 c 2
EndSplineSet
EndChar

StartChar: r
Encoding: 114 114 48
Width: 782
Flags: W
HStem: -20.9004 42.75<481.036 586.736> 627 42.75<575.014 672.125> 649.75 20G<255.075 265.525>
VStem: 187.15 83.5996<479.794 605.15> 232.75 59.8496<317.83 434.403> 651.7 59.8496<572.714 623.205>
LayerCount: 2
Fore
SplineSet
187.150390625 605.150390625 m 1xb4
 168.150390625 595.650390625 139.650390625 581.400390625 129.200195312 581.400390625 c 0
 124.450195312 581.400390625 119.700195312 582.349609375 119.700195312 588.049804688 c 0
 119.700195312 604.200195312 153.900390625 621.299804688 202.349609375 646 c 0
 221.349609375 655.5 249.849609375 669.75 260.299804688 669.75 c 0
 270.75 669.75 270.75 665.950195312 270.75 655.5 c 0
 270.75 649.799804688 266.950195312 543.400390625 239.400390625 428.450195312 c 0
 189.049804688 217.549804688 113.049804688 23.75 106.400390625 15.2001953125 c 0
 85.5 -7.599609375 52.25 -20.900390625 39.900390625 -20.900390625 c 0
 37.0498046875 -20.900390625 29.4501953125 -20.900390625 29.4501953125 -14.25 c 0
 29.4501953125 -13.2998046875 29.4501953125 -11.400390625 39.900390625 14.25 c 0
 96.900390625 163.400390625 178.599609375 406.599609375 187.150390625 605.150390625 c 1xb4
709.650390625 120.650390625 m 0
 709.650390625 116.849609375 700.150390625 64.599609375 627 19.9501953125 c 0
 564.299804688 -19 500.650390625 -20.900390625 486.400390625 -20.900390625 c 0
 375.25 -20.900390625 232.75 291.650390625 232.75 380.950195312 c 0
 232.75 415.150390625 262.200195312 444.599609375 274.549804688 457.900390625 c 0
 370.5 553.849609375 575.700195312 669.75 657.400390625 669.75 c 0
 686.849609375 669.75 711.549804688 648.849609375 711.549804688 613.700195312 c 0
 711.549804688 565.25 660.25 562.400390625 659.299804688 562.400390625 c 0
 655.5 562.400390625 649.799804688 565.25 649.799804688 571.900390625 c 0
 649.799804688 575.700195312 651.700195312 582.349609375 651.700195312 587.099609375 c 0
 651.700195312 602.299804688 645.049804688 627 614.650390625 627 c 0
 569.049804688 627 399.950195312 532.950195312 327.75 464.549804688 c 0
 295.450195312 433.200195312 292.599609375 420.849609375 292.599609375 406.599609375 c 0xcc
 292.599609375 362.900390625 332.5 252.700195312 390.450195312 156.75 c 0
 410.400390625 123.5 471.200195312 21.849609375 530.099609375 21.849609375 c 0
 535.799804688 21.849609375 624.150390625 21.849609375 648.849609375 91.2001953125 c 0
 652.650390625 105.450195312 654.549804688 109.25 667.849609375 117.799804688 c 0
 684.950195312 130.150390625 697.299804688 130.150390625 698.25 130.150390625 c 0
 703 130.150390625 709.650390625 128.25 709.650390625 120.650390625 c 0
EndSplineSet
EndChar

StartChar: s
Encoding: 115 115 49
Width: 707
Flags: W
HStem: -20.9004 58.9004<380.279 513.329> 33.25 58.9004<173.659 258.682> 610.85 58.9004<424.064 549.575>
VStem: 507.3 93.1006<521.529 593.317>
LayerCount: 2
Fore
SplineSet
172.900390625 87.400390625 m 1xb0
 189.049804688 92.150390625 207.099609375 92.150390625 212.799804688 92.150390625 c 0x70
 262.200195312 92.150390625 310.650390625 78.849609375 355.299804688 66.5 c 0
 409.450195312 51.2998046875 458.849609375 38 505.400390625 38 c 0
 520.599609375 38 521.549804688 38.9501953125 528.200195312 46.5498046875 c 0
 539.599609375 61.75 543.400390625 74.099609375 545.299804688 80.75 c 0
 549.099609375 89.2998046875 552.900390625 100.700195312 582.349609375 119.700195312 c 0
 597.549804688 129.200195312 619.400390625 137.75 631.75 137.75 c 0
 635.549804688 137.75 639.349609375 135.849609375 639.349609375 133 c 0
 639.349609375 128.25 629.849609375 80.75 566.200195312 32.2998046875 c 0
 547.200195312 19 490.200195312 -20.900390625 426.549804688 -20.900390625 c 0xb0
 376.200195312 -20.900390625 330.599609375 -8.5498046875 272.650390625 7.599609375 c 0
 194.75 28.5 172.900390625 32.2998046875 128.25 33.25 c 1x70
 77.900390625 -20.900390625 39.900390625 -20.900390625 38.9501953125 -20.900390625 c 0
 31.349609375 -20.900390625 30.400390625 -16.150390625 30.400390625 -15.2001953125 c 0
 30.400390625 -12.349609375 30.400390625 -5.7001953125 62.7001953125 26.599609375 c 0
 108.299804688 71.25 140.599609375 149.150390625 159.599609375 222.299804688 c 0
 190 339.150390625 223.25 462.650390625 293.549804688 550.049804688 c 0
 345.799804688 615.599609375 437.950195312 669.75 516.799804688 669.75 c 0
 582.349609375 669.75 600.400390625 616.549804688 600.400390625 578.549804688 c 0
 600.400390625 536.75 590.900390625 530.099609375 570.950195312 515.849609375 c 0
 551 501.599609375 524.400390625 490.200195312 511.099609375 490.200195312 c 0
 509.200195312 490.200195312 504.450195312 491.150390625 504.450195312 496.849609375 c 0
 504.450195312 500.650390625 507.299804688 513 507.299804688 530.099609375 c 0
 507.299804688 565.25 493.049804688 610.849609375 437.950195312 610.849609375 c 0
 404.700195312 610.849609375 396.150390625 601.349609375 381.900390625 585.200195312 c 0
 324.900390625 518.700195312 288.799804688 412.299804688 253.650390625 276.450195312 c 0
 242.25 229.900390625 225.150390625 163.400390625 172.900390625 87.400390625 c 1xb0
EndSplineSet
EndChar

StartChar: t
Encoding: 116 116 50
Width: 1229
Flags: W
HStem: -48.4502 89.2998<76.7568 152.917> 649.75 20G<409.45 421.8 1066.38 1072.55> 649.75 20G<409.45 421.8 1066.38 1072.55>
VStem: 924.35 82.6504<27.6179 330.016>
LayerCount: 2
Fore
SplineSet
372.400390625 532.950195312 m 1xd0
 344.849609375 392.349609375 294.5 254.599609375 257.450195312 160.549804688 c 0
 234.650390625 105.450195312 173.849609375 -48.4501953125 111.150390625 -48.4501953125 c 0
 109.25 -48.4501953125 85.5 -48.4501953125 57.9501953125 -34.2001953125 c 0
 26.599609375 -19 26.599609375 -7.599609375 26.599609375 0 c 0
 26.599609375 6.650390625 32.2998046875 57 62.7001953125 74.099609375 c 1
 88.349609375 47.5 129.200195312 40.849609375 141.549804688 40.849609375 c 0
 175.75 40.849609375 206.150390625 114 228 169.099609375 c 0
 320.150390625 392.349609375 341.049804688 534.849609375 354.349609375 625.099609375 c 0
 358.150390625 649.799804688 401.849609375 669.75 417.049804688 669.75 c 0
 426.549804688 669.75 428.450195312 665 429.400390625 657.400390625 c 0
 446.5 561.450195312 465.5 473.099609375 492.099609375 371.450195312 c 0
 527.25 235.599609375 543.400390625 193.799804688 575.700195312 127.299804688 c 1
 636.5 178.599609375 759.049804688 316.349609375 818.900390625 383.799804688 c 2
 1054.5 658.349609375 l 2
 1059.25 663.099609375 1064 668.799804688 1068.75 668.799804688 c 0
 1076.34960938 668.799804688 1076.34960938 656.450195312 1076.34960938 655.5 c 0
 1076.34960938 648.849609375 1076.34960938 646.950195312 1069.70019531 625.099609375 c 0
 1057.34960938 571.900390625 1007 258.400390625 1007 133.950195312 c 0
 1007 133 1007 99.75 1009.84960938 67.4501953125 c 0
 1012.70019531 44.650390625 1013.65039062 27.5498046875 1039.29980469 25.650390625 c 1
 1049.75 31.349609375 1068.75 40.849609375 1080.15039062 40.849609375 c 0
 1088.70019531 40.849609375 1088.70019531 36.099609375 1088.70019531 33.25 c 0
 1088.70019531 15.2001953125 1015.54980469 -27.5498046875 974.700195312 -27.5498046875 c 0
 933.849609375 -27.5498046875 930.049804688 2.849609375 929.099609375 11.400390625 c 0
 924.349609375 48.4501953125 924.349609375 82.650390625 924.349609375 92.150390625 c 0
 924.349609375 107.349609375 924.349609375 142.5 935.75 241.299804688 c 0
 947.150390625 343.900390625 952.849609375 386.650390625 969.950195312 491.150390625 c 1
 706.799804688 183.349609375 622.25 103.549804688 565.25 49.400390625 c 0
 548.150390625 33.25 547.200195312 32.2998046875 542.450195312 32.2998046875 c 0
 535.799804688 32.2998046875 532.950195312 36.099609375 525.349609375 48.4501953125 c 0
 464.549804688 151.049804688 439.849609375 232.75 372.400390625 532.950195312 c 1xd0
EndSplineSet
EndChar

StartChar: u
Encoding: 117 117 51
Width: 842
Flags: W
HStem: -48.4502 89.2998<22.4821 102.112> 648.85 89.3008<822.99 934.796> 649.75 20G<325.85 333.925> 649.75 20G<325.85 333.925>
VStem: 269.8 82.6504<567.596 653.111>
LayerCount: 2
Fore
SplineSet
295.450195312 546.25 m 1xc8
 272.650390625 419.900390625 247 308.75 194.75 155.799804688 c 0
 173.849609375 95.9501953125 124.450195312 -48.4501953125 57.9501953125 -48.4501953125 c 0
 34.2001953125 -48.4501953125 -27.5498046875 -31.349609375 -27.5498046875 0 c 0
 -27.5498046875 6.650390625 -21.849609375 57 8.5498046875 74.099609375 c 1
 37.0498046875 45.599609375 78.849609375 40.849609375 89.2998046875 40.849609375 c 0
 111.150390625 40.849609375 124.450195312 61.75 135.849609375 84.5498046875 c 0
 152.950195312 119.700195312 241.299804688 348.650390625 269.799804688 617.5 c 0
 270.75 629.849609375 271.700195312 638.400390625 287.849609375 650.75 c 0
 300.200195312 659.299804688 319.200195312 669.75 332.5 669.75 c 0xa8
 335.349609375 669.75 338.200195312 669.75 342 666.900390625 c 0
 342.950195312 665.950195312 342.950195312 664.049804688 352.450195312 635.549804688 c 0
 381.900390625 539.599609375 418 434.150390625 467.400390625 307.799804688 c 0
 513 190.950195312 539.599609375 131.099609375 591.849609375 53.2001953125 c 1
 658.349609375 338.200195312 715.349609375 535.799804688 738.150390625 602.299804688 c 0
 764.75 677.349609375 791.349609375 738.150390625 946.200195312 738.150390625 c 1
 950 734.349609375 950 724.849609375 950 722 c 0
 950 701.099609375 938.599609375 677.349609375 934.799804688 670.700195312 c 0
 922.450195312 648.849609375 918.650390625 648.849609375 905.349609375 648.849609375 c 0
 879.700195312 648.849609375 815.099609375 646.950195312 773.299804688 611.799804688 c 1
 745.75 540.549804688 665 241.299804688 616.549804688 17.099609375 c 1
 604.200195312 -5.7001953125 570 -23.75 553.849609375 -23.75 c 0
 549.099609375 -23.75 546.25 -23.75 542.450195312 -20.900390625 c 0
 538.650390625 -17.099609375 499.700195312 37.0498046875 460.75 114.950195312 c 0
 406.599609375 222.299804688 317.299804688 475 295.450195312 546.25 c 1xc8
EndSplineSet
EndChar

StartChar: v
Encoding: 118 118 52
Width: 816
Flags: W
HStem: -20.9004 53.2002<259.62 402.802> 616.55 53.2002<486.768 593.691>
VStem: 55.0996 82.6504<165.446 363.013> 672.6 82.6504<325.419 525.7>
LayerCount: 2
Fore
SplineSet
755.25 454.099609375 m 0
 755.25 167.200195312 478.799804688 -20.900390625 288.799804688 -20.900390625 c 0
 135.849609375 -20.900390625 55.099609375 95.9501953125 55.099609375 236.549804688 c 0
 55.099609375 521.549804688 342 669.75 374.299804688 669.75 c 0
 379.049804688 669.75 383.799804688 668.799804688 383.799804688 663.099609375 c 0
 383.799804688 650.75 359.099609375 634.599609375 339.150390625 624.150390625 c 0
 237.5 570 137.75 440.799804688 137.75 278.349609375 c 0
 137.75 137.75 219.450195312 32.2998046875 353.400390625 32.2998046875 c 0
 534.849609375 32.2998046875 672.599609375 221.349609375 672.599609375 412.299804688 c 0
 672.599609375 538.650390625 612.75 616.549804688 516.799804688 616.549804688 c 0
 478.799804688 616.549804688 458.849609375 604.200195312 435.099609375 576.650390625 c 0
 420.849609375 561.450195312 395.200195312 532.950195312 365.75 469.299804688 c 0
 359.099609375 453.150390625 355.299804688 444.599609375 326.799804688 427.5 c 0
 322.049804688 424.650390625 304 415.150390625 290.700195312 415.150390625 c 0
 286.900390625 415.150390625 280.25 415.150390625 280.25 420.849609375 c 0
 280.25 427.5 320.150390625 522.5 391.400390625 586.150390625 c 0
 432.25 622.25 502.549804688 669.75 581.400390625 669.75 c 0
 695.400390625 669.75 755.25 583.299804688 755.25 454.099609375 c 0
EndSplineSet
EndChar

StartChar: w
Encoding: 119 119 53
Width: 716
Flags: W
HStem: 194.75 53.2002<312.892 430.714> 595.65 53.1992<203.805 268.85 345.313 533.682>
VStem: 633.65 82.6494<416.577 519.459>
LayerCount: 2
Fore
SplineSet
338.200195312 648.849609375 m 2
 471.200195312 648.849609375 l 2
 578.549804688 648.849609375 716.299804688 608.950195312 716.299804688 497.799804688 c 0
 716.299804688 341.049804688 487.349609375 194.75 309.700195312 194.75 c 0
 298.299804688 194.75 291.650390625 194.75 291.650390625 201.400390625 c 0
 291.650390625 209.950195312 309.700195312 225.150390625 323.950195312 233.700195312 c 0
 347.700195312 247 355.299804688 247 376.200195312 247.950195312 c 0
 564.299804688 253.650390625 633.650390625 383.799804688 633.650390625 456 c 0
 633.650390625 558.599609375 506.349609375 595.650390625 399.950195312 595.650390625 c 2
 347.700195312 595.650390625 l 1
 341.049804688 538.650390625 329.650390625 430.349609375 286.900390625 274.549804688 c 0
 245.099609375 119.700195312 190.950195312 -3.7998046875 189.049804688 -5.7001953125 c 0
 175.75 -27.5498046875 135.849609375 -47.5 119.700195312 -47.5 c 0
 116.849609375 -47.5 109.25 -47.5 109.25 -40.849609375 c 0
 109.25 -39.900390625 109.25 -38 118.75 -15.2001953125 c 0
 216.599609375 226.099609375 252.700195312 418 268.849609375 595.650390625 c 1
 138.700195312 589 117.799804688 555.75 104.5 517.75 c 0
 98.7998046875 501.599609375 96.900390625 495.900390625 72.2001953125 479.75 c 0
 54.150390625 468.349609375 37.0498046875 463.599609375 29.4501953125 463.599609375 c 0
 21.849609375 463.599609375 19.9501953125 467.400390625 19.9501953125 471.200195312 c 0
 19.9501953125 477.849609375 35.150390625 549.099609375 147.25 604.200195312 c 0
 224.200195312 643.150390625 297.349609375 648.849609375 338.200195312 648.849609375 c 2
EndSplineSet
EndChar

StartChar: x
Encoding: 120 120 54
Width: 839
Flags: W
HStem: -118.75 53.2002<496.121 654.234> -26.5996 53.1992<154.563 271.108> 96.9004 53.1992<266.063 389.357> 616.55 53.2002<420.679 563.387>
VStem: 109.25 82.6504<226.681 378.33> 670.7 82.6494<313.912 499.541> 686.85 81.7002<-24.1845 4.02319>
LayerCount: 2
Fore
SplineSet
218.5 26.599609375 m 2xfa
 247 26.599609375 l 2
 378.099609375 26.599609375 468.349609375 48.4501953125 541.5 114 c 0
 649.799804688 213.75 670.700195312 323 670.700195312 392.349609375 c 0
 670.700195312 519.650390625 595.650390625 616.549804688 472.150390625 616.549804688 c 0
 296.400390625 616.549804688 191.900390625 431.299804688 191.900390625 316.349609375 c 0
 191.900390625 225.150390625 248.900390625 150.099609375 345.799804688 150.099609375 c 0
 354.349609375 150.099609375 398.049804688 151.049804688 437.950195312 172.900390625 c 0
 444.599609375 177.650390625 465.5 189.049804688 479.75 189.049804688 c 0
 484.5 189.049804688 488.299804688 187.150390625 488.299804688 182.400390625 c 0
 488.299804688 159.599609375 377.150390625 96.900390625 280.25 96.900390625 c 0
 169.099609375 96.900390625 109.25 177.650390625 109.25 274.549804688 c 0
 109.25 474.049804688 340.099609375 669.75 536.75 669.75 c 0
 678.299804688 669.75 753.349609375 563.349609375 753.349609375 434.150390625 c 0xfc
 753.349609375 230.849609375 583.299804688 59.849609375 375.25 -4.75 c 1
 476.900390625 -37.0498046875 456.950195312 -33.25 502.549804688 -45.599609375 c 0
 559.549804688 -61.75 602.299804688 -65.5498046875 625.099609375 -65.5498046875 c 0
 659.299804688 -65.5498046875 673.549804688 -58.900390625 686.849609375 -20.900390625 c 0
 695.400390625 3.7998046875 741.950195312 26.599609375 759.049804688 26.599609375 c 0
 763.799804688 26.599609375 768.549804688 25.650390625 768.549804688 19.9501953125 c 0
 768.549804688 -19.9501953125 673.549804688 -118.75 560.5 -118.75 c 0
 494 -118.75 430.349609375 -100.700195312 361.950195312 -76.9501953125 c 0
 252.700195312 -38.9501953125 209.950195312 -28.5 142.5 -26.599609375 c 0
 137.75 -26.599609375 133 -26.599609375 133 -19.9501953125 c 0
 133 -12.349609375 147.25 1.900390625 166.25 12.349609375 c 0
 190 26.599609375 199.5 26.599609375 218.5 26.599609375 c 2xfa
EndSplineSet
EndChar

StartChar: y
Encoding: 121 121 55
Width: 873
Flags: HW
HStem: -20.9004 53.2002<566.2 681.922> 260.3 52.25<364.595 394.69> 595.65 53.1992<348.594 563.9>
VStem: 632.7 82.6494<447.404 546.009>
LayerCount: 2
Fore
SplineSet
399 595.650390625 m 2
 347.700195312 595.650390625 l 1
 324.900390625 316.349609375 202.349609375 25.650390625 192.849609375 15.2001953125 c 0
 171 -7.599609375 138.700195312 -20.900390625 126.349609375 -20.900390625 c 0
 123.5 -20.900390625 115.900390625 -20.900390625 115.900390625 -14.25 c 0
 115.900390625 -13.2998046875 115.900390625 -11.400390625 122.549804688 2.849609375 c 0
 180.5 143.450195312 248.900390625 338.200195312 268.849609375 595.650390625 c 1
 138.700195312 589 117.799804688 555.75 104.5 517.75 c 0
 98.7998046875 501.599609375 96.900390625 495.900390625 72.2001953125 479.75 c 0
 54.150390625 468.349609375 37.0498046875 463.599609375 29.4501953125 463.599609375 c 0
 21.849609375 463.599609375 19.9501953125 467.400390625 19.9501953125 471.200195312 c 0
 19.9501953125 475 32.2998046875 552.900390625 161.5 611.799804688 c 0
 244.150390625 648.849609375 305.900390625 648.849609375 404.700195312 648.849609375 c 0
 557.650390625 648.849609375 715.349609375 648.849609375 715.349609375 530.099609375 c 0
 715.349609375 422.75 606.099609375 323.950195312 480.700195312 282.150390625 c 1
 505.400390625 251.75 528.200195312 203.299804688 550.049804688 156.75 c 0
 585.200195312 78.849609375 614.650390625 32.2998046875 655.5 32.2998046875 c 0
 702.049804688 32.2998046875 723.900390625 58.900390625 738.150390625 78.849609375 c 0
 761.900390625 112.099609375 798.950195312 123.5 810.349609375 123.5 c 0
 814.150390625 123.5 820.799804688 123.5 820.799804688 117.799804688 c 0
 820.799804688 95.9501953125 707.75 -20.900390625 590.900390625 -20.900390625 c 0
 541.5 -20.900390625 512.049804688 14.25 467.400390625 110.200195312 c 0
 402.799804688 251.75 385.700195312 254.599609375 349.599609375 260.299804688 c 0
 348.650390625 260.299804688 344.849609375 260.299804688 344.849609375 266 c 0
 344.849609375 272.650390625 356.25 285 368.599609375 293.549804688 c 0
 398.049804688 311.599609375 408.5 311.599609375 427.5 312.549804688 c 0
 589 317.299804688 632.700195312 430.349609375 632.700195312 488.299804688 c 0
 632.700195312 547.200195312 594.700195312 595.650390625 399 595.650390625 c 2
EndSplineSet
EndChar

StartChar: z
Encoding: 122 122 56
Width: 622
Flags: W
HStem: -20.9004 53.2002<184.503 346.237> 616.55 53.2002<355.381 500.91>
VStem: 18.0498 82.6504<102.441 188.385> 183.35 82.6504<449.562 535.301> 475.95 82.6494<140.61 237.952> 540.55 82.6504<519.449 584.41>
LayerCount: 2
Fore
SplineSet
112.099609375 209 m 1xf8
 104.5 193.799804688 100.700195312 177.650390625 100.700195312 160.549804688 c 0
 100.700195312 95.9501953125 182.400390625 32.2998046875 281.200195312 32.2998046875 c 0
 317.299804688 32.2998046875 380.950195312 40.849609375 418 65.5498046875 c 0
 457.900390625 92.150390625 475.950195312 140.599609375 475.950195312 174.799804688 c 0xf8
 475.950195312 258.400390625 383.799804688 299.25 313.5 329.650390625 c 0
 274.549804688 345.799804688 183.349609375 384.75 183.349609375 465.5 c 0
 183.349609375 574.75 339.150390625 669.75 466.450195312 669.75 c 0
 479.75 669.75 523.450195312 669.75 569.049804688 649.799804688 c 0
 591.849609375 639.349609375 623.200195312 625.099609375 623.200195312 577.599609375 c 0
 623.200195312 541.5 612.75 530.099609375 602.299804688 519.650390625 c 0
 587.099609375 506.349609375 556.700195312 492.099609375 544.349609375 492.099609375 c 0
 536.75 492.099609375 534.849609375 495.900390625 534.849609375 498.75 c 0
 534.849609375 501.599609375 535.799804688 507.299804688 536.75 511.099609375 c 0
 537.700195312 512.049804688 540.549804688 523.450195312 540.549804688 535.799804688 c 0xf4
 540.549804688 578.549804688 513 589.950195312 492.099609375 598.5 c 0
 453.150390625 614.650390625 414.200195312 616.549804688 401.849609375 616.549804688 c 0
 371.450195312 616.549804688 328.700195312 608.950195312 306.849609375 592.799804688 c 0
 283.099609375 574.75 266 539.599609375 266 507.299804688 c 0
 266 433.200195312 353.400390625 396.150390625 385.700195312 382.849609375 c 0
 460.75 350.549804688 558.599609375 307.799804688 558.599609375 216.599609375 c 0
 558.599609375 88.349609375 378.099609375 -20.900390625 216.599609375 -20.900390625 c 0
 99.75 -20.900390625 18.0498046875 50.349609375 18.0498046875 118.75 c 0
 18.0498046875 209.950195312 110.200195312 253.650390625 146.299804688 253.650390625 c 0
 152 253.650390625 156.75 252.700195312 156.75 247 c 0
 156.75 245.099609375 153.900390625 228 112.099609375 209 c 1xf8
EndSplineSet
EndChar

StartChar: four
Encoding: 52 52 57
Width: 658
Flags: W
HStem: -5 34<-59.7961 20.3042 503.216 566.431> 0 32<146.714 194.31 293.119 377.057> 258 33<315.997 450.422> 656 20G<596.5 603>
LayerCount: 2
Fore
SplineSet
-36 -5 m 0xb0
 -52 -5 -58 -1 -60 8 c 0
 -62 18 -48 23 -26 29 c 0
 30 44 72 71 105 108 c 0
 253 271 356 415 476 569 c 0
 500 599 514 622 522 622 c 0
 550 622 554 632 570 649 c 0
 589 670 593 676 600 676 c 0
 606 676 610 670 605 644 c 2
 501 122 l 2
 488 58 498 36 536 25 c 0
 557 19 568 16 568 7 c 0
 568 -1 559 -5 537 -5 c 0xb0
 511 -5 458 1 416 1 c 0
 380 1 339 0 317 0 c 0
 301 0 295 4 293 12 c 0
 291 21 304 29 321 32 c 0x70
 387 43 404 56 419 112 c 2
 450 231 l 2
 455 251 440 258 421 258 c 2
 309 256 l 2
 288 256 276 252 266 238 c 2
 163 102 l 2
 126 53 147 42 170 34 c 0
 185 29 195 22 195 12 c 0
 195 3 183 -1 167 -1 c 0
 150 -1 123 1 89 1 c 0
 48 1 -5 -5 -36 -5 c 0xb0
334 290 m 2
 441 291 l 2
 455 291 463 298 468 319 c 2
 516 538 l 2
 520 554 520 561 513 561 c 0
 508 561 501 559 494 549 c 2
 316 312 l 2
 306 299 298 290 334 290 c 2
EndSplineSet
EndChar

StartChar: five
Encoding: 53 53 58
Width: 572
Flags: W
HStem: -4 25<-19.625 50.1531 213.369 309.978> 346 25<274.938 353.325> 625 30<182.34 241.239 335.586 439.98>
VStem: 439 81<124.728 280.543> 496 81<456.588 584.062>
LayerCount: 2
Fore
SplineSet
4 -5 m 0xf0
 -12 -5 -20 -3 -20 6 c 0
 -20 16 -7 20 16 24 c 0
 65 33 97 51 112 99 c 2
 249 549 l 2
 264 598 254 613 209 621 c 0
 189 625 182 628 182 638 c 0
 182 647 199 650 215 650 c 0
 248 650 262 645 290 645 c 0
 320 645 367 655 392 655 c 0
 527 655 577 595 577 525 c 0xe8
 577 430 474 376 398 366 c 0
 387 365 390 358 395 356 c 0
 472 326 520 285 520 192 c 0
 520 76 405 -4 252 -4 c 0
 196 -4 163 3 126 3 c 0
 78 3 58 -5 4 -5 c 0xf0
285 371 m 0
 316 371 345 376 377 383 c 1
 443 411 496 457 496 525 c 0
 496 580 451 625 373 625 c 0
 348 625 338 621 335 609 c 2
 273 386 l 2
 270 374 275 371 285 371 c 0
249 21 m 0
 339 21 439 99 439 205 c 0xf0
 439 297 383 346 274 346 c 0
 264 346 256 339 253 327 c 2
 189 108 l 2
 182 84 183 59 199 45 c 0
 213 32 226 21 249 21 c 0
EndSplineSet
EndChar

StartChar: six
Encoding: 54 54 59
Width: 631
Flags: W
HStem: 11 6<445 459> 634 31<405.747 547.464>
VStem: 78 88<140.567 365.222> 604 33<467.178 536.318>
LayerCount: 2
Fore
SplineSet
330 -14 m 0
 221 -14 78 84 78 240 c 0
 78 479 268 665 485 665 c 0
 522 665 559 659 596 646 c 0
 621 638 639 630 653 630 c 0
 659 630 666 634 674 638 c 0
 682 641 690 645 697 645 c 0
 709 645 708 634 704 629 c 0
 682 599 646 532 637 487 c 0
 635 477 626 467 619 467 c 0
 607 467 602 481 604 493 c 0
 610 523 612 556 589 585 c 0
 566 614 528 634 482 634 c 0
 338 634 166 458 166 232 c 0
 166 70 272 17 357 17 c 0
 459 17 496 71 536 139 c 0
 542 149 548 158 559 158 c 0
 565 158 566 151 566 138 c 0
 566 118 507 -9 494 -9 c 0
 489 -9 482 -3 475 2 c 0
 469 7 462 11 454 11 c 0
 445 11 431 6 413 0 c 0
 393 -7 365 -14 330 -14 c 0
EndSplineSet
EndChar

StartChar: seven
Encoding: 55 55 60
Width: 752
Flags: W
HStem: -7 30<183.254 409.275> -5 29<-3.2371 87.2179> 622 27<163.18 244.504 367.125 527.814>
VStem: 659 86<265.985 493.048>
LayerCount: 2
Fore
SplineSet
317 -7 m 0xb0
 298 -7 197 0 124 0 c 0
 87 0 69 -5 20 -5 c 0
 4 -5 -4 -2 -4 6 c 0
 -4 15 9 23 32 24 c 0x70
 95 26 107 51 123 99 c 2
 273 560 l 2
 288 608 230 613 186 622 c 0
 166 626 162 633 162 642 c 0
 162 650 176 653 192 653 c 0
 245 653 287 649 329 649 c 0
 369 649 385 655 432 655 c 0
 619 655 745 560 745 377 c 0
 745 174 570 -7 317 -7 c 0xb0
322 23 m 0xb0
 521 23 659 207 659 395 c 0
 659 548 577 622 442 622 c 0
 358 622 358 605 347 571 c 2
 211 141 l 2
 183 52 230 23 322 23 c 0xb0
EndSplineSet
EndChar

StartChar: eight
Encoding: 56 56 61
Width: 576
Flags: W
HStem: -5 31<-30.6487 61.9023 183.675 439.05> 322 27<265.297 429.349> 622 28<163.258 242.124 342.525 551.119> 640 20G<609.5 614.5> 640 20G<609.5 614.5>
VStem: 441 26<237.015 309.096> 565 28<516.463 594.81>
LayerCount: 2
Fore
SplineSet
-8 -5 m 0xe6
 -24 -5 -32 -2 -32 6 c 0
 -32 15 -19 20 4 24 c 0
 70 35 93 54 107 99 c 2
 244 549 l 2
 262 606 247 617 188 625 c 0
 168 628 162 633 162 642 c 0
 162 650 177 653 193 653 c 0
 208 653 272 650 314 650 c 2
 475 650 l 2xe6
 584 650 607 660 612 660 c 0xd6
 617 660 623 652 623 647 c 0
 623 635 601 593 593 535 c 0
 591 521 582 516 576 516 c 0
 569 516 564 526 565 541 c 0
 569 602 559 622 506 622 c 2
 384 622 l 2
 352 622 342 614 335 592 c 2
 268 380 l 2
 260 356 263 348 284 349 c 2
 408 352 l 2
 442 353 461 369 477 389 c 0
 486 400 498 420 510 420 c 0
 520 420 521 406 514 392 c 0
 502 369 494 350 487 331 c 0
 479 309 473 287 467 258 c 0
 465 249 461 237 454 237 c 0
 443 237 441 257 441 264 c 0
 441 305 426 320 403 320 c 2
 288 322 l 2
 265 322 248 320 240 291 c 2
 189 109 l 2
 170 41 181 26 223 26 c 2
 378 26 l 2
 411 26 437 38 458 53 c 0
 478 67 495 88 512 116 c 0
 517 124 522 134 530 134 c 0
 536 134 537 122 537 114 c 0
 537 96 512 39 498 16 c 0
 490 3 481 -5 465 -5 c 0
 328 -5 205 1 112 1 c 0
 63 1 42 -5 -8 -5 c 0xe6
EndSplineSet
EndChar

StartChar: nine
Encoding: 57 57 62
Width: 509
Flags: W
HStem: -5 29<-9.2371 68.706 200.97 269.641> 322 27<268.265 432.173> 618 32<179.007 245.459 345.112 559.285> 642 20G<614.5 620.5> 642 20G<614.5 620.5>
VStem: 443 28<246.052 311.503> 569 56<546 652>
LayerCount: 2
Fore
SplineSet
14 -5 m 0xe6
 -2 -5 -10 -3 -10 6 c 0
 -10 16 3 20 26 24 c 0
 75 33 95 50 110 99 c 2
 247 549 l 2
 263 597 246 613 202 622 c 0
 182 626 177 633 177 642 c 0xce
 177 650 192 653 208 653 c 0
 223 653 275 650 317 650 c 2
 476 650 l 2xe6
 567 650 612 662 617 662 c 0xd6
 624 662 625 659 625 652 c 0
 625 647 623 640 620 630 c 0
 613 607 601 567 597 540 c 0
 596 533 593 523 580 523 c 0
 570 523 569 535 569 546 c 0
 569 570 571 593 558 606 c 0
 551 613 540 618 521 618 c 2
 377 618 l 2
 352 618 345 604 338 588 c 0
 334 579 284 423 269 374 c 0
 266 363 267 349 276 349 c 2
 411 352 l 2
 438 353 464 367 482 389 c 0
 491 400 503 410 508 410 c 0
 515 410 521 403 517 394 c 0
 494 343 484 314 471 263 c 0
 468 254 465 246 458 246 c 0
 447 246 443 262 443 269 c 0
 443 308 427 319 406 320 c 0
 383 322 309 322 291 322 c 0
 268 322 251 320 243 291 c 2
 192 113 l 2
 172 44 192 35 245 24 c 0
 265 20 270 16 270 6 c 0
 270 -3 256 -5 240 -5 c 0
 190 -5 172 2 133 2 c 0
 87 2 64 -5 14 -5 c 0xe6
EndSplineSet
EndChar

StartChar: colon
Encoding: 58 58 63
Width: 687
Flags: W
HStem: -14 28<317.817 444.6> 260 30<432.012 519.25 623.233 686.871> 634 29<412.974 555.552>
VStem: 81 88<142.781 368.126> 526 36<92 209> 613 33<464.2 536.318>
LayerCount: 2
Fore
SplineSet
389 -14 m 0
 217 -14 81 73 81 254 c 0
 81 486 268 663 514 663 c 0
 557 663 587 653 611 644 c 0
 631 636 647 629 663 629 c 0
 670 629 678 634 686 638 c 0
 693 642 699 645 706 645 c 0
 718 645 717 634 713 629 c 0
 691 599 655 532 646 487 c 0
 643 474 635 464 628 464 c 0
 615 464 610 475 613 493 c 0
 618 523 617 557 596 585 c 0
 579 608 547 634 495 634 c 0
 310 634 169 431 169 228 c 0
 169 95 288 14 389 14 c 0
 450 14 486 53 498 100 c 2
 526 209 l 2
 532 234 526 245 508 250 c 0
 491 255 473 258 463 260 c 0
 449 263 432 266 432 275 c 0
 432 284 446 290 464 290 c 0
 510 290 535 284 581 284 c 0
 614 284 633 290 666 290 c 0
 678 290 687 284 687 276 c 0
 687 269 676 260 655 256 c 0
 625 251 610 240 598 213 c 0
 580 174 562 107 562 92 c 0
 562 80 565 72 573 60 c 1
 558 22 448 -14 389 -14 c 0
EndSplineSet
EndChar

StartChar: semicolon
Encoding: 59 59 64
Width: 751
Flags: W
HStem: -5 29<-19.1905 53.465 181.926 244.641 401.844 477.446 594.888 650.641> 307 38<245.912 585> 622 31<181.501 237.532 348.255 427.556 598.501 655.031 767.674 842.556>
LayerCount: 2
Fore
SplineSet
3 -5 m 0
 -13 -5 -20 -2 -20 6 c 0
 -20 15 -9 18 14 25 c 0
 56 37 75 43 84 72 c 2
 233 551 l 2
 247 597 249 613 205 622 c 0
 185 626 181 633 181 642 c 0
 181 650 195 653 211 653 c 0
 261 653 269 650 306 650 c 0
 344 650 355 653 405 653 c 0
 421 653 429 650 429 642 c 0
 429 633 415 626 392 622 c 0
 343 613 319 590 307 551 c 2
 246 354 l 2
 244 346 250 345 256 345 c 2
 591 345 l 2
 596 345 598 348 601 357 c 2
 662 552 l 2
 673 588 666 613 622 622 c 0
 602 626 598 633 598 642 c 0
 598 650 612 653 628 653 c 0
 678 653 693 650 735 650 c 0
 768 650 770 653 820 653 c 0
 836 653 844 650 844 642 c 0
 844 633 830 626 807 622 c 0
 758 613 749 590 737 552 c 2
 592 81 l 2
 582 49 589 31 626 24 c 0
 646 20 651 15 651 6 c 0
 651 -2 637 -5 621 -5 c 0
 571 -5 564 0 526 0 c 0
 487 0 475 -5 425 -5 c 0
 409 -5 401 -2 401 6 c 0
 401 15 414 20 437 24 c 0
 479 31 509 54 523 97 c 2
 585 292 l 2
 587 299 591 307 585 307 c 2
 240 307 l 2
 236 307 234 304 232 296 c 2
 173 104 l 2
 155 47 178 32 220 24 c 0
 240 20 245 15 245 6 c 0
 245 -2 231 -5 215 -5 c 0
 165 -5 149 0 107 0 c 0
 67 0 53 -5 3 -5 c 0
EndSplineSet
EndChar

StartChar: less
Encoding: 60 60 65
Width: 362
Flags: W
HStem: -5 29<-19.1562 62.4897 199.031 261.641> 622 31<185.501 245.933 364.79 447.556>
LayerCount: 2
Fore
SplineSet
4 -5 m 0
 -12 -5 -20 -2 -20 6 c 0
 -20 15 -7 20 16 24 c 0
 65 33 98 51 112 98 c 2
 250 550 l 2
 264 597 253 613 209 622 c 0
 189 626 185 633 185 642 c 0
 185 650 199 653 215 653 c 0
 265 653 280 650 323 650 c 0
 363 650 375 653 425 653 c 0
 441 653 449 650 449 642 c 0
 449 633 435 626 412 622 c 0
 363 613 338 597 324 550 c 2
 186 98 l 2
 172 51 193 33 237 24 c 0
 257 20 262 15 262 6 c 0
 262 -2 248 -5 232 -5 c 0
 182 -5 167 0 124 0 c 0
 78 0 54 -5 4 -5 c 0
EndSplineSet
EndChar

StartChar: equal
Encoding: 61 61 66
Width: 293
Flags: W
HStem: -200 38<-100.74 -21.2121> 622 31<159.593 220.256 330.47 407.649>
LayerCount: 2
Fore
SplineSet
-95 -200 m 0
 -155 -200 -184 -169 -184 -147 c 0
 -184 -119 -177 -102 -160 -102 c 0
 -149 -102 -133 -120 -112 -135 c 0
 -96 -147 -76 -162 -54 -162 c 0
 -15 -162 15 -134 54 -5 c 2
 223 551 l 2
 237 597 228 613 184 622 c 0
 164 626 159 633 159 642 c 0
 159 650 174 653 190 653 c 0
 240 653 254 650 297 650 c 0
 331 650 336 653 386 653 c 0
 402 653 409 650 409 642 c 0
 409 633 396 626 373 622 c 0
 324 613 313 597 298 551 c 2
 173 142 l 2
 109 -68 77 -94 39 -134 c 0
 2 -173 -40 -200 -95 -200 c 0
EndSplineSet
EndChar

StartChar: greater
Encoding: 62 62 67
Width: 699
Flags: W
HStem: -5 29<-16.1562 62.2952 193.533 252.641 373.032 433.421 584.519 652.641> 323 24<263.625 279.514> 622 31<177.593 238.933 344.534 424.556 538.355 580.84 690.464 790.13>
LayerCount: 2
Fore
SplineSet
7 -5 m 0
 -9 -5 -17 -2 -17 6 c 0
 -17 15 -4 20 19 24 c 0
 68 33 90 51 105 101 c 2
 243 551 l 2
 257 597 246 613 202 622 c 0
 182 626 177 633 177 642 c 0
 177 650 192 653 208 653 c 0
 258 653 271 651 311 651 c 0
 346 651 352 653 402 653 c 0
 418 653 426 650 426 642 c 0
 426 633 412 626 389 622 c 0
 340 613 333 604 317 551 c 2
 261 360 l 2
 258 350 262 347 272 347 c 0
 292 347 312 362 339 385 c 2
 550 567 l 2
 567 582 581 594 581 605 c 0
 581 609 578 615 562 620 c 0
 547 625 538 631 538 640 c 0
 538 648 558 651 574 651 c 2
 624 651 l 2
 677 651 740 655 776 655 c 0
 788 655 793 651 793 644 c 0
 793 635 779 628 756 624 c 0
 707 615 650 597 595 558 c 0
 509 496 447 439 356 357 c 0
 351 352 351 346 355 339 c 0
 433 198 490 116 537 70 c 0
 568 40 595 33 628 24 c 0
 649 18 653 15 653 6 c 0
 653 -2 639 -5 623 -5 c 0
 568 -5 555 0 463 0 c 0
 440 0 438 -1 396 -1 c 0
 380 -1 373 2 373 10 c 0
 373 19 384 23 403 27 c 0
 442 36 443 40 424 72 c 2
 284 306 l 2
 277 318 256 323 251 323 c 0
 246 323 243 310 241 302 c 2
 187 110 l 2
 171 53 184 33 228 24 c 0
 248 20 253 15 253 6 c 0
 253 -2 239 -5 223 -5 c 0
 173 -5 164 2 126 2 c 0
 80 2 57 -5 7 -5 c 0
EndSplineSet
EndChar

StartChar: question
Encoding: 63 63 68
Width: 583
Flags: W
HStem: -5 35<-16.9818 82.625 205.308 432.209> 622 31<202.633 266.483 373.325 479.821>
LayerCount: 2
Fore
SplineSet
4 -5 m 0
 -12 -5 -20 -2 -20 6 c 0
 -20 15 -7 20 16 24 c 0
 65 33 109 52 123 99 c 2
 264 560 l 2
 279 608 271 613 227 622 c 0
 207 626 202 633 202 642 c 0
 202 650 216 653 232 653 c 0
 282 653 295 648 336 648 c 0
 382 648 408 653 458 653 c 0
 474 653 481 650 481 642 c 0
 481 631 465 627 442 625 c 0
 390 620 353 606 341 567 c 2
 206 113 l 2
 191 62 198 30 248 30 c 2
 328 30 l 2
 401 30 443 46 469 72 c 0
 494 97 509 121 530 152 c 0
 536 160 538 162 546 162 c 0
 552 162 554 158 554 150 c 0
 554 132 521 39 503 11 c 0
 498 3 489 -5 480 -5 c 0
 329 -5 222 1 129 1 c 0
 80 1 54 -5 4 -5 c 0
EndSplineSet
EndChar

StartChar: at
Encoding: 64 64 69
Width: 991
Flags: W
HStem: -14 21G<384.5 389> -3 29<-46.3379 35.9566 150.124 201.641 612.52 679.016 836.771 893.749> 625 33<213.03 308.648 956.801 1048.89>
VStem: 374 72<215.75 521.972> 378 76<151.022 504.172>
LayerCount: 2
Fore
SplineSet
387 -14 m 0xa8
 382 -14 378 -4 378 11 c 0xa8
 383 178 381 345 374 512 c 0
 373 541 360 539 345 509 c 0
 283 388 227 267 175 146 c 0
 135 52 143 31 172 26 c 0
 192 23 202 18 202 9 c 0
 202 1 184 -3 168 -3 c 0
 118 -3 106 0 60 0 c 0
 26 0 24 -6 -26 -6 c 0
 -42 -6 -50 -4 -50 4 c 0
 -50 13 -38 19 -15 23 c 0
 42 33 72 56 118 144 c 2
 317 532 l 2
 343 582 334 614 252 625 c 0
 223 629 213 632 213 642 c 0
 213 653 229 658 255 658 c 0
 289 658 374 653 417 653 c 0
 442 653 448 636 446 585 c 2x70
 454 163 l 2
 455 133 468 142 484 160 c 0
 607 299 720 434 839 575 c 1
 854 603 859 618 870 636 c 0
 876 646 882 650 891 650 c 2
 929 650 l 2
 944 650 998 658 1016 658 c 0
 1032 658 1049 652 1049 643 c 0
 1049 632 1040 625 1008 621 c 0
 947 613 937 607 916 536 c 0
 880 413 851 281 827 154 c 0
 810 65 824 33 868 26 c 0
 888 23 894 18 894 9 c 0
 894 3 880 -3 864 -3 c 0
 814 -3 789 8 743 8 c 0
 697 8 685 -3 635 -3 c 0x68
 619 -3 612 1 612 9 c 0
 612 17 625 23 647 28 c 0
 690 38 708 59 723 104 c 0
 772 256 802 365 836 502 c 0
 838 509 830 511 824 504 c 2
 529 162 l 1
 412 10 l 2
 399 -6 391 -14 387 -14 c 0xa8
EndSplineSet
EndChar

StartChar: braceleft
Encoding: 123 123 70
Width: 563
Flags: W
HStem: 589.95 58.8994<190.739 405.65 473.1 745.312> 661.15 20G<802.275 809.4>
VStem: 33.25 93.0996<485.014 522.745>
LayerCount: 2
Fore
SplineSet
473.099609375 589.950195312 m 1
 368.599609375 172.900390625 l 2
 347.700195312 90.25 304 -11.400390625 297.349609375 -19.9501953125 c 0
 278.349609375 -43.7001953125 235.599609375 -64.599609375 218.5 -64.599609375 c 0
 216.599609375 -64.599609375 209.950195312 -64.599609375 209.950195312 -58.900390625 c 0
 209.950195312 -57.9501953125 209.950195312 -56.0498046875 213.75 -46.5498046875 c 0
 233.700195312 -1.900390625 260.299804688 62.7001953125 276.450195312 128.25 c 2
 383.799804688 556.700195312 l 2
 386.650390625 567.150390625 389.5 578.549804688 405.650390625 589.950195312 c 1
 214.700195312 589.950195312 l 2
 172.900390625 589.950195312 161.5 583.299804688 152.950195312 573.799804688 c 0
 131.099609375 550.049804688 128.25 530.099609375 126.349609375 512.049804688 c 0
 123.5 490.200195312 64.599609375 456.950195312 41.7998046875 456.950195312 c 0
 33.25 456.950195312 33.25 463.599609375 33.25 466.450195312 c 0
 33.25 541.5 162.450195312 648.849609375 290.700195312 648.849609375 c 2
 739.099609375 648.849609375 l 1
 771.400390625 676.400390625 799.900390625 681.150390625 804.650390625 681.150390625 c 0
 814.150390625 681.150390625 814.150390625 676.400390625 814.150390625 675.450195312 c 0
 814.150390625 657.400390625 759.049804688 589.950195312 645.049804688 589.950195312 c 2
 473.099609375 589.950195312 l 1
EndSplineSet
EndChar

StartChar: bar
Encoding: 124 124 71
Width: 642
Flags: W
HStem: -20.9004 53.2002<50.9477 168.065> 595.65 53.1992<85.5749 183.35>
VStem: -15.2002 82.6504<59.2694 205.251> 139.65 82.6494<515.777 623.834> 426.55 82.6504<-5.94388 152.208>
LayerCount: 2
Fore
SplineSet
482.599609375 285.950195312 m 1
 481.650390625 285.950195312 l 1
 424.650390625 212.799804688 381.900390625 158.650390625 319.200195312 102.599609375 c 0
 231.799804688 23.75 144.400390625 -20.900390625 79.7998046875 -20.900390625 c 0
 8.5498046875 -20.900390625 -15.2001953125 35.150390625 -15.2001953125 95.9501953125 c 0
 -15.2001953125 168.150390625 23.75 257.450195312 79.7998046875 385.700195312 c 0
 125.400390625 487.349609375 139.650390625 532 139.650390625 561.450195312 c 0
 139.650390625 585.200195312 130.150390625 595.650390625 110.200195312 595.650390625 c 0
 108.299804688 595.650390625 83.599609375 595.650390625 63.650390625 583.299804688 c 0
 42.75 569.049804688 26.599609375 563.349609375 17.099609375 563.349609375 c 0
 12.349609375 563.349609375 7.599609375 564.299804688 7.599609375 570 c 0
 7.599609375 589.950195312 101.650390625 648.849609375 174.799804688 648.849609375 c 0
 191.900390625 648.849609375 222.299804688 646.950195312 222.299804688 603.25 c 0
 222.299804688 559.549804688 187.150390625 478.799804688 157.700195312 412.299804688 c 0
 100.700195312 282.150390625 67.4501953125 202.349609375 67.4501953125 137.75 c 0
 67.4501953125 86.4501953125 86.4501953125 32.2998046875 145.349609375 32.2998046875 c 0
 257.450195312 32.2998046875 501.599609375 361 564.299804688 539.599609375 c 0
 569.049804688 554.799804688 586.150390625 602.299804688 589 608 c 0
 603.25 629.849609375 643.150390625 648.849609375 659.299804688 648.849609375 c 0
 663.099609375 648.849609375 668.799804688 647.900390625 668.799804688 642.200195312 c 0
 668.799804688 636.5 657.400390625 598.5 644.099609375 566.200195312 c 0
 619.400390625 507.299804688 509.200195312 172.900390625 509.200195312 53.2001953125 c 0
 509.200195312 49.400390625 509.200195312 29.4501953125 529.150390625 26.599609375 c 1
 541.5 33.25 554.799804688 40.849609375 569.049804688 40.849609375 c 0
 572.849609375 40.849609375 577.599609375 38.9501953125 577.599609375 34.2001953125 c 0
 577.599609375 15.2001953125 504.450195312 -26.599609375 466.450195312 -26.599609375 c 0
 447.450195312 -26.599609375 426.549804688 -19 426.549804688 11.400390625 c 0
 426.549804688 85.5 460.75 206.150390625 482.599609375 285.950195312 c 1
EndSplineSet
EndChar

StartChar: braceright
Encoding: 125 125 72
Width: 632
Flags: W
HStem: 559.55 89.2998<522.546 573.052> 600.4 48.4492<46.3175 107.992>
VStem: 205.2 73.1494<83.8799 451.491> 600.4 42.75<440.541 574.75>
LayerCount: 2
Fore
SplineSet
266 81.7001953125 m 1x70
 475.950195312 245.099609375 600.400390625 417.049804688 600.400390625 477.849609375 c 0
 600.400390625 499.700195312 589 551 521.549804688 559.549804688 c 0
 511.099609375 560.5 507.299804688 560.5 507.299804688 574.75 c 0
 507.299804688 588.049804688 520.599609375 648.849609375 549.099609375 648.849609375 c 0xb0
 592.799804688 648.849609375 643.150390625 611.799804688 643.150390625 537.700195312 c 0
 643.150390625 479.75 609.900390625 402.799804688 582.349609375 354.349609375 c 0
 457.900390625 142.5 197.599609375 -43.7001953125 190 -43.7001953125 c 0
 183.349609375 -43.7001953125 182.400390625 -31.349609375 182.400390625 -30.400390625 c 0
 182.400390625 -25.650390625 183.349609375 -20.900390625 184.299804688 -16.150390625 c 0
 196.650390625 53.2001953125 205.200195312 164.349609375 205.200195312 246.049804688 c 0
 205.200195312 316.349609375 200.450195312 403.75 176.700195312 475.950195312 c 0
 138.700195312 592.799804688 72.2001953125 597.549804688 42.75 600.400390625 c 0
 37.0498046875 601.349609375 32.2998046875 601.349609375 32.2998046875 608 c 0
 32.2998046875 619.400390625 64.599609375 648.849609375 99.75 648.849609375 c 0
 278.349609375 648.849609375 278.349609375 349.599609375 278.349609375 281.200195312 c 0
 278.349609375 202.349609375 270.75 118.75 266 81.7001953125 c 1x70
EndSplineSet
EndChar

StartChar: asciitilde
Encoding: 126 126 73
Width: 1017
Flags: W
HStem: 559.55 89.2998<913.608 952.926> 600.4 48.4492<46.3175 106.909>
VStem: 183.35 73.1504<99.5295 490.426> 539.6 76<590.089 633.21> 969 42.75<443.723 580.45>
LayerCount: 2
Fore
SplineSet
238.450195312 121.599609375 m 1x78
 383.799804688 291.650390625 543.400390625 576.650390625 543.400390625 589.950195312 c 0
 543.400390625 592.799804688 539.599609375 603.25 539.599609375 607.049804688 c 0
 539.599609375 623.200195312 580.450195312 648.849609375 600.400390625 648.849609375 c 0x78
 609.900390625 648.849609375 610.849609375 646 615.599609375 633.650390625 c 0
 676.400390625 464.549804688 713.450195312 287.849609375 724.849609375 108.299804688 c 0
 725.799804688 100.700195312 725.799804688 90.25 727.700195312 90.25 c 0
 733.400390625 90.25 969 379.049804688 969 487.349609375 c 0
 969 508.25 963.299804688 551.950195312 912 559.549804688 c 0
 902.5 560.5 897.75 560.5 897.75 574.75 c 0
 897.75 589.950195312 912.950195312 648.849609375 938.599609375 648.849609375 c 0xb8
 977.549804688 648.849609375 1011.75 613.700195312 1011.75 547.200195312 c 0
 1011.75 451.25 939.549804688 313.5 860.700195312 197.599609375 c 0
 792.299804688 96.900390625 676.400390625 -43.7001953125 664.049804688 -43.7001953125 c 0
 661.200195312 -43.7001953125 660.25 -42.75 659.299804688 -39.900390625 c 0
 657.400390625 -37.0498046875 657.400390625 -35.150390625 656.450195312 -6.650390625 c 0
 653.599609375 119.700195312 625.099609375 361 558.599609375 547.200195312 c 1
 480.700195312 404.700195312 402.799804688 259.349609375 224.200195312 38 c 0
 201.400390625 8.5498046875 158.650390625 -43.7001953125 151.049804688 -43.7001953125 c 0
 145.349609375 -43.7001953125 144.400390625 -33.25 144.400390625 -28.5 c 0
 144.400390625 -21.849609375 144.400390625 -19.9501953125 150.099609375 -0.9501953125 c 0
 152 8.5498046875 183.349609375 169.099609375 183.349609375 313.5 c 0
 183.349609375 334.400390625 183.349609375 426.549804688 161.5 492.099609375 c 0
 129.200195312 587.099609375 82.650390625 597.549804688 42.75 600.400390625 c 0
 37.0498046875 601.349609375 32.2998046875 601.349609375 32.2998046875 608 c 0
 32.2998046875 619.400390625 64.599609375 648.849609375 99.75 648.849609375 c 0
 256.5 648.849609375 256.5 407.549804688 256.5 348.650390625 c 0
 256.5 265.049804688 247 190.950195312 238.450195312 121.599609375 c 1x78
EndSplineSet
EndChar

StartChar: uni007F
Encoding: 127 127 74
Width: 732
Flags: W
HStem: 0 53.2002<527.557 595.421> 595.65 53.1992<289.397 356.165>
VStem: 49.4004 82.6494<30.5069 109.521> 703 82.6504<539.675 618.343>
LayerCount: 2
Fore
SplineSet
483.549804688 345.799804688 m 1
 501.599609375 181.450195312 l 2
 513 73.150390625 530.099609375 53.2001953125 580.450195312 53.2001953125 c 1
 601.349609375 86.4501953125 644.099609375 98.7998046875 652.650390625 98.7998046875 c 0
 656.450195312 98.7998046875 662.150390625 97.849609375 662.150390625 92.150390625 c 0
 662.150390625 63.650390625 596.599609375 0 507.299804688 0 c 0
 438.900390625 0 427.5 56.0498046875 418.950195312 134.900390625 c 0
 415.150390625 171.950195312 404.700195312 267.900390625 400.900390625 297.349609375 c 1
 338.200195312 263.150390625 249.849609375 208.049804688 223.25 191.900390625 c 0
 132.049804688 132.049804688 132.049804688 118.75 132.049804688 95.9501953125 c 0
 132.049804688 57.9501953125 154.849609375 54.150390625 163.400390625 53.2001953125 c 0
 168.150390625 52.25 170.049804688 51.2998046875 170.049804688 46.5498046875 c 0
 170.049804688 32.2998046875 123.5 0 95.9501953125 0 c 0
 72.2001953125 0 49.400390625 15.2001953125 49.400390625 54.150390625 c 0
 49.400390625 78.849609375 51.2998046875 110.200195312 161.5 186.200195312 c 0
 228 231.799804688 296.400390625 270.75 398.049804688 329.650390625 c 1
 380.950195312 486.400390625 l 2
 368.599609375 595.650390625 336.299804688 595.650390625 304 595.650390625 c 1
 284.049804688 562.400390625 240.349609375 550.049804688 231.799804688 550.049804688 c 0
 227.049804688 550.049804688 222.299804688 551 222.299804688 556.700195312 c 0
 222.299804688 584.25 287.849609375 648.849609375 377.150390625 648.849609375 c 0
 434.150390625 648.849609375 453.150390625 612.75 463.599609375 532 c 0
 470.25 475 474.049804688 435.099609375 479.75 378.099609375 c 1
 549.099609375 416.099609375 611.799804688 457.900390625 622.25 464.549804688 c 0
 703 517.75 703 531.049804688 703 552.900390625 c 0
 703 590.900390625 680.200195312 594.700195312 671.650390625 595.650390625 c 0
 667.849609375 596.599609375 665 597.549804688 665 602.299804688 c 0
 665 616.549804688 710.599609375 648.849609375 739.099609375 648.849609375 c 0
 762.849609375 648.849609375 785.650390625 633.650390625 785.650390625 594.700195312 c 0
 785.650390625 566.200195312 779 538.650390625 684 470.25 c 0
 623.200195312 426.549804688 532 374.299804688 483.549804688 345.799804688 c 1
EndSplineSet
EndChar

StartChar: uni0080
Encoding: 128 128 75
Width: 685
Flags: W
HStem: -130.15 76<107.836 214.636> 568.1 80.75<575.789 636.073> 600.4 48.4492<117.229 199.43>
VStem: 29.4502 40.8496<-16.2928 30.1689> 326.8 73.1504<94.0498 385.991> 656.45 38.9502<443.434 544.818>
LayerCount: 2
Fore
SplineSet
398.049804688 94.0498046875 m 1xbc
 423.700195312 114.950195312 486.400390625 181.450195312 535.799804688 247 c 0
 630.799804688 373.349609375 656.450195312 467.400390625 656.450195312 493.049804688 c 0
 656.450195312 502.549804688 656.450195312 564.299804688 576.650390625 572.849609375 c 0
 570.950195312 573.799804688 565.25 575.700195312 565.25 588.049804688 c 0
 565.25 598.5 574.75 648.849609375 602.299804688 648.849609375 c 0xdc
 643.150390625 648.849609375 695.400390625 615.599609375 695.400390625 537.700195312 c 0
 695.400390625 490.200195312 661.200195312 322.049804688 467.400390625 104.5 c 0
 369.549804688 -6.650390625 217.549804688 -130.150390625 150.099609375 -130.150390625 c 0
 64.599609375 -130.150390625 29.4501953125 -53.2001953125 29.4501953125 -22.7998046875 c 0
 29.4501953125 0 47.5 37.0498046875 60.7998046875 37.0498046875 c 0
 64.599609375 37.0498046875 65.5498046875 36.099609375 70.2998046875 21.849609375 c 0
 85.5 -36.099609375 141.549804688 -54.150390625 175.75 -54.150390625 c 0
 221.349609375 -54.150390625 322.049804688 23.75 323 30.400390625 c 0
 326.799804688 79.7998046875 326.799804688 148.200195312 326.799804688 150.099609375 c 0
 326.799804688 235.599609375 321.099609375 326.799804688 301.150390625 409.450195312 c 0
 274.549804688 521.549804688 223.25 599.450195312 129.200195312 600.400390625 c 1xbc
 105.450195312 571.900390625 76 568.099609375 72.2001953125 568.099609375 c 0xdc
 69.349609375 568.099609375 61.75 568.099609375 61.75 574.75 c 0
 61.75 589.950195312 122.549804688 648.849609375 190 648.849609375 c 0
 394.25 648.849609375 399.950195312 289.75 399.950195312 185.25 c 0
 399.950195312 155.799804688 399.950195312 123.5 398.049804688 94.0498046875 c 1xbc
EndSplineSet
EndChar

StartChar: uni0081
Encoding: 129 129 76
Width: 742
Flags: W
HStem: 0 58.9004<306.292 544.234> 26.5996 58.9004<118.074 368.686> 306.85 67.4502<500.884 573.889> 332.5 42.75<289.82 398.05 452.2 464.067 499.713 521.579> 563.35 58.9004<511.043 622.666> 589.95 58.8994<340.576 530.733>
LayerCount: 2
Fore
SplineSet
452.200195312 332.5 m 1x10
 171.950195312 81.7001953125 l 1
 190.950195312 85.5 212.799804688 85.5 219.450195312 85.5 c 0x50
 268.849609375 85.5 337.25 77.900390625 386.650390625 71.25 c 0
 455.049804688 62.7001953125 506.349609375 58.900390625 532.950195312 58.900390625 c 0
 551 58.900390625 552.900390625 58.900390625 569.049804688 82.650390625 c 0
 584.25 106.400390625 590.900390625 125.400390625 596.599609375 144.400390625 c 0
 604.200195312 168.150390625 659.299804688 197.599609375 679.25 197.599609375 c 0
 681.150390625 197.599609375 688.75 197.599609375 688.75 191.900390625 c 0
 688.75 186.200195312 669.75 114 608.950195312 63.650390625 c 0
 531.049804688 0 475.950195312 0 454.099609375 0 c 0x80
 412.299804688 0 348.650390625 6.650390625 304 12.349609375 c 0
 255.549804688 18.0498046875 186.200195312 26.599609375 140.599609375 26.599609375 c 0x40
 119.700195312 26.599609375 104.5 25.650390625 86.4501953125 15.2001953125 c 0
 63.650390625 2.849609375 48.4501953125 0 44.650390625 0 c 0
 40.849609375 0 36.099609375 1.900390625 36.099609375 5.7001953125 c 0
 36.099609375 10.4501953125 40.849609375 16.150390625 40.849609375 17.099609375 c 0
 44.650390625 20.900390625 67.4501953125 39.900390625 80.75 51.2998046875 c 2
 253.650390625 198.549804688 l 1
 398.049804688 332.5 l 1
 307.799804688 332.5 l 2
 290.700195312 332.5 283.099609375 332.5 283.099609375 341.049804688 c 0
 283.099609375 344.849609375 293.549804688 375.25 346.75 375.25 c 2
 443.650390625 375.25 l 1
 559.549804688 493.049804688 559.549804688 494.950195312 623.200195312 566.200195312 c 1
 611.799804688 563.349609375 601.349609375 563.349609375 589.950195312 563.349609375 c 0x98
 553.849609375 563.349609375 509.200195312 570.950195312 482.599609375 576.650390625 c 0
 450.299804688 582.349609375 404.700195312 589.950195312 370.5 589.950195312 c 0
 301.150390625 589.950195312 287.849609375 569.049804688 275.5 532 c 0
 266.950195312 507.299804688 210.900390625 478.799804688 192.849609375 478.799804688 c 0
 183.349609375 478.799804688 183.349609375 483.549804688 183.349609375 484.5 c 0
 183.349609375 490.200195312 192.849609375 518.700195312 215.650390625 545.299804688 c 0
 250.799804688 584.25 342 648.849609375 449.349609375 648.849609375 c 0x04
 483.549804688 648.849609375 515.849609375 644.099609375 559.549804688 635.549804688 c 0
 621.299804688 625.099609375 646.950195312 622.25 677.349609375 622.25 c 1x08
 707.75 644.099609375 730.549804688 648.849609375 736.25 648.849609375 c 0
 740.049804688 648.849609375 744.799804688 646.950195312 744.799804688 643.150390625 c 0
 744.799804688 629.849609375 564.299804688 437 502.549804688 380.950195312 c 0
 501.599609375 379.049804688 499.700195312 378.099609375 499.700195312 376.200195312 c 0
 499.700195312 375.25 517.75 374.299804688 519.650390625 374.299804688 c 0
 540.549804688 373.349609375 580.450195312 369.549804688 580.450195312 343.900390625 c 0
 580.450195312 324.900390625 549.099609375 306.849609375 532 306.849609375 c 0x24
 523.450195312 306.849609375 521.549804688 309.700195312 520.599609375 314.450195312 c 0
 518.700195312 323.950195312 517.75 330.599609375 452.200195312 332.5 c 1x10
EndSplineSet
EndChar

StartChar: uni0082
Encoding: 130 130 77
Width: 774
VWidth: 950
Flags: HW
HStem: -49 38<-38.1067 120.528> -28 63<640.867 688.321> 208 69<-29.6814 91.5>
VStem: -131 43<32.6666 167.767> 523.8 95.9004<209.95 470.64>
LayerCount: 2
Fore
SplineSet
675.099609375 30.4501953125 m 0
 639.0455915 28.5814342449 637.799804688 54.150390625 626.400390625 111.150390625 c 0
 617.849609375 152 615.712890625 181.12109375 619.700195312 323 c 0
 622.901104183 436.889029378 638 531 640.299804688 664.049804688 c 0
 640.592795818 681.000119144 613.299804688 685.849609375 603.799804688 685.849609375 c 0
 580.221679688 685.849609375 569.05118634 661.338485554 552.900390625 633.650390625 c 0
 551.950195312 632.700195312 483.549804688 482.599609375 361.950195312 292.599609375 c 0
 260.307617188 136.227539062 165.836914062 -11 57 -11 c 3
 -30 -11 -88 13 -88 111 c 0
 -88 168 -37 208 20 208 c 0
 38 208 45 198 53 189 c 0
 61 179 70 169 95 169 c 0
 127 169 142 196 142 221 c 0
 142 249 117 277 66 277 c 0
 -55 277 -131 191 -131 102 c 0
 -131 27 -77.9990234375 -49.5244140625 44 -49 c 0xb8
 171.950195312 -48.4501953125 244.150390625 56.0498046875 314.450195312 156.75 c 1
 529.5 156.75 l 1
 534.25 107.349609375 537.75 64.599609375 544.400390625 39.900390625 c 0
 555.799804688 -4.75 574.509549878 -22.75 610.5 -22.75 c 27
 735.91057571 -22.75 827.400390625 89.25 827.400390625 110.150390625 c 0
 827.400390625 119.900390625 818.549804688 128.75 803.849609375 128.75 c 0
 794.349609375 128.75 783.5 114.400390625 763.650390625 79.0498046875 c 0
 743.264321618 42.7438265318 705 32 675.099609375 30.4501953125 c 0
557.650390625 570.950195312 m 1
 553.087174115 524.347678266 541.549804688 463.400390625 534.69921875 404 c 0
 525.361328125 323.022460938 521.302127747 244.919598211 523.799804688 209.950195312 c 1
 463.767669602 209.950195312 380.395507812 209.134765625 348.099609375 207.799804688 c 1
 407 298.049804688 429.400390625 334.400390625 462.650390625 394.25 c 0
 523.450195312 501.599609375 542.450195312 545.299804688 556.700195312 570.950195312 c 1
 557.650390625 570.950195312 l 1
EndSplineSet
EndChar

StartChar: uni0083
Encoding: 131 131 78
Width: 673
Flags: W
HStem: -20.9004 53.2002<256.047 396.588> 360 70<-47.7658 21.5416> 621.5 49.2002<65.1906 186.201 426.434 541.482>
VStem: -112 50<444.73 547.531> 518.25 91.6504<145.812 287.371> 561.4 83.6494<491.464 602.484>
LayerCount: 2
Fore
SplineSet
336.299804688 32.2998046875 m 0xf8
 401.849609375 32.2998046875 518.25 87.150390625 518.25 219.200195312 c 0xf8
 518.25 310.400390625 446.5 334.400390625 348.650390625 334.400390625 c 0
 318.168553777 334.400390625 289.700195312 320.228515625 289.700195312 346.25 c 0
 289.700195312 352.900390625 304 365.75 361 384.75 c 0
 487.349609375 427.5 561.400390625 470.950195312 561.400390625 546.950195312 c 0
 561.400390625 602.049804688 524.900390625 621.5 472.650390625 621.5 c 0
 401.400390625 621.5 352.450195312 574.75 314.450195312 524.400390625 c 0
 240.349609375 424.650390625 199.5 267.900390625 185.25 211.849609375 c 0
 161.5 121.599609375 123 36.5 104 -1.5 c 0
 84.9282591735 -37.6365273756 18.5817908586 -45.9738270608 41.7998046875 12.349609375 c 0
 77.349609375 101.650390625 107.349609375 181.450195312 134.900390625 308.75 c 0
 152 388.549804688 172 487 186.200195312 604.200195312 c 0
 188.583701758 623.872278329 179.090475639 625.471274601 141 626 c 0
 49.2141830649 627.27405846 -62 571 -62 498 c 0
 -62 452 -39 437 -2 430 c 0
 16 427 26 414 26 399 c 0
 26 381 12 360 -24 360 c 0
 -78 360 -112 412 -112 464 c 0
 -112 594 7 669 247 669 c 3
 260.920898438 669 273.75 651.56597224 267.75 630.200195312 c 0
 248.900390625 514.900390625 l 1
 249.849609375 514.900390625 l 1
 343.900390625 634.599609375 461.700195312 670.700195312 528.200195312 670.700195312 c 0
 596.599609375 670.700195312 645.049804688 612.700195312 645.049804688 554.75 c 0xf4
 645.049804688 455.950195312 511.099609375 411.349609375 455.049804688 384.75 c 1
 536.75 373.349609375 609.900390625 319.200195312 609.900390625 228 c 0
 609.900390625 75.0498046875 410.400390625 -20.900390625 270.75 -20.900390625 c 0
 192.75 -20.900390625 123.867001636 9.18267357918 137.748046875 60.9892578125 c 0
 142.924804688 80.3076171875 170.112304688 113.09375 197.158203125 105.84765625 c 0
 209.71484375 102.483398438 225.08203125 78.6953125 249.729492188 58.6328125 c 0
 266.135963526 44.0830676882 303.862755075 32.2998046875 336.299804688 32.2998046875 c 0xf8
EndSplineSet
EndChar

StartChar: uni008D
Encoding: 141 141 79
Width: 490
Flags: W
HStem: -36 68<333.117 520.955> 55 38<109.698 155.398> 640 29<442.517 521.322>
VStem: 564.097 80.4756<100.991 174.844>
LayerCount: 2
Fore
SplineSet
402.65234375 -36 m 0
 330.65234375 -36 216.883789062 -8 168.584960938 26 c 0
 148.160823939 40.3775881304 119.698242188 55 109.698242188 55 c 0
 103.698242188 55 75.642578125 32 57.0576171875 6 c 0
 42.53125 -14 23.591796875 -25 8.7685546875 -24 c 0
 -4.2314453125 -24 -12.46875 -14 -8.9423828125 6 c 0
 -1.712890625 47 49.2822265625 81 102.045898438 91 c 0
 108.221679688 92 111.103515625 97 115.162109375 103 c 0
 141.685546875 140 168.729492188 268 190.127929688 361 c 0
 220.579101562 494 359.91015625 669 510.91015625 669 c 4
 578.91015625 669 603.327148438 626 596.803710938 589 c 4
 591.336914062 558 570.576171875 531 542.576171875 531 c 4
 532.576171875 531 531.458007812 536 533.044921875 545 c 4
 534.103515625 551 536.513671875 559 537.924804688 567 c 4
 543.625 605 524.795898438 640 487.795898438 640 c 4
 415.795898438 640 339.397460938 537 294.834960938 358 c 0
 270.908203125 262 185.216796875 126 152.985351562 102 c 0
 149.6328125 100 148.3984375 93 155.3984375 93 c 0
 209.3984375 93 264.284704604 76.1323998407 311.580078125 60 c 0
 362.119991588 42.7608911569 443.642578125 32 490.642578125 32 c 0
 538.642578125 32 576.345703125 53 587.577148438 77 c 0
 598.337111122 99.9925087326 562.916992188 113.930664062 564.096679688 148 c 0
 564.758789062 167.115234375 585.446289062 182 605.446289062 182 c 0
 631.446289062 182 649.509765625 139 644.572265625 111 c 0
 632.052734375 40 538.65234375 -36 402.65234375 -36 c 0
EndSplineSet
EndChar

StartChar: uni008E
Encoding: 142 142 80
Width: 1167
VWidth: 950
Flags: W
HStem: -47 31<-37.7621 99.4414> -29 64<853.425 948.653> 210 69<-48.5751 75.5> 649.75 20G<399.45 411.8> 649.75 20G<399.45 411.8 961.375 967.55>
VStem: -149 46<32.5623 163.134> 824.35 82.6504<35.9593 330.423>
LayerCount: 2
Fore
SplineSet
931 35 m 3x76
 963 35 1035 93 1045 103 c 0
 1046 104 1047 104 1048 104 c 0
 1052 104 1056 100 1056 95 c 0
 1056 90 1054 84 1052 81 c 0
 1000 18 935 -29 872 -29 c 0x76
 834.849609375 -27.5498046875 830.049804688 2.849609375 829.099609375 11.400390625 c 0
 824.349609375 48.4501953125 824.349609375 82.650390625 824.349609375 92.150390625 c 0
 824.349609375 107.349609375 824.349609375 142.5 835.75 241.299804688 c 0
 847.150390625 343.900390625 852.849609375 386.650390625 869.950195312 491.150390625 c 1
 616.799804688 183.349609375 563.25 98.5498046875 506.25 44.400390625 c 0
 489.150390625 28.25 487.200195312 32.2998046875 482.450195312 32.2998046875 c 0
 475.799804688 32.2998046875 472.950195312 30.099609375 465.349609375 42.4501953125 c 0
 404.549804688 145.049804688 414.849609375 232.75 372.400390625 532.950195312 c 1
 344.849609375 392.349609375 294.5 254.599609375 257.450195312 160.549804688 c 0
 234.650390625 105.450195312 183.849609375 -48.4501953125 28 -47 c 0
 -92.994761961 -45.8741323296 -149 27 -149 105 c 0
 -148 190 -78 279 50 279 c 0
 101 279 126 251 126 223 c 0
 126 198 111 171 79 171 c 0
 54 171 46 181 37 191 c 0
 29 200 22 210 4 210 c 0
 -60 210 -101 155 -103 99 c 0
 -104 41 -64 -16 40 -16 c 3xa6
 118.989257812 -16 177.916792622 42.8014630138 228 169.099609375 c 0
 320.150390625 392.349609375 341.049804688 534.849609375 354.349609375 625.099609375 c 0
 358.150390625 649.799804688 391.849609375 669.75 407.049804688 669.75 c 0
 416.549804688 669.75 428.450195312 665 429.400390625 657.400390625 c 0
 455.70637402 509.79092252 487.419372828 214.349083234 515.700195312 127.299804688 c 1
 628.105994159 272.767110928 797.231445312 486.734375 944.5 658.349609375 c 0
 949.25 663.099609375 959 667.799804688 963.75 667.799804688 c 0
 971.349609375 667.799804688 973.349609375 656.450195312 973.349609375 655.5 c 0
 973.349609375 648.849609375 976.349609375 646.950195312 969.700195312 625.099609375 c 0
 957.349609375 571.900390625 907 258.400390625 907 133.950195312 c 0
 907 110.94921875 907.142578125 35 931 35 c 3x76
EndSplineSet
EndChar

StartChar: uni009B
Encoding: 155 155 81
Width: 704
VWidth: 950
Flags: W
HStem: -39 49<516.644 646.621> 332.5 42.75<284.056 398.05 443.65 570.212> 640 54<325.404 459.396>
VStem: 236 55<511.112 607.782> 689 65<67.0655 156.223>
LayerCount: 2
Fore
SplineSet
817 645 m 0
 817 597 754 567 673 564 c 1
 407 293 l 1
 371 257 l 1
 195 82 l 1
 291 112 367 92 436 65 c 0
 523.009765625 30.9521484375 554 10 607 10 c 0
 649 10 689 54 689 93 c 0
 689 110 675 127 675 141 c 0
 675 158 700 176 715 176 c 0
 739 176 754 156 754 134 c 0
 754 65 665 -39 570 -39 c 0
 502 -39 437 -25 368 2 c 0
 269.706054688 40.462890625 218 56 160 35 c 1
 128 15 119.464931602 -10.424848033 99 -30 c 0
 76 -52 35 -38 35 -13 c 0
 35 15 78 48 139 70 c 1
 323 257 l 1
 358 293 l 1
 626 565 l 1
 520 574 456 640 365 640 c 0
 314 640 291 616 291 564 c 0
 291 555 294 549 297 543 c 0
 300 538 302 534 302 527 c 0
 302 506 283 494 264 494 c 0
 245 494 236 514 236 534 c 0
 236 609 308 694 407 694 c 0
 506 694 623 644 665 609 c 1
 700 654 743 686 778 685 c 0
 801 684 817 671 817 645 c 0
398.049804688 332.5 m 1
 307.799804688 332.5 l 2
 290.700195312 332.5 283.099609375 339.5 283.099609375 348.049804688 c 0
 283.099609375 351.849609375 283.549804688 375.25 336.75 375.25 c 2
 443.650390625 375.25 l 2
 470.255693056 375.70103161 539.625976562 374.299804688 569.650390625 374.299804688 c 3
 598.473632812 374.299804688 578.825195312 332.5 552.200195312 332.5 c 0
 398.049804688 332.5 l 1
EndSplineSet
EndChar

StartChar: uni009C
Encoding: 156 156 82
Width: 622
Flags: W
HStem: -199 40<293.219 376.086> 614 28<227.805 389.601 478.252 648.863> 646 20G<184.5 189.5 731.5 738> 646 20G<184.5 189.5 731.5 738>
VStem: 674 25<497.114 562.589>
LayerCount: 2
Fore
SplineSet
235 35 m 2xe8
 378 530 l 2
 397 598 392 614 375 614 c 2
 292 614 l 2
 227 614 196 582 172 553 c 0
 154 532 140 504 129 504 c 0
 121 504 118 506 118 517 c 0
 118 519 120 531 128 548 c 0
 141 575 160 611 170 646 c 0xd8
 173 655 182 666 187 666 c 0
 192 666 199 660 205 654 c 0
 211 648 219 642 281 642 c 2
 638 642 l 2
 699 642 710 649 717 655 c 0
 724 661 729 666 734 666 c 0
 742 666 744 661 744 655 c 0
 744 646 738 634 734 627 c 0
 727 614 709 565 699 511 c 0
 697 500 693 497 688 497 c 0
 679 497 674 506 674 520 c 0
 674 581 657 614 607 614 c 2
 507 614 l 2
 481 614 473 603 451 527 c 2
 300 -1 l 2
 272 -99 277 -159 324 -159 c 0
 349 -159 368 -152 401 -119 c 0
 418 -102 433 -93 444 -93 c 0
 464 -93 476 -108 476 -127 c 0
 476 -165 415 -198 353 -199 c 0
 271 -200 187 -132 235 35 c 2xe8
EndSplineSet
EndChar

StartChar: sterling
Encoding: 163 163 83
Width: 982
Flags: W
HStem: -53 38<45.1919 134.269> -47 52.7002<608.616 731.181> 266.05 52.2002<148.87 237.5 324.9 573.949> 336 70<9.23416 78.5416> 596 54<123.228 337.375> 638.85 20G<723.473 746.672> 638.85 20G<723.473 746.672>
VStem: -55 50<420.518 518.01> 775 85<63.8611 167.177>
LayerCount: 2
Fore
SplineSet
237.5 266.049804688 m 1xb180
 168.150390625 265.049804688 l 2
 146 265 145.349609375 279 145.349609375 284.700195312 c 0
 145.349609375 298.950195312 163 318 186.799804688 318.25 c 2
 252.700195312 318.25 l 1
 299.941775145 510.514082012 329.093926331 595.650390625 245 596 c 0
 153 596 -5 547 -5 474 c 0
 -5 428 18 412 55 406 c 0
 73 403 83 390 83 375 c 0
 83 357 69 336 33 336 c 0
 -21 336 -55 388 -55 440 c 0
 -55 570 69 650 309 650 c 0xb980
 365.75 648.849609375 376.200195312 615.599609375 376.200195312 593.75 c 0
 376.200195312 589 372.400390625 537.700195312 359.099609375 462.650390625 c 0
 349.599609375 414.200195312 338.200195312 365.75 324.900390625 318.25 c 1
 587.099609375 318.25 l 1
 608.950195312 395.200195312 637.450195312 481.650390625 672.599609375 576.650390625 c 0
 686.78124383 613.738835284 706.6953125 658.849609375 740.25 658.849609375 c 0
 753.09375 658.849609375 765.991673651 641.380509499 760 627 c 0
 734.417210875 559.38877909 662.501415964 364.334957892 626.3671875 211 c 0
 607.722185469 131.880264426 565.498046875 5.7001953125 649.799804688 5.7001953125 c 3
 707.40234375 5.7001953125 775 33.9951171875 775 99 c 3
 775 136 753 129.40234375 753 169 c 3
 753 198.012695312 780.3359375 222 803 222 c 3
 841 222 860 198 860 150 c 0
 862 26 743 -47 635 -47 c 0x7580
 591.497070312 -47 531.349609375 -19.9501953125 531.349609375 46.650390625 c 0
 531.349609375 54.25 531.049804688 76.9501953125 542.450195312 137.75 c 0
 544.349609375 149.150390625 553.849609375 196.650390625 574.75 275.5 c 1
 557.650390625 265.049804688 541 265 529.150390625 265.049804688 c 2
 308.75 266.049804688 l 1
 301 240 l 2
 265.092192321 119.304338479 245 53 216 12 c 0
 184.956235645 -31.8894599498 115 -53 60 -53 c 0
 0 -53 -39 -22 -39 0 c 0
 -39 28 -32 45 -15 45 c 0
 -4 45 12 27 33 12 c 0
 49 0 69 -15 91 -15 c 0
 130 -15 159 13 199 142 c 2
 237.5 266.049804688 l 1xb180
EndSplineSet
EndChar

StartChar: acute
Encoding: 180 180 84
Width: 631
Flags: W
HStem: -5 29<99.8438 176.653 322.55 380.641> 594 65<644.383 748> 620 33<140.308 200.809 306.885 378.642>
LayerCount: 2
Fore
SplineSet
123 -5 m 0xc0
 107 -5 99 -2 99 6 c 0
 99 15 112 20 135 24 c 0
 184 33 219 60 234 108 c 2
 285 268 l 2
 294 295 292 314 284 342 c 2
 228 548 l 2
 216 593 198 617 167 620 c 0
 148 622 139 633 139 642 c 0
 139 650 158 653 174 653 c 0xa0
 202 653 238 650 282 650 c 0
 311 650 337 652 357 652 c 0
 373 652 380 649 380 641 c 0
 380 632 367 625 343 621 c 0
 305 615 298 607 310 560 c 2
 352 401 l 2
 359 375 364 363 371 363 c 0
 378 363 390 376 407 395 c 0
 527 544 617 659 723 659 c 0
 773 659 793 631 793 602 c 0
 793 569 766 534 723 534 c 0
 695 534 686 544 681 563 c 0
 675 584 671 594 651 594 c 0
 610 594 542 522 404 352 c 0
 374 320 365 294 353 256 c 2
 308 108 l 2
 294 63 312 33 356 24 c 0
 376 20 381 15 381 6 c 0
 381 -2 367 -5 351 -5 c 0
 301 -5 285 0 243 0 c 0
 196 0 173 -5 123 -5 c 0xc0
EndSplineSet
EndChar

StartChar: uni00A0
Encoding: 160 160 85
Width: 547
Flags: W
HStem: -20.9004 53.2002<172.686 307.575> 330.6 53.2002<280.541 400.931> 634.55 35.2002<337.385 452.263>
VStem: 35.5498 99.6504<67.0595 198.153> 141.7 84.6494<427.268 536.853> 459.55 72.6504<508.447 627.225>
LayerCount: 2
Fore
SplineSet
235.849609375 344.849609375 m 1
 190.25 360.049804688 141.700195312 423.299804688 141.700195312 481.25 c 0
 141.700195312 595.25 278.049804688 669.75 411.049804688 669.75 c 0
 491.950195312 669.75 536 617 532.200195312 565.150390625 c 0
 527.96484375 507.35546875 507.650390625 503 483.900390625 503 c 0
 465.032226562 503 442.055664062 522.368164062 459.549804688 553.349609375 c 0
 485.754882812 599.7578125 442.099609375 634.549804688 416.450195312 634.549804688 c 0
 278.700195312 634.549804688 226.349609375 504.900390625 226.349609375 483.049804688 c 0
 226.349609375 432.700195312 268.015625 383.799804688 388.799804688 383.799804688 c 0
 402.450195312 383.799804688 402.099609375 363.849609375 402.099609375 358.150390625 c 0
 402.099609375 339.599609375 368.849609375 332.5 321.349609375 330.599609375 c 0
 164.599609375 323.950195312 135.200195312 175.25 135.200195312 128.700195312 c 0
 135.200195312 55.5498046875 193.099609375 32.2998046875 262.450195312 32.2998046875 c 0
 349.849609375 32.2998046875 389.75 86.4501953125 408.75 113.049804688 c 0
 433.450195312 146.299804688 453.349609375 162.75 461.900390625 166.75 c 0
 476.12109375 173.40234375 490.450195312 163.900390625 490.450195312 149.150390625 c 0
 490.450195312 120.150390625 359.349609375 -20.900390625 197.849609375 -20.900390625 c 0
 105.700195312 -20.900390625 35.5498046875 51.75 35.5498046875 124.900390625 c 0
 35.5498046875 195.200195312 99.0498046875 279.299804688 235.849609375 344.849609375 c 1
EndSplineSet
EndChar

StartChar: paragraph
Encoding: 182 182 86
Width: 532
Flags: W
HStem: -290 64<207.62 292.77> 372 42<336.388 393.499>
VStem: 67 15<305.93 319.102>
LayerCount: 2
Fore
SplineSet
63 -16 m 0
 47 -16 31 11 38 28 c 2
 154 312 l 2
 166 341 169 356 156 356 c 0
 136 356 114 352 82 310 c 0
 77 304 69 304 67 314 c 0
 66 326 80 352 88 364 c 0
 108 394 143 414 188 414 c 0
 209 414 230 395 221 371 c 2
 155 201 l 2
 151 191 160 190 164 197 c 0
 244 338 337 414 398 414 c 0
 440 414 467 368 445 304 c 2
 277 -190 l 6
 268 -216 270 -226 282 -226 c 4
 314 -226 386 -168 396 -158 c 4
 397 -157 398 -157 399 -157 c 4
 403 -157 407 -161 407 -166 c 4
 407 -171 405 -177 403 -180 c 4
 351 -243 286 -290 223 -290 c 4
 205 -290 182 -268 192 -246 c 4
 232 -158 348 208 382 297 c 0
 403 352 393 371 374 372 c 0
 352 373 317 348 273 294 c 0
 242 256 156 129 94 15 c 0
 82 -7 74 -16 63 -16 c 0
EndSplineSet
EndChar

StartChar: Eth
Encoding: 208 208 87
Width: 816
Flags: W
HStem: -6 27<522.5 555.5 522.5 568.5> 164 27<91.5 113> 384 27<449.5 472.5 412 488>
VStem: 160 58<79 103 60.5 125.5> 448 25<61 87.5>
LayerCount: 2
Fore
SplineSet
444 146 m 0
 448 151 451 157 451 164 c 0
 455 223 480 306 536 306 c 0
 551 306 566 293 566 271 c 0
 566 239 528 186 483 136 c 0
 475 127 473 105 473 92 c 0
 473 30 506 21 539 21 c 0
 572 21 638 46 718 161 c 0
 725 171 740 177 751 177 c 0
 755 177 756 173 754 169 c 0
 678 46 602 -6 535 -6 c 0
 480 -6 448 28 448 85 c 0
 448 90 451 106 443 96 c 0
 388 26 332 -10 267 -10 c 0
 200 -10 160 42 160 116 c 0
 160 135 163 155 168 176 c 0
 170 182 168 184 162 181 c 0
 144 171 125 164 101 164 c 0
 82 164 63 168 44 175 c 0
 35 179 30 191 30 200 c 0
 30 203 34 204 38 203 c 0
 57 196 75 191 93 191 c 0
 150 191 177 226 210 270 c 0
 262 339 366 411 458 411 c 0
 487 411 546 411 583 341 c 0
 584 338 583 336 581 336 c 0
 573 336 561 342 555 348 c 0
 530 376 501 384 475 384 c 0
 424 384 370 340 333 295 c 0
 261 208 218 130 218 76 c 0
 218 45 235 18 267 18 c 0
 339 18 399 85 444 146 c 0
EndSplineSet
EndChar

StartChar: onehalf
Encoding: 189 189 88
Width: 489
Flags: W
HStem: -14 75<-20.9892 78.4045> -14 61<255 328.387> 361 53<325.354 405.392>
LayerCount: 2
Fore
SplineSet
20 -14 m 0xa0
 -18 -14 -39 32 -39 51 c 0
 -39 58 -36 69 -25 69 c 0
 -22 69 -20 68 -15 66 c 0
 -7 64 6 61 35 61 c 0xa0
 74 61 104 75 114 92 c 2
 236 294 l 2
 283 372 329 414 399 414 c 0
 406 414 415 407 415 401 c 0
 415 396 414 389 411 380 c 2
 303 78 l 2
 297 59 297 47 309 47 c 0
 341 47 413 116 420 123 c 0
 424 127 426 128 427 128 c 0
 431 128 434 122 434 115 c 0
 434 110 432 100 421 88 c 0
 376 35 310 -14 269 -14 c 0x60
 241 -14 222 27 227 42 c 2
 335 341 l 2
 338 350 339 361 331 361 c 0
 312 361 287 323 270 296 c 0
 252 268 147 78 95 23 c 0
 69 -5 44 -14 20 -14 c 0xa0
EndSplineSet
EndChar

StartChar: threequarters
Encoding: 190 190 89
Width: 635
Flags: W
HStem: -14 69<-28.8947 63.2908 393.215 469.58> -5 21G<227 235>
LayerCount: 2
Fore
SplineSet
1 -14 m 0x80
 -12 -14 -41 15 -41 32 c 0
 -41 46 -38 58 -26 58 c 0
 48 58 79 73 96 113 c 0
 124 177 152 272 173 348 c 1
 195 392 207 415 238 415 c 0
 246 415 244 393 245 372 c 2
 276 119 l 2
 277 114 282 113 285 117 c 2
 419 305 l 2
 477 386 521 415 552 415 c 0
 565 415 572 406 564 396 c 0
 557 386 546 369 538 345 c 2
 457 94 l 2
 448 67 448 55 460 55 c 0
 492 55 557 108 567 118 c 0
 568 119 569 119 570 119 c 0
 574 119 579 115 579 110 c 0
 579 82 465 -14 408 -14 c 0x80
 394 -14 368 11 374 29 c 2
 469 307 l 2
 474 322 470 327 461 315 c 2
 259 22 l 2
 249 7 239 -5 231 -5 c 0
 223 -5 222 6 221 16 c 2x40
 195 303 l 2
 195 307 191 308 189 300 c 0
 133 77 90 -14 1 -14 c 0x80
EndSplineSet
EndChar

StartChar: questiondown
Encoding: 191 191 90
Width: 531
Flags: W
HStem: -14 61<288.574 370.054> 188 37<190.25 330> 356 59<145.969 222.714>
VStem: 47 48<-14.8559 4> 410 63<386 404.448>
LayerCount: 2
Fore
SplineSet
71 -15 m 0
 53 -15 47 -4 47 13 c 0
 47 19 47 23 49 27 c 2
 168 327 l 6
 174 341 179 356 166 356 c 4
 146 356 120 344 84 320 c 4
 77 315 69 314 69 324 c 4
 71 348 160 414 209 415 c 4
 227 415 247 386 239 365 c 2
 187 237 l 2
 183 226 189 225 192 225 c 2
 344 231 l 2
 346 231 349 233 351 239 c 2
 410 386 l 2
 418 403 452 414 462 414 c 0
 472 414 473 409 473 397 c 0
 473 391 465 374 455 350 c 2
 350 86 l 2
 340 59 339 47 351 47 c 0
 383 47 453 108 463 118 c 0
 464 119 465 119 466 119 c 0
 470 119 475 115 475 110 c 0
 475 105 470 99 468 96 c 0
 412 33 358 -14 303 -14 c 0
 282 -14 264 17 270 32 c 2
 329 181 l 2
 333 191 337 194 330 194 c 2
 178 188 l 2
 175 188 170 187 166 181 c 2
 95 4 l 2
 91 -7 80 -15 71 -15 c 0
EndSplineSet
EndChar

StartChar: i
Encoding: 105 105 91
Width: 673
Flags: W
HStem: -20.9004 53.2002<250.165 395.401> 617.5 53.2002<426.279 531.755>
VStem: 527.25 82.6504<147.472 260.719> 562.4 82.6494<508.363 587.553>
LayerCount: 2
Fore
SplineSet
270.75 661.200195312 m 2xd0
 248.900390625 514.900390625 l 1
 249.849609375 514.900390625 l 1
 343.900390625 634.599609375 461.700195312 670.700195312 528.200195312 670.700195312 c 0
 596.599609375 670.700195312 645.049804688 632.700195312 645.049804688 574.75 c 0xd0
 645.049804688 475.950195312 511.099609375 411.349609375 455.049804688 384.75 c 1
 536.75 373.349609375 609.900390625 319.200195312 609.900390625 228 c 0
 609.900390625 75.0498046875 410.400390625 -20.900390625 270.75 -20.900390625 c 0
 179.549804688 -20.900390625 141.549804688 24.7001953125 126.349609375 42.75 c 1
 132.049804688 56.0498046875 133 59.849609375 153.900390625 74.099609375 c 0
 165.299804688 80.75 185.25 91.2001953125 198.549804688 91.2001953125 c 0
 205.200195312 91.2001953125 206.150390625 90.25 211.849609375 84.5498046875 c 0
 246.049804688 47.5 288.799804688 32.2998046875 336.299804688 32.2998046875 c 0
 401.849609375 32.2998046875 527.25 54.150390625 527.25 186.200195312 c 0xe0
 527.25 277.400390625 446.5 334.400390625 348.650390625 334.400390625 c 0
 327.75 334.400390625 307.799804688 330.599609375 301.150390625 330.599609375 c 0
 295.450195312 330.599609375 290.700195312 331.549804688 290.700195312 337.25 c 0
 290.700195312 343.900390625 304 365.75 361 384.75 c 0
 487.349609375 427.5 562.400390625 456.950195312 562.400390625 532.950195312 c 0
 562.400390625 588.049804688 514.900390625 617.5 462.650390625 617.5 c 0
 391.400390625 617.5 352.450195312 574.75 314.450195312 524.400390625 c 0
 240.349609375 424.650390625 199.5 267.900390625 185.25 211.849609375 c 0
 161.5 121.599609375 133 66.5 114 28.5 c 0
 95.9501953125 -5.7001953125 50.349609375 -20.900390625 39.900390625 -20.900390625 c 0
 38 -20.900390625 29.4501953125 -20.900390625 29.4501953125 -15.2001953125 c 0
 29.4501953125 -13.2998046875 29.4501953125 -11.400390625 41.7998046875 12.349609375 c 0
 88.349609375 101.650390625 107.349609375 181.450195312 134.900390625 308.75 c 0
 152 388.549804688 170.049804688 487.349609375 186.200195312 604.200195312 c 1
 167.200195312 595.650390625 139.650390625 581.400390625 129.200195312 581.400390625 c 0
 124.450195312 581.400390625 119.700195312 582.349609375 119.700195312 588.049804688 c 0
 119.700195312 604.200195312 153.900390625 621.299804688 202.349609375 646 c 0
 221.349609375 655.5 249.849609375 669.75 260.299804688 669.75 c 0
 267.900390625 669.75 270.75 667.849609375 270.75 661.200195312 c 2xd0
EndSplineSet
EndChar

StartChar: uni0085
Encoding: 133 133 92
Width: 753
VWidth: 950
Flags: W
HStem: 0 53.2002<91.7089 148.741 207.1 359.719> 340 70<65.2342 134.542> 595.65 56.3496<200.253 278.85 346.823 526.616>
VStem: 1 50<424.518 521.067> 633.413 95.1865<301.202 489.036>
LayerCount: 2
Fore
SplineSet
728.599609375 417.5 m 0
 728.599609375 159.099609375 462.25 -3.17122527828e-14 203.299804688 0 c 2
 103.549804688 0 l 2
 81.7001953125 0 80.75 12.9501953125 80.75 18.650390625 c 0
 80.75 24.349609375 95 40.2001953125 138.700195312 50.349609375 c 1
 210.900390625 224.200195312 266.5 407.549804688 278.849609375 595.650390625 c 1
 205.849609375 585.650390625 51 551.03486407 51 478 c 0
 51 432 74 416 111 410 c 0
 129 407 139 394 139 379 c 0
 139 361 125 340 89 340 c 0
 35 340 1 392 1 444 c 0
 1 574 148 652 388 652 c 0
 478.650390625 651.849609375 528.427596546 641.655171899 605.099609375 599.150390625 c 4
 676.45086298 559.595286798 728.599609375 501.099609375 728.599609375 417.5 c 0
207.099609375 53.2001953125 m 1
 262.200195312 53.2001953125 l 2
 434.397910385 53.2001953125 633.413085938 192.984375 633.413085938 383.9609375 c 0
 633.413085938 465.260492222 599.971679688 531.532226562 547 563.791015625 c 4
 490.951171875 597.923828125 413.515624896 595.650390625 348.650390625 595.650390625 c 1
 329.650390625 421.799804688 295.450195312 267.900390625 207.099609375 53.2001953125 c 1
EndSplineSet
EndChar

StartChar: uni008F
Encoding: 143 143 93
Width: 799
VWidth: 950
Flags: W
HStem: -48.4502 41.4502<-3.54168 88.0778> 704 41<834.696 970.545>
VStem: -88 69<7.88056 69.7754> 269.8 82.6504<579.972 654.128> 985 69<627.225 689.109>
LayerCount: 2
Fore
SplineSet
921 704 m 3
 952 704 972 689 985 662 c 0
 996 639 1002 620 1011 620 c 0
 1030 620 1054 638 1054 674 c 0
 1054 716 1008 745 949 745 c 0
 790.349609375 743.150390625 764.75 677.349609375 738.150390625 602.299804688 c 0
 715.349609375 535.799804688 658.349609375 338.200195312 591.849609375 53.2001953125 c 1
 539.599609375 131.099609375 513 190.950195312 467.400390625 307.799804688 c 0
 418 434.150390625 397 508 352.450195312 635.549804688 c 24
 342.205432814 664.211309428 309.780273438 670.375 286.849609375 650.75 c 0
 273.353203507 639.199223955 270.75 629.849609375 269.799804688 617.5 c 0
 241.299804688 348.650390625 152.950195312 119.700195312 135.849609375 84.5498046875 c 0
 113.757327666 40.3633486737 90.3140352955 -7 46 -7 c 3
 14 -7 -6 8 -19 35 c 0
 -30 58 -36 77 -45 77 c 0
 -64 77 -88 59 -88 23 c 0
 -88 -19 -41.0493712648 -48.2240455965 17.9501953125 -48.4501953125 c 0
 135.400390625 -48.900390625 174.256495915 95.8096524879 194.75 155.799804688 c 0
 247 308.75 272.650390625 419.900390625 295.450195312 546.25 c 1
 317.299804688 475 406.599609375 222.299804688 460.75 114.950195312 c 0
 499.700195312 37.0498046875 538.650390625 -17.099609375 542.450195312 -20.900390625 c 0
 546.25 -23.75 565.099609375 -27.75 569.849609375 -27.75 c 4
 586 -27.75 604.200195312 -5.7001953125 616.549804688 17.099609375 c 1
 665 241.299804688 709 393 773.299804688 611.799804688 c 0
 792.497751261 677.126705461 860.585171421 704 921 704 c 3
EndSplineSet
EndChar

StartChar: uni008C
Encoding: 140 140 94
Width: 742
VWidth: 950
Flags: W
HStem: -28 38<-31.1577 44.4421> -20.9004 43.9004<481.632 599.102> 347 70<-28.7658 40.5416> 605 65<581.972 683> 613 57<70.2164 242.375>
VStem: -93 50<431.518 535.414> 232.75 46.8496<323.01 441.648> 622 69<59.8436 142>
LayerCount: 2
Fore
SplineSet
2 10 m 4xaf
 23.3955078125 10.671875 50.2108990553 22.2932594063 64.900390625 54.25 c 4
 76.8480283402 80.2418838825 253.375449961 613 180 613 c 3
 88 613 -43 558 -43 485 c 0
 -43 439 -20 423 17 417 c 0
 35 414 45 401 45 386 c 0
 45 368 31 347 -5 347 c 0
 -59 347 -93 399 -93 451 c 0
 -93 581 -9 670 231 670 c 0
 253.75 669.75 270.75 656.950195312 270.75 624.5 c 0
 270.75 618.799804688 266.950195312 543.400390625 239.400390625 428.450195312 c 0
 189.049804688 217.549804688 191.748528955 217.151768997 131.400390625 68.2001953125 c 4
 106.260742188 6.150390625 50.84375 -28 -29 -28 c 7
 -89 -28 -128 33 -128 55 c 4
 -128 83 -111 100 -94 100 c 4
 -83 100 -65 83 -56 63 c 4
 -47.7927064534 44.7615698965 -19.9891606461 9.3094827457 2 10 c 4xaf
586.650390625 605 m 0x37
 550.79536186 605 279.599609375 496.659312033 279.599609375 402.599609375 c 0
 279.599609375 377.73702519 309.26953125 285.381835938 358.036132812 198 c 0
 408.345703125 107.853515625 478.594355404 23 532 23 c 3
 585 23 622 51 622 77 c 0
 622 97 606 108 593 117 c 0
 582 125 570 134 570 155 c 0
 570 182 594 197 621 197 c 0
 671 197 691 162 691 122 c 0
 691 63 620.400390625 -20.900390625 502.400390625 -20.900390625 c 3
 415.168843749 -20.900390625 347.873046875 59.2666015625 296.834960938 150 c 0
 247.09765625 238.420898438 232.75 336.876472092 232.75 380.950195312 c 0
 232.75 522.258229993 597.618285456 669.816580019 658 670 c 0x77
 708 670 728 642 728 613 c 0x2f
 728 580 701 545 658 545 c 0
 630 545 621 555 616 574 c 0
 610 595 606 605 586.650390625 605 c 0x37
EndSplineSet
EndChar

StartChar: brokenbar
Encoding: 166 166 95
Width: 742
VWidth: 950
Flags: W
HStem: -20.9004 43.9004<476.049 599.102> 611 58.75<166.138 242.025 581.836 683>
VStem: 232.75 59.8496<316.587 441.853> 622 69<59.8436 142>
LayerCount: 2
Fore
SplineSet
230.299804688 669.75 m 0
 253.75 669.75 270.75 656.950195312 270.75 624.5 c 0
 270.75 618.799804688 266.950195312 543.400390625 239.400390625 428.450195312 c 0
 189.049804688 217.549804688 167 173 106.400390625 15.2001953125 c 24
 99 -4 80.25 -20.900390625 67.900390625 -20.900390625 c 4
 50.6875 -20.900390625 28.2822588096 -14.2671339373 39.900390625 14.25 c 0
 46.340507909 30.057505895 253.822265625 611 186 611 c 0
 166 611 140 599 104 575 c 0
 97 570 89 569 89 579 c 0
 91 603 179.989175836 669.75 230.299804688 669.75 c 0
586.650390625 605 m 0
 541.049804688 605 399.950195312 532.950195312 327.75 464.549804688 c 0
 295.450195312 433.200195312 292.599609375 420.849609375 292.599609375 406.599609375 c 0
 292.599609375 362.900390625 332.5 252.700195312 390.450195312 156.75 c 0
 410.400390625 123.5 461.187171355 23 532 23 c 3
 585 23 622 51 622 77 c 0
 622 97 606 108 593 117 c 0
 582 125 570 134 570 155 c 0
 570 182 594 197 621 197 c 0
 671 197 691 162 691 122 c 0
 691 63 620.400390625 -20.900390625 502.400390625 -20.900390625 c 3
 415.168843749 -20.900390625 358.873046875 59.2666015625 307.834960938 150 c 0
 258.09765625 238.420898438 232.75 336.876472092 232.75 380.950195312 c 0
 232.75 522.258229993 597.618285456 669.816580019 658 670 c 0
 708 670 728 642 728 613 c 0
 728 580 701 545 658 545 c 0
 630 545 621 555 616 574 c 0
 610 595 606 605 586.650390625 605 c 0
EndSplineSet
EndChar

StartChar: uni0089
Encoding: 137 137 96
Width: 542
Flags: HW
HStem: -53 38<45.1919 134.269> -47 52.7002<548.616 671.181> 266.05 52.2002<148.87 186.8 469.15 513.949> 336 70<9.23416 78.5416> 596 54<123.228 337.375> 605 41<725.238 816.762>
VStem: -55 50<420.518 518.01> 715 85<63.8611 167.177> 831 69<528.465 591.903>
LayerCount: 2
Fore
SplineSet
636.099609375 5.4501953125 m 4
 605.006031475 5.4501953125 561.249023438 17.193359375 549.004882812 48 c 0
 531.580078125 91.8369140625 555.417571162 164.53409983 566.3671875 211 c 0
 584.422851562 287.618164062 601.786132812 360.46484375 638 451 c 0
 668 526 717 605 772 605 c 0
 801 605 819 590 831 562 c 0
 841 539 848 521 857 521 c 0
 876 521 900 539 900 575 c 0
 900 617 854 646 795 646 c 0
 705 646 626 599 554 407 c 0x7780
 541.21875 372.916992188 535.139648438 346.563476562 527.099609375 318.25 c 1
 324.900390625 318.25 l 1
 338.200195312 365.75 349.599609375 414.200195312 359.099609375 462.650390625 c 0
 372.400390625 537.700195312 376.200195312 589 376.200195312 593.75 c 0
 376.200195312 615.599609375 365.75 648.849609375 309 650 c 0
 69 650 -55 570 -55 440 c 0
 -55 388 -21 336 33 336 c 0
 69 336 83 357 83 375 c 0
 83 390 73 403 55 406 c 0
 18 412 -5 428 -5 474 c 0
 -5 547 153 596 245 596 c 0
 329.093926331 595.650390625 299.941775145 510.514082012 252.700195312 318.25 c 1
 186.799804688 318.25 l 2
 163 318 145.349609375 298.950195312 145.349609375 284.700195312 c 0
 145.349609375 279 146 265 168.150390625 265.049804688 c 2
 237.5 266.049804688 l 1
 199 142 l 2
 159 13 130 -15 91 -15 c 0
 69 -15 49 0 33 12 c 0
 12 27 -4 45 -15 45 c 0
 -32 45 -39 28 -39 0 c 0
 -39 -22 0 -53 60 -53 c 0xbb80
 115 -53 184.956235645 -31.8894599498 216 12 c 0
 245 53 265.092192321 119.304338479 301 240 c 2
 308.75 266.049804688 l 1
 469.150390625 265.049804688 l 2
 481 265 497.650390625 265.049804688 514.75 275.5 c 1
 493.849609375 196.650390625 484.349609375 149.150390625 482.450195312 137.75 c 0
 471.049804688 76.9501953125 471.349609375 54.25 471.349609375 46.650390625 c 0
 471.349609375 -19.9501953125 532.497070312 -47 571.5 -47.75 c 0
 728.25 -47.75 808.400390625 74.25 808.400390625 95.150390625 c 0
 808.400390625 104.900390625 805.549804688 113.75 784.849609375 113.75 c 0
 775.349609375 113.75 754.5 100.400390625 737.650390625 69.0498046875 c 0
 717.938414816 32.3734653236 678.950195312 5.4501953125 636.099609375 5.4501953125 c 4
EndSplineSet
EndChar

StartChar: multiply
Encoding: 215 215 97
Width: 717
Flags: W
HStem: -11 27<408.394 441.894 408.394 451.394> -4 21G<44.8936 63.3936> 414 27<399.894 441.894> 678 29<371.394 422.394>
VStem: 329.394 62 455.394 27 463.394 58
LayerCount: 2
Fore
SplineSet
210.393554688 277 m 2x7c
 208.393554688 271 209.393554688 271 213.393554688 276 c 0
 289.393554688 382 368.393554688 441 431.393554688 441 c 0
 474.393554688 441 521.393554688 416 521.393554688 377 c 0
 521.393554688 346 507.393554688 308 486.393554688 265 c 2
 411.393554688 109 l 2
 403.393554688 91 391.393554688 66 391.393554688 44 c 0
 391.393554688 28 398.393554688 16 418.393554688 16 c 0
 465.393554688 16 535.393554688 62 616.393554688 170 c 0
 623.393554688 180 638.393554688 185 650.393554688 185 c 0
 654.393554688 185 656.393554688 181 653.393554688 177 c 0
 566.393554688 53 484.393554688 -11 418.393554688 -11 c 0
 377.393554688 -11 329.393554688 12 329.393554688 60 c 0
 329.393554688 94 346.393554688 148 367.393554688 188 c 2
 450.393554688 346 l 2
 458.393554688 361 463.393554688 375 463.393554688 387 c 0xba
 463.393554688 401 451.393554688 414 432.393554688 414 c 0
 344.393554688 414 209.393554688 269 127.393554688 55 c 1
 120.393554688 38 l 2
 110.393554688 11 77.3935546875 -4 49.3935546875 -4 c 0
 40.3935546875 -4 35.3935546875 7 39.3935546875 18 c 0
 94.3935546875 158 153.393554688 314 208.393554688 454 c 0
 210.393554688 460 209.393554688 464 202.393554688 465 c 0
 159.393554688 473 122.393554688 486 79.3935546875 529 c 0
 68.3935546875 540 94.3935546875 547 102.393554688 540 c 0
 137.393554688 509 175.393554688 495 213.393554688 490 c 0
 220.393554688 489 224.393554688 492 227.393554688 498 c 0
 292.393554688 652 333.393554688 707 408.393554688 707 c 0
 452.393554688 707 482.393554688 675 482.393554688 637 c 0
 482.393554688 522 357.393554688 467 285.393554688 461 c 0
 278.393554688 460 274.393554688 458 272.393554688 452 c 2
 210.393554688 277 l 2x7c
290.393554688 499 m 0
 284.393554688 483 318.393554688 492 328.393554688 495 c 0
 388.393554688 512 455.393554688 561 455.393554688 636 c 0x3c
 455.393554688 666 434.393554688 678 410.393554688 678 c 0
 332.393554688 678 326.393554688 598 290.393554688 499 c 0
EndSplineSet
EndChar

StartChar: uni008B
Encoding: 139 139 98
Width: 612
Flags: W
HStem: -47 38<6.43893 199.75> 210 69<1.42491 125.5> 660 54<225.404 337.622>
VStem: -99 46<39.3398 163.134> 136 55<527.787 627.667>
LayerCount: 2
Fore
SplineSet
100 -9 m 3
 265.118164062 -9 323.4453125 99.46484375 376.305664062 278 c 0
 407.69921875 384.030273438 432.087150902 496.234160818 478 584 c 1
 368 589 348 660 265 660 c 0
 214 660 191 636 191 601 c 0
 191 588 194 577 197 569 c 0
 201 557 205 549 205 543 c 0
 205 522 187 511 165 511 c 0
 146 511 136 534 136 554 c 0
 136 629 208 714 307 714 c 0
 406 714 465 660 499 633 c 5
 536 680 579 704 614 705 c 0
 639 706 657 692 657 665 c 0
 657 625 608 585 528 575 c 1
 492.108719683 457.120679733 477.622070312 357.024414062 450.971679688 258 c 0
 396.685546875 56.291015625 305.467773438 -47 59 -47 c 0
 -64.9951171875 -45.8740234375 -99 27 -99 105 c 0
 -98 190 -28 279 100 279 c 0
 151 279 176 251 176 223 c 0
 176 198 161 171 129 171 c 0
 104 171 96 181 87 191 c 0
 79 200 72 210 54 210 c 0
 -10 210 -51 155 -53 99 c 0
 -54 41 -4 -9 100 -9 c 3
EndSplineSet
EndChar

StartChar: Agrave
Encoding: 192 192 99
Width: 742
VWidth: 950
Flags: W
HStem: -20.9004 43.9004<476.049 599.102> 611 58.75<166.138 242.025 581.836 683>
VStem: 232.75 59.8496<316.587 441.853> 622 69<59.8436 142>
LayerCount: 2
Fore
SplineSet
230.299804688 669.75 m 0
 253.75 669.75 270.75 656.950195312 270.75 624.5 c 0
 270.75 618.799804688 266.950195312 543.400390625 239.400390625 428.450195312 c 0
 189.049804688 217.549804688 167 173 106.400390625 15.2001953125 c 24
 99 -4 80.25 -20.900390625 67.900390625 -20.900390625 c 4
 50.6875 -20.900390625 28.2822588096 -14.2671339373 39.900390625 14.25 c 0
 46.340507909 30.057505895 253.822265625 611 186 611 c 0
 166 611 140 599 104 575 c 0
 97 570 89 569 89 579 c 0
 91 603 179.989175836 669.75 230.299804688 669.75 c 0
586.650390625 605 m 0
 541.049804688 605 399.950195312 532.950195312 327.75 464.549804688 c 0
 295.450195312 433.200195312 292.599609375 420.849609375 292.599609375 406.599609375 c 0
 292.599609375 362.900390625 332.5 252.700195312 390.450195312 156.75 c 0
 410.400390625 123.5 461.187171355 23 532 23 c 3
 585 23 622 51 622 77 c 0
 622 97 606 108 593 117 c 0
 582 125 570 134 570 155 c 0
 570 182 594 197 621 197 c 0
 671 197 691 162 691 122 c 0
 691 63 620.400390625 -20.900390625 502.400390625 -20.900390625 c 3
 415.168843749 -20.900390625 358.873046875 59.2666015625 307.834960938 150 c 0
 258.09765625 238.420898438 232.75 336.876472092 232.75 380.950195312 c 0
 232.75 522.258229993 597.618285456 669.816580019 658 670 c 0
 708 670 728 642 728 613 c 0
 728 580 701 545 658 545 c 0
 630 545 621 555 616 574 c 0
 610 595 606 605 586.650390625 605 c 0
EndSplineSet
EndChar

StartChar: cent
Encoding: 162 162 100
Width: 827
VWidth: 950
Flags: W
HStem: -47 52.7002<608.616 731.181> 265.05 53.2002<148.87 186.8 529.15 573.949> 595.65 53.1992<187.825 338.2>
VStem: 26.9004 62.0996<442.207 520.183> 775 85<63.8611 167.177>
LayerCount: 2
Fore
SplineSet
649.799804688 5.7001953125 m 3
 565.498046875 5.7001953125 607.722185469 131.880264426 626.3671875 211 c 0
 662.501415964 364.334957892 734.417210875 559.38877909 760 627 c 0
 765.991673651 641.380509499 753.09375 658.849609375 740.25 658.849609375 c 0
 706.6953125 658.849609375 686.78124383 613.738835284 672.599609375 576.650390625 c 0
 637.450195312 481.650390625 608.950195312 395.200195312 587.099609375 318.25 c 1
 324.900390625 318.25 l 1
 338.200195312 365.75 349.599609375 414.200195312 359.099609375 462.650390625 c 0
 372.400390625 537.700195312 376.200195312 589 376.200195312 593.75 c 0
 376.200195312 615.599609375 365.75 648.849609375 310.650390625 648.849609375 c 4
 124.450195312 648.849609375 26.900390625 514.049804688 26.900390625 470.25 c 4
 26.900390625 449.549804688 44.8525390625 439.333007812 63 440.528320312 c 4
 75.9677734375 441.3828125 85.5220718772 457.834361639 89 473.09489466 c 4
 100.312732137 522.733160962 136.295925295 595.650390625 246.049804688 595.650390625 c 4
 329.093926331 595.650390625 299.941775145 510.514082012 252.700195312 318.25 c 1
 186.799804688 318.25 l 2
 163 318 145.349609375 298.950195312 145.349609375 284.700195312 c 0
 145.349609375 279 146.299804688 265.049804688 168.150390625 265.049804688 c 2
 237.5 265.049804688 l 1
 216.599609375 186.200195312 177.650390625 70.2998046875 146.299804688 -10.4501953125 c 0
 137.739257812 -31.853515625 163.174804688 -38.9501953125 168.200195312 -38.9501953125 c 0
 190.20703125 -38.9501953125 205 -24 220.400390625 5.7001953125 c 24
 270 100 289.75 191.900390625 308.75 265.049804688 c 1
 529.150390625 265.049804688 l 2
 541.5 265.049804688 557.650390625 265.049804688 574.75 275.5 c 1
 553.849609375 196.650390625 544.349609375 149.150390625 542.450195312 137.75 c 0
 531.049804688 76.9501953125 531.349609375 54.25 531.349609375 46.650390625 c 0
 531.349609375 -19.9501953125 591.497070312 -47 635 -47 c 0
 743 -47 862 26 860 150 c 0
 860 198 841 222 803 222 c 3
 780.3359375 222 753 198.012695312 753 169 c 3
 753 129.40234375 775 136 775 99 c 3
 775 33.9951171875 707.40234375 5.7001953125 649.799804688 5.7001953125 c 3
EndSplineSet
EndChar

StartChar: uni008A
Encoding: 138 138 101
Width: 562
Flags: W
HStem: 0 53.2002<18.8898 173.748 198.05 418.419> 375 70<115.297 186.611> 595.65 53.3496<185.814 388.1 415.059 601.964> 606 42.8496<433.074 597.899>
VStem: 53 50<457.052 552.895> 463.15 82.6494<108.433 188.475>
LayerCount: 2
Fore
SplineSet
103 513 m 3xec
 103 467 125.516601562 445 163 445 c 3
 181.248046875 445 191 429 191 414 c 3
 191 396 177 375 141 375 c 3
 87 375 53 427 53 479 c 3
 53 609 200.105006335 649 351 649 c 0xec
 577.549804688 648.849609375 l 2
 618.384765625 649.135742188 610.899414062 621.329101562 591.1328125 606 c 0xdc
 577.606445312 595.510742188 558.330078125 595.650390625 544.849609375 595.650390625 c 2
 431.299804688 595.650390625 l 1
 378.5 547.400390625 356.880165725 379.342697922 340.099609375 294.849609375 c 0
 310.026490633 143.426102805 278.349609375 105.900390625 198.049804688 53.2001953125 c 1
 376.150390625 53.2001953125 l 2
 424.599609375 53.2001953125 457.557617188 96.82421875 463.150390625 116.950195312 c 0
 469.764648438 140.75390625 458.25 193.5 505.349609375 193.5 c 0
 549.150390625 193.5 545.799804688 163.5 545.799804688 156.849609375 c 0
 545.799804688 121.700195312 461.25 0 317.25 0 c 2
 22.849609375 0 l 2
 -17.4609375 0 8 53.2001953125 36.5 53.2001953125 c 2
 130.150390625 53.2001953125 l 2
 155.799804688 53.2001953125 156.75 54.150390625 165.299804688 62.7001953125 c 0
 209.950195312 116.849609375 262.098004278 258.396470627 273.650390625 333.549804688 c 0
 293.77347198 464.459264428 324.450195312 536.75 388.099609375 595.650390625 c 1
 338.958007812 595.063476562 103 610.37109375 103 513 c 3xec
EndSplineSet
EndChar

StartChar: uni0084
Encoding: 132 132 102
Width: 542
Flags: W
HStem: -23.75 53.2002<183.471 305.013> 631.55 38.2002<314.609 457.457>
VStem: 3.2998 92.6504<126.509 337.02> 226 78<350.82 445.855> 497 72.6504<453.593 596.465>
LayerCount: 2
Fore
SplineSet
569.650390625 558 m 0
 569.650390625 631.700195312 473.049804688 669.75 420.799804688 669.75 c 0
 306.799804688 669.75 211.849609375 608 139.650390625 525.349609375 c 0
 47.5 421.799804688 3.2998046875 314.049804688 3.2998046875 226.650390625 c 0
 3.2998046875 82.25 92.150390625 -23.75 199.5 -23.75 c 4
 356.25 -23.75 476.400390625 118.25 476.400390625 139.150390625 c 4
 476.400390625 148.900390625 473.549804688 157.75 452.849609375 157.75 c 4
 443.349609375 157.75 427.5 144.400390625 405.650390625 113.049804688 c 4
 381.900390625 78.849609375 342.950195312 29.4501953125 264.099609375 29.4501953125 c 4
 175.75 29.4501953125 95.9501953125 95 95.9501953125 238.450195312 c 0
 95.9501953125 303.049804688 116.849609375 428.450195312 200.450195312 532.950195312 c 0
 243.200195312 586.150390625 328.299804688 631.549804688 405.25 631.549804688 c 0
 450.849609375 631.549804688 497 589.450195312 497 546.200195312 c 0
 497 497.649414062 485.772455453 416.43219596 386 359 c 0
 348.361328125 337.333984375 304 350 304 374 c 0
 304 402.259765625 327 407.654296875 327 433 c 0
 327 466 312 484 279 484 c 0
 246 484 226 443 226 392 c 0
 226 299 340.6328125 282.424804688 413 320 c 0
 517 374 569.650390625 452.05078125 569.650390625 558 c 0
EndSplineSet
EndChar

StartChar: uni009D
Encoding: 157 157 103
Width: 639
VWidth: 950
Flags: W
HStem: -20.9004 53.2002<256.047 406.883> 337 70<-42.7658 26.5416> 649.75 20G<255.075 264.1> 649.75 20G<255.075 264.1>
VStem: -107 50<421.73 520.939> 524.25 85.6504<140.913 286.523 481.68 601.269>
LayerCount: 2
Fore
SplineSet
137.748046875 60.9892578125 m 4xcc
 142.924804688 80.3076171875 170.112304688 113.09375 197.158203125 105.84765625 c 4
 209.71484375 102.483398438 225.08203125 78.6953125 249.729492188 58.6328125 c 4
 266.135963526 44.0830676882 303.862755075 32.2998046875 336.299804688 32.2998046875 c 7
 431.977415215 32.2998046875 524.25 88.150390625 524.25 220.200195312 c 0
 524.25 311.400390625 446.5 334.400390625 348.650390625 334.400390625 c 0
 327.75 334.400390625 307.799804688 330.599609375 301.150390625 330.599609375 c 0
 295.450195312 330.599609375 290.700195312 337.549804688 290.700195312 343.25 c 0
 290.700195312 349.900390625 304 365.75 361 384.75 c 0
 487.349609375 427.5 519.400390625 477.950195312 519.400390625 553.950195312 c 0
 519.400390625 652.26171875 371.018798743 649.111008638 281 643.743164062 c 0
 160.575195312 636.559570312 -57 582.342776494 -57 475 c 0
 -57 429 -34 414 3 407 c 0
 21 404 31 391 31 376 c 0
 31 358 17 337 -19 337 c 0
 -73 337 -107 389 -107 441 c 0
 -107 571 41.798828125 662.439453125 281 682 c 0
 360.423828125 688.495117188 393.458984375 690.966796875 477.200195312 677.700195312 c 0
 544.757065102 666.997578712 615.049804688 619.700195312 615.049804688 561.75 c 0
 615.049804688 462.950195312 511.099609375 411.349609375 455.049804688 384.75 c 1
 536.75 373.349609375 609.900390625 319.200195312 609.900390625 228 c 0
 609.900390625 75.0498046875 435 -20.900390625 270.75 -20.900390625 c 4
 192.75 -20.900390625 123.867001636 9.18267357918 137.748046875 60.9892578125 c 4xcc
202.349609375 646 m 0
 221.349609375 655.5 249.849609375 669.75 260.299804688 669.75 c 0xec
 267.900390625 669.75 270.75 667.849609375 270.75 661.200195312 c 2
 248.900390625 514.900390625 l 1
 242.936141609 474.947381202 233.965820312 416.104492188 219.967773438 350.827148438 c 0
 208.543945312 297.548828125 195.037427305 249.025381933 185.25 211.849609375 c 0
 161.5 121.599609375 143 66.5 124 28.5 c 0
 105.950195312 -5.7001953125 77.349609375 -20.900390625 66.900390625 -20.900390625 c 0
 45.8803280339 -20.900390625 31.5909475185 -9.82225574833 41.7998046875 12.349609375 c 0
 83.9183889461 103.823860989 107.349609375 181.450195312 134.900390625 308.75 c 0
 152 388.549804688 170.049804688 487.349609375 186.200195312 604.200195312 c 1
 202.349609375 646 l 0
EndSplineSet
EndChar

StartChar: uni0086
Encoding: 134 134 104
Width: 490
Flags: W
HStem: -20.9004 53.2002<172.686 307.575> 330.6 53.2002<280.541 400.931> 632 29<321.233 430.187>
VStem: 35.5498 99.6504<67.0595 198.153> 141.7 84.6494<427.268 548.146>
LayerCount: 2
Fore
SplineSet
397.795898438 632 m 4
 258.700195312 635.549804688 226.349609375 504.900390625 226.349609375 483.049804688 c 0
 226.349609375 432.700195312 268.015625 383.799804688 388.799804688 383.799804688 c 0
 402.450195312 383.799804688 402.099609375 363.849609375 402.099609375 358.150390625 c 0
 402.099609375 339.599609375 368.849609375 332.5 321.349609375 330.599609375 c 0
 164.599609375 323.950195312 135.200195312 175.25 135.200195312 128.700195312 c 0
 135.200195312 55.5498046875 193.099609375 32.2998046875 262.450195312 32.2998046875 c 0
 349.849609375 32.2998046875 389.75 86.4501953125 408.75 113.049804688 c 0
 433.450195312 146.299804688 453.349609375 162.75 461.900390625 166.75 c 0
 476.12109375 173.40234375 490.450195312 163.900390625 490.450195312 149.150390625 c 0
 490.450195312 120.150390625 359.349609375 -20.900390625 197.849609375 -20.900390625 c 0
 105.700195312 -20.900390625 35.5498046875 51.75 35.5498046875 124.900390625 c 0
 35.5498046875 195.200195312 99.0498046875 279.299804688 235.849609375 344.849609375 c 1
 190.25 360.049804688 141.700195312 423.299804688 141.700195312 481.25 c 0
 141.700195312 595.25 288.049804688 661.75 420.91015625 661 c 4
 488.91015625 661 513.327148438 618 506.803710938 581 c 4
 501.336914062 550 480.576171875 523 452.576171875 523 c 4
 442.576171875 523 441.458007812 528 443.044921875 537 c 4
 444.103515625 543 446.513671875 551 447.924804688 559 c 4
 453.625 597 434.795898438 632 397.795898438 632 c 4
EndSplineSet
EndChar

StartChar: uni0087
Encoding: 135 135 105
Width: 736
Flags: W
HStem: -30.4004 142.551<46.7029 107.311> 287.85 53.2002<406.6 642.961> 390 38<167.226 223.779> 555 55<601.173 767.783> 621 41<209.299 413.769> 669 20G<800.5 814>
VStem: 16.1504 106.85<36.6062 98.046> 92 56<442.591 569.253> 760 70<610.982 681.772>
LayerCount: 2
Fore
SplineSet
415 613 m 1xfe80
 379 618 344 621 312 621 c 0
 190 621 148 564 148 506 c 0
 148 464 171 428 200 428 c 0
 206 428 212 435 219 442 c 0
 226 449 234 456 246 456 c 0
 265 456 274 442 274 427 c 0
 274 409 248 390 212 390 c 0
 138 390 92 445 92 506 c 0xfd80
 92 580 160 662 327 662 c 0
 472 662 682 610 776 610 c 1
 769 631 760 649 760 662 c 0
 760 675 794 689 807 689 c 0
 821 689 830 674 830 655 c 0
 830 626 779 555 690 555 c 0
 660.848365175 555 516.5234375 605.698242188 480.700195312 605.650390625 c 1
 471.200195312 560.049804688 426.549804688 390.450195312 406.599609375 341.049804688 c 1
 643.150390625 341.049804688 l 2
 672.380430253 341.049804688 656.399265764 287.832095133 624.75 287.849609375 c 2
 385.700195312 287.849609375 l 1
 368.599609375 234.650390625 288.700195312 69.400390625 271.700195312 46.5498046875 c 4
 237.133242903 0.086562533172 184.299804688 -30.400390625 127.299804688 -30.400390625 c 4
 74.6663930094 -30.400390625 16.150390625 -10.9794921875 16.150390625 53.599609375 c 4
 16.150390625 80.7001953125 39.349609375 112.150390625 71.2001953125 112.150390625 c 4
 99.9483857053 112.150390625 113.595703125 83.259765625 123 59.7529296875 c 4
 131.992356038 37.2757747347 168.520724976 11.7853447825 195.700195312 32.7998046875 c 4
 227 57 260.299804688 147.25 287.849609375 211.849609375 c 0
 346.812750016 350.10674689 364.703125 492.767578125 415 613 c 1xfe80
EndSplineSet
EndChar

StartChar: uni0088
Encoding: 136 136 106
Width: 610
Flags: W
HStem: -113.05 34.9668<153.454 304.04> 74.5996 43.2002<202.151 349.659> 635.55 34.2002<322.775 514.508>
VStem: 32.75 92.6504<207.113 413.385> 465.749 108.592<461.337 518.217> 470.25 81.7002<249.099 336.427>
LayerCount: 2
Fore
SplineSet
518.336914062 437.327148438 m 0xf8
 486.625976562 433.357421875 461.782226562 451.102539062 465.749023438 487.643554688 c 0xf8
 470.25390625 529.139648438 511.864611221 520.785359438 529.184570312 546.916992188 c 4
 561.965820312 596.375976562 518.739257812 635.549804688 444.25 635.549804688 c 0
 355.900390625 635.549804688 269.849609375 615.200195312 209 545.799804688 c 0
 142.679951237 470.160251079 125.400390625 362.900390625 125.400390625 303.049804688 c 0
 125.400390625 199.5 180.5 117.799804688 279.299804688 117.799804688 c 0
 341.049804688 117.799804688 375.25 151.049804688 396.150390625 171 c 0
 442.700195312 218.5 460.75 274.549804688 470.25 306.849609375 c 0
 475.950195312 323.950195312 502.5 351.5 522.450195312 351.5 c 0
 537.200195312 351.5 551.950195312 341.650390625 551.950195312 303.900390625 c 0xf4
 551.950195312 286.299804688 524.400390625 236.549804688 516.799804688 208.049804688 c 0
 503.5 167.200195312 492.099609375 130.150390625 471.200195312 82.650390625 c 0
 403.75 -67.4501953125 298.799804688 -113.049804688 220.900390625 -113.049804688 c 0
 128.75 -113.049804688 63.2001953125 -104.099609375 43.2001953125 -66.5 c 0
 21.52734375 -25.7548828125 52.4482421875 17.666015625 76.349609375 19 c 0
 147.998046875 22.998046875 120.150390625 -39 157.75 -64.7001953125 c 0
 195.202148438 -90.298828125 219.168945312 -79.140625 250 -78.0830078125 c 0
 296.176757812 -76.498046875 335.319004493 -48.9770768123 368.599609375 7.599609375 c 0
 385.700195312 36.099609375 410.400390625 91.2001953125 428.450195312 152.950195312 c 1
 389.5 120.650390625 344 74.599609375 254.700195312 74.599609375 c 0
 137.849609375 74.599609375 32.75 184.849609375 32.75 291.25 c 0
 32.75 400.996517362 82.5615234375 510.060546875 170 579.290039062 c 0
 248.70703125 641.607421875 349.798784219 669.75 459.799804688 669.75 c 0
 583.450195312 669.75 600.766601562 548.756835938 574.340820312 499.829101562 c 4
 554.581671868 463.244738836 546.234375 440.819335938 518.336914062 437.327148438 c 0xf8
EndSplineSet
EndChar

StartChar: uni0090
Encoding: 144 144 107
Width: 816
Flags: W
HStem: -20.9004 43.2002<240.166 430.676> 616.55 53.2002<474.883 603.82> 644.15 25.5996<342.577 381.766>
VStem: 55.0996 92.6504<147.09 382.876> 280.25 85.5<393.594 476.758> 663.6 91.6504<307.023 544.248>
LayerCount: 2
Fore
SplineSet
755.25 434.099609375 m 0xdc
 755.25 147.200195312 498.799804688 -20.900390625 308.799804688 -20.900390625 c 0
 155.849609375 -20.900390625 55.099609375 115.950195312 55.099609375 256.549804688 c 0
 55.099609375 541.549804688 342 669.75 374.299804688 669.75 c 0
 379.049804688 669.75 383.799804688 668.799804688 383.799804688 663.099609375 c 0
 383.799804688 653.75 375.099609375 652.599609375 359.150390625 644.150390625 c 0xbc
 257.375493457 590.23437236 147.75 420.799804688 147.75 258.349609375 c 0
 147.75 117.75 199.450195312 22.2998046875 333.400390625 22.2998046875 c 0
 514.849609375 22.2998046875 663.599609375 241.349609375 663.599609375 432.299804688 c 0
 663.599609375 558.650390625 612.75 616.549804688 536.799804688 616.549804688 c 0
 498.799804688 616.549804688 460.849609375 602.200195312 432.099609375 579.650390625 c 0
 415.705524093 566.791836846 390.49834542 544.921385222 365.75 479.299804688 c 0
 349.099609375 435.150390625 365.299804688 404.599609375 336.799804688 387.5 c 0
 328.40234375 382.461914062 280.25 374.48770893 280.25 420.849609375 c 0
 280.25 449.5 320.150390625 522.5 391.400390625 586.150390625 c 0
 432.25 622.25 482.549804688 669.75 561.400390625 669.75 c 0
 675.400390625 669.75 755.25 563.299804688 755.25 434.099609375 c 0xdc
EndSplineSet
EndChar

StartChar: uni0091
Encoding: 145 145 108
Width: 742
VWidth: 950
Flags: HW
HStem: -55 35.7949<22.9223 92.707> 194.75 53.1565<311.295 439.456> 334 70<65.8438 130.542> 602.65 49.3496<163.77 268.85 344.788 533.849>
VStem: -79 82<-3.3665 69.5066> 0 50<419.767 531.514> 268.85 78.8506<486.43 602.65> 621.65 94.6494<397.617 533.469>
LayerCount: 2
Fore
SplineSet
35 -55 m 3xf7
 -31 -55 -79 10 -79 32 c 0
 -79 60 -62 77 -45 77 c 0
 -24 77 -0.009765625 61.724609375 3 40 c 0xfb
 7.828125 5.154296875 35.3251953125 -19.205078125 59.3544921875 -19.205078125 c 0
 108.20703125 -19.205078125 156.952148438 90.7412109375 185.767578125 210 c 0
 225.7890625 375.638671875 266.657295871 578.534014094 268.849609375 602.650390625 c 1
 268.249676345 602.650857922 l 0
 177.443415528 602.650857922 50 570.570619862 50 479 c 0
 50 433 70 410 107 404 c 0
 125 401 135 388 135 373 c 0
 135 355 121 334 85 334 c 0
 31 334 0 393 0 445 c 0
 0 575 118 652 338 652 c 0
 471.200195312 648.849609375 l 2
 579 646 716.299804688 588.950195312 716.299804688 477.799804688 c 0
 716.299804688 321.049804688 487.349609375 194.75 309.700195312 194.75 c 0
 298.299804688 194.75 290.650390625 210.75 290.650390625 217.400390625 c 0
 290.650390625 225.950195312 296.700195312 240.150390625 310.950195312 248.700195312 c 0
 318.317868738 252.826031841 325.382364002 254.228433805 332.246711854 254.228433805 c 0
 346.821030321 254.228433805 360.493096639 247.906492563 374.249039884 247.906492563 c 0
 374.899202948 247.906492563 375.549553384 247.920615151 376.200195312 247.950195312 c 0
 564.299804688 253.650390625 621.650390625 395.799804688 621.650390625 468 c 0
 621.650390625 570.599609375 506.349609375 602.650390625 399.950195312 602.650390625 c 2
 347.700195312 602.650390625 l 1
 341.049804688 545.650390625 313.650390625 430.349609375 276.900390625 274.549804688 c 0
 240.077732505 118.441969498 200.198432356 36.7294246652 199.049804688 34.2998046875 c 0
 164.65234375 -38.458984375 93.365234375 -55 35 -55 c 3xf7
EndSplineSet
EndChar

StartChar: uni0092
Encoding: 146 146 109
Width: 766
Flags: W
HStem: -16.6162 67.0166<103.185 236.448> 0.864258 24.3662<320.83 344.284> 97.9911 39.1085<253.972 374.812> 616.55 53.2002<388.26 570.714>
VStem: 109.25 87.6504<197.517 402.391> 420 78<212.85 325.5> 660.7 102.649<326.536 520.12> 720 69<-50.7747 45>
LayerCount: 2
Fore
SplineSet
789 25 m 0xbd
 789 65 769 100 719 100 c 0
 692 100 668 85 668 58 c 0
 668 37 680 28 691 20 c 0
 704 11 720 -10 720 -30 c 0xbd
 720 -99.208984375 565.366210938 -54.328125 465 -32 c 0
 417.248713173 -21.3769358112 376.12890625 -16.9296875 320.830078125 0.8642578125 c 1
 482.299804688 2.849609375 763.349609375 220.849609375 763.349609375 424.150390625 c 0
 763.349609375 573.349609375 648.299804688 669.75 506.75 669.75 c 0
 310.099609375 669.75 109.25 494.049804688 109.25 294.549804688 c 0
 109.25 198.174946658 167.464180106 97.9910794334 279.171225104 97.9910794334 c 0
 279.779232271 97.9910794334 280.388824157 97.9940473662 281 98 c 0
 423 98 498 207 498 300 c 0
 498 351 475 392 432 392 c 0
 399 392 380 363 380 330 c 0
 380 291.65411832 420 280.260253084 420 242 c 0
 420 178 381.799804688 137.099609375 322.799804688 137.099609375 c 0
 224.700195312 138.19921875 196.900390625 205.150390625 196.900390625 296.349609375 c 0
 196.900390625 411.299804688 296.400390625 616.549804688 472.150390625 616.549804688 c 0
 595.650390625 616.549804688 660.700195312 539.650390625 660.700195312 412.349609375 c 0
 660.700195312 343 649.799804688 233.75 541.5 134 c 0
 468.349609375 68.4501953125 371 28 250.626953125 25.23046875 c 1x7e
 192.69140625 42.546875 161.461914062 50.400390625 133.061523438 50.400390625 c 0
 105.434570312 50.400390625 101.30078125 36.712890625 101.30078125 15.015625 c 0
 101.30078125 -24.7421875 175.483398438 -20.8330078125 236.448242188 -16.6162109375 c 1
 327.72265625 -55.0869140625 364.394070788 -89.9895954589 485.990234375 -114.352539062 c 0
 628.438851277 -142.893469282 789 -113.284179688 789 25 c 0xbd
EndSplineSet
EndChar

StartChar: onequarter
Encoding: 188 188 110
Width: 490
Flags: W
HStem: -113.05 34.9668<153.454 304.04> 74.5996 43.2002<202.151 349.659> 637 32<317.009 464.424>
VStem: 32.75 92.6504<207.113 413.385> 470.25 81.7002<249.099 336.427>
LayerCount: 2
Fore
SplineSet
420.795898438 637 m 4
 335.887695312 637 269.849609375 615.200195312 209 545.799804688 c 0
 142.679951237 470.160251079 125.400390625 362.900390625 125.400390625 303.049804688 c 0
 125.400390625 199.5 180.5 117.799804688 279.299804688 117.799804688 c 0
 341.049804688 117.799804688 375.25 151.049804688 396.150390625 171 c 0
 442.700195312 218.5 460.75 274.549804688 470.25 306.849609375 c 0
 475.950195312 323.950195312 502.5 351.5 522.450195312 351.5 c 0
 537.200195312 351.5 551.950195312 341.650390625 551.950195312 303.900390625 c 0
 551.950195312 286.299804688 524.400390625 236.549804688 516.799804688 208.049804688 c 0
 503.5 167.200195312 492.099609375 130.150390625 471.200195312 82.650390625 c 0
 403.75 -67.4501953125 298.799804688 -113.049804688 220.900390625 -113.049804688 c 0
 128.75 -113.049804688 63.2001953125 -104.099609375 43.2001953125 -66.5 c 0
 21.52734375 -25.7548828125 52.4482421875 17.666015625 76.349609375 19 c 0
 147.998046875 22.998046875 120.150390625 -39 157.75 -64.7001953125 c 0
 195.202148438 -90.298828125 219.168945312 -79.140625 250 -78.0830078125 c 0
 296.176757812 -76.498046875 335.319004493 -48.9770768123 368.599609375 7.599609375 c 0
 385.700195312 36.099609375 410.400390625 91.2001953125 428.450195312 152.950195312 c 1
 389.5 120.650390625 344 74.599609375 254.700195312 74.599609375 c 0
 137.849609375 74.599609375 32.75 184.849609375 32.75 291.25 c 0
 32.75 400.996517362 82.5615234375 510.060546875 170 579.290039062 c 0
 248.70703125 641.607421875 329.795898438 669 439.91015625 669 c 4
 517.91015625 669 555.327148438 603 548.803710938 566 c 4
 543.336914062 535 522.576171875 508 494.576171875 508 c 4
 484.576171875 508 483.458007812 513 485.044921875 522 c 4
 486.103515625 528 488.513671875 536 489.924804688 544 c 4
 495.625 582 477.795898438 637 420.795898438 637 c 4
EndSplineSet
EndChar

StartChar: uni0093
Encoding: 147 147 111
Width: 742
VWidth: 950
Flags: W
HStem: -43 38<48.757 134.929> -19 30<629.818 710.333> 382 70<77.2342 146.542> 603.65 44.3496<164.908 266 346.628 523.086>
VStem: -41 72<5.93018 76.9743> 13 50<466.518 554.257> 602.7 92.6494<424.672 546.104> 754 69<65.8478 150>
LayerCount: 2
Fore
SplineSet
228.849609375 55.2001953125 m 4xbb
 297.44921875 216 324.900390625 324.349609375 347.700195312 603.650390625 c 1
 399 603.650390625 l 2
 534.700195312 603.650390625 602.700195312 547.200195312 602.700195312 498.299804688 c 0
 602.700195312 450.349609375 589.057283857 314.563888309 427.5 312.549804688 c 0
 400.339750424 312.211206437 371.772460938 309.303710938 358 300.490234375 c 0
 337.999023438 287.689453125 340.326877672 266.867777396 349.599609375 260.299804688 c 0
 379.423862678 239.174974593 402.799804688 251.75 467.400390625 110.200195312 c 0
 512.049804688 14.25 572 -19 643 -19 c 0
 756 -19 823 71 823 130 c 0
 823 170 803 205 753 205 c 0
 726 205 702 190 702 163 c 0
 702 142 714 133 725 125 c 0
 738 116 754 105 754 85 c 0
 754 59 717 11 664 11 c 0
 621.650390625 10.2998046875 585.200195312 78.849609375 550.049804688 156.75 c 0
 528.200195312 203.299804688 505.400390625 251.75 480.700195312 282.150390625 c 1
 606.099609375 323.950195312 695.349609375 402.75 695.349609375 510.099609375 c 0
 695.349609375 628.849609375 493.124023438 648 364 648 c 27
 195.557617188 648 13 616 13 486 c 1
 13 434 47 382 101 382 c 1
 137 382 151 403 151 421 c 1
 151 436 141 449 123 452 c 1
 86 458 63 474 63 520 c 1x77
 63 593 209 604 266 606 c 1
 266 370 211.5 183.450195312 151.900390625 39.25 c 4
 137.2109375 7.29296875 120.398382889 -4.53807224887 79 -5 c 4
 47.0028028352 -5.35702827737 39.20703125 29.76171875 31 48 c 4
 22 68 4 85 -7 85 c 4
 -24 85 -41 68 -41 40 c 4
 -41 18 8 -43 68 -43 c 7
 147.84375 -43 200.264648438 -11.8037109375 228.849609375 55.2001953125 c 4xbb
EndSplineSet
EndChar

StartChar: logicalnot
Encoding: 172 172 112
Width: 766
Flags: W
HStem: -16.6162 107.017<117.707 193.3> 0.864258 24.3662<320.83 360.673> 97.9911 39.1085<253.972 374.812> 616.55 53.2002<388.26 570.714>
VStem: 109.25 87.6504<197.517 402.391> 420 78<212.85 325.5> 660.7 102.649<326.536 520.12> 720 69<-40.9344 45>
LayerCount: 2
Fore
SplineSet
789 25 m 4xbd
 789 65 769 100 719 100 c 4
 692 100 668 85 668 58 c 4
 668 37 680 28 691 20 c 4
 704 11 720 -10 720 -30 c 4xbd
 720 -99.208984375 566.299296851 -56.2922487452 465 -35 c 4
 417.568359375 -25.0302734375 376.12890625 -16.9296875 320.830078125 0.8642578125 c 5
 482.299804688 2.849609375 763.349609375 220.849609375 763.349609375 424.150390625 c 0
 763.349609375 573.349609375 648.299804688 669.75 506.75 669.75 c 0
 310.099609375 669.75 109.25 494.049804688 109.25 294.549804688 c 0
 109.25 198.174946658 167.464180106 97.9910794334 279.171225104 97.9910794334 c 0
 279.779232271 97.9910794334 280.388824157 97.9940473662 281 98 c 0
 423 98 498 207 498 300 c 0
 498 351 475 392 432 392 c 0
 399 392 380 363 380 330 c 0
 380 291.65411832 420 280.260253084 420 242 c 0
 420 178 381.799804688 137.099609375 322.799804688 137.099609375 c 0
 224.700195312 138.19921875 196.900390625 205.150390625 196.900390625 296.349609375 c 0
 196.900390625 411.299804688 296.400390625 616.549804688 472.150390625 616.549804688 c 0
 595.650390625 616.549804688 660.700195312 539.650390625 660.700195312 412.349609375 c 0
 660.700195312 343 649.799804688 233.75 541.5 134 c 0
 468.349609375 68.4501953125 381 28 270.626953125 25.23046875 c 5x7e
 222.69140625 46.546875 171.461914062 90.400390625 143.061523438 90.400390625 c 0
 115.434570312 90.400390625 101.30078125 56.712890625 101.30078125 35.015625 c 0
 101.30078125 -14.7421875 195.483398438 -20.8330078125 256.448242188 -16.6162109375 c 5
 337.72265625 -75.0869140625 414.067382812 -106.524414062 485.990234375 -114.352539062 c 4
 589.2421875 -125.590820312 789 -113.284179688 789 25 c 4xbd
EndSplineSet
EndChar

StartChar: uni0094
Encoding: 148 148 113
Width: 573
Flags: W
HStem: -21 44<148.373 365.666> 213 76<132.712 215.469> 629.55 40.2002<362.045 501.964>
VStem: 31 39<74.4036 183.946> 176.35 89.6504<418.346 549.77> 467.95 101.649<117.45 253.448>
LayerCount: 2
Fore
SplineSet
259 23 m 0
 379.789322036 23 467.950195312 90.818359375 467.950195312 194.799804688 c 0
 467.950195312 278.400390625 403.799804688 289.25 333.5 319.650390625 c 0
 294.549804688 335.799804688 176.349609375 397.75 176.349609375 478.5 c 0
 176.349609375 587.75 319.150390625 669.75 446.450195312 669.75 c 0
 459.75 669.75 534 670 570.91015625 651 c 24
 612 630 623.262695312 579.444335938 610.803710938 544 c 0
 595.336914062 500 558.576171875 486 530.576171875 486 c 0
 520.576171875 486 519.458007812 491 521.044921875 500 c 0
 522.103515625 506 524.513671875 514 525.924804688 522 c 0
 534.500435525 579.168913335 510.845703125 629.549804688 444.849609375 629.549804688 c 0
 359.400390625 629.549804688 266 566.890625 266 487.299804688 c 0
 266 413.200195312 328.161132812 365.552734375 360.700195312 352.849609375 c 0
 435.75 323.549804688 569.599609375 287.799804688 569.599609375 196.599609375 c 0
 569.599609375 68.349609375 419.099609375 -21 254 -21 c 0
 167 -21 31 33 31 128 c 0
 31 206 127 288 202 289 c 0
 249 290 310 270 310 225 c 0
 310 205 291 167 263 167 c 0
 250 167 229 186 200 199 c 0
 184 207 166 213 145 213 c 0
 100 213 70 173 70 125 c 0
 70 52 157 23 259 23 c 0
EndSplineSet
EndChar

StartChar: uni0095
Encoding: 149 149 114
Width: 736
Flags: W
HStem: 394 38<137.287 193.779> 556 58<547.643 709.783> 624 40<179.396 404.236>
VStem: 63 55<446.704 573.357> 108.15 66.8496<20.6753 83.1154> 702 70<615.822 685.772>
LayerCount: 2
Fore
SplineSet
175 49.7529296875 m 0xec
 165.595703125 73.259765625 151.948242188 91.150390625 133.200195312 91.150390625 c 0
 121.349609375 91.150390625 108.150390625 70.7001953125 108.150390625 43.599609375 c 0xec
 108.150390625 9.0205078125 136.666015625 -30.400390625 179.299804688 -30.400390625 c 4
 246.299804688 -30.400390625 294.881667344 -5.77365877999 319.700195312 46.5498046875 c 0
 341.812510823 93.1679173452 373.352539062 183.737304688 402.494140625 290 c 0
 432.2578125 398.53515625 442.649414062 526.009765625 460 595 c 1
 517 579 584 556 632 556 c 0
 721 556 772 630 772 659 c 0
 772 678 763 693 749 693 c 0
 736 693 702 679 702 666 c 0
 702 653 711 635 718 614 c 1
 624 614 442 664 297 664 c 0
 130 664 63 581 63 507 c 0
 63 446 108 394 182 394 c 0
 218 394 244 413 244 431 c 0
 244 446 235 460 216 460 c 0
 204 460 196 453 189 446 c 0
 182 439 176 432 170 432 c 0
 141 432 118 468 118 510 c 0xf4
 118 568 160 624 282 624 c 0
 323 624 365 616 407 608 c 1
 384.552258453 536.036938405 351.396484375 435.515625 322.759765625 324 c 0
 301.770507812 242.266601562 296.912109375 142.62890625 271.877929688 56 c 0
 259.084960938 11.7294921875 199.443359375 -11.3486328125 175 49.7529296875 c 0xec
EndSplineSet
EndChar

StartChar: uni0096
Encoding: 150 150 115
Width: 774
VWidth: 950
Flags: W
HStem: -38 64.2998<419.68 509.002> -20.9004 47.2002<86.1121 174.739> 341 70<-127.766 -58.4584> 607 43<-13.8953 129.112>
VStem: -192 50<425.518 526.92> -31.2002 93.6504<50.2703 204.398>
LayerCount: 2
Fore
SplineSet
446.400390625 97.150390625 m 0xbc
 487 284 559.400390625 507.299804688 584.099609375 566.200195312 c 0
 597.400390625 598.5 609.57421875 636.552734375 608.799804688 642.200195312 c 0
 604.799804688 671.3515625 548.578125 656.686523438 539 634 c 0
 536.521484375 628.12890625 509.049804688 554.799804688 504.299804688 539.599609375 c 0
 441.599609375 361 242.450195312 26.2998046875 130.349609375 26.2998046875 c 0
 71.4501953125 26.2998046875 62.4501953125 96.4501953125 62.4501953125 137.75 c 0
 62.4501953125 222.358398438 222.299804688 489.234023139 222.299804688 603.25 c 0
 222.299804688 646.950195312 191.900390625 648.849609375 176 650 c 0
 -64 650 -192 575 -192 445 c 4
 -192 393 -158 341 -104 341 c 4
 -68 341 -54 362 -54 380 c 4
 -54 395 -64 408 -82 411 c 4
 -119 417 -142 433 -142 479 c 4
 -142 552 -30.9941028354 605.958345786 61 607 c 0
 120.050119752 607.668627707 136.867443634 583.11931303 139.650390625 561.450195312 c 0
 144.223346254 525.84336767 98.482421875 447.435546875 61.001953125 366 c 0
 14.9755859375 265.995117188 -31.2001953125 171.42578125 -31.2001953125 125.950195312 c 0
 -31.2001953125 35.150390625 28.5498046875 -20.900390625 99.7998046875 -20.900390625 c 0x7c
 230.230503057 -20.900390625 369.271513687 185.896875756 421.650390625 285.950195312 c 1
 422.599609375 285.950195312 l 1
 400.75 206.150390625 364.400390625 121.026367188 364.400390625 29.900390625 c 3
 364.400390625 -7.0048828125 387.497070312 -38 429 -38 c 0
 512 -38 557 19 609 82 c 0
 611 85 613 91 613 96 c 0
 613 101 609 105 605 105 c 0
 604 105 603 105 602 104 c 0
 592 94 515 25 483 25 c 3
 454.448242188 25 439.059570312 63.3642578125 446.400390625 97.150390625 c 0xbc
EndSplineSet
EndChar

StartChar: uni0097
Encoding: 151 151 116
Width: 827
VWidth: 950
Flags: W
HStem: 559.55 89.2998<504.808 573.052> 616.65 36.1992<46.7282 175.618>
VStem: -110.1 62.0996<446.207 531.412> 600.4 42.75<436.617 574.75>
LayerCount: 2
Fore
SplineSet
119.049804688 616.650390625 m 0x70
 323.584960938 615.98828125 220.649365609 176.536709086 184.299804688 -16.150390625 c 0
 181.413369127 -31.4512328563 197.650390625 -47.7001953125 218 -41.7001953125 c 0
 225.2893643 -39.5509557376 450.900390625 152.5 582.349609375 354.349609375 c 0
 612.765071984 401.054711962 643.150390625 479.75 643.150390625 537.700195312 c 0
 643.150390625 611.799804688 592.799804688 648.849609375 549.099609375 648.849609375 c 0
 520.599609375 648.849609375 495.299804688 629.049804688 495.299804688 596.75 c 0
 495.299804688 572.5 511.099609375 560.5 521.549804688 559.549804688 c 0xb0
 589 551 600.400390625 499.700195312 600.400390625 477.849609375 c 0
 600.400390625 417.049804688 476.950195312 249.099609375 271 81.7001953125 c 1
 294.594726562 218.140625 403.421875 652.849609375 153.650390625 652.849609375 c 0
 -32.5498046875 652.849609375 -110.099609375 518.049804688 -110.099609375 474.25 c 0
 -110.099609375 453.549804688 -92.1474609375 443.333007812 -74 444.528320312 c 0
 -61.0322265625 445.3828125 -48.4137098317 461.448245354 -48 477.094726562 c 0
 -46.6875 526.733398438 11 617 119.049804688 616.650390625 c 0x70
EndSplineSet
EndChar

StartChar: uni0098
Encoding: 152 152 117
Width: 827
VWidth: 950
Flags: W
HStem: 559.55 89.2998<858.568 913.527> 605.678 44.1719<52.3507 175.803>
VStem: -110.1 69.0996<445.577 520.797> 204.804 90.0248<281.756 575.004> 929 56.75<443.738 580.45>
LayerCount: 2
Fore
SplineSet
114.049804688 605.650390625 m 0x78
 115.18359375 605.668945312 116.30859375 605.677734375 117.424804688 605.677734375 c 0x78
 212.705078125 605.677734375 204.803710938 500.741210938 204.803710938 442.12890625 c 0
 204.803710938 285.889648438 122.123046875 59.154296875 110.099609375 -0.9501953125 c 0
 109.081054688 -4.3466796875 107.833007812 -10.521484375 107.833007812 -17.142578125 c 0
 107.833007812 -29.62890625 112.270507812 -43.7001953125 131.049804688 -43.7001953125 c 0
 148.650390625 -43.7001953125 201.400390625 8.5498046875 224.200195312 38 c 0
 402.799804688 259.349609375 480.700195312 404.700195312 558.599609375 547.200195312 c 1
 588.467277439 339.050220279 499.881835938 166.618164062 496.299804688 -18.900390625 c 0
 496.125 -27.95703125 501.200195312 -43.7001953125 514.049804688 -43.7001953125 c 0
 682.725984696 -43.7001953125 985.75 356.8046875 985.75 547.200195312 c 0
 985.75 613.700195312 937.549804688 648.849609375 898.599609375 648.849609375 c 0
 872.950195312 648.849609375 847.75 623.950195312 847.75 598.75 c 0
 847.75 574.5 862.5 560.5 872 559.549804688 c 0xb8
 923.299804688 551.950195312 929 508.25 929 487.349609375 c 0
 929 456.111328125 882.0546875 353.2421875 814.733398438 255 c 0
 743.602587642 151.198564398 650.737304688 49.3720703125 597.700195312 43.25 c 0
 595.8125 43.0322265625 591.952148438 49.578125 594.849609375 61.2998046875 c 0
 641 248 661.936523438 469.154296875 639.599609375 633.650390625 c 0
 637.34375 650.265625 617.900390625 653.849609375 598.400390625 653.849609375 c 0
 574.450195312 653.849609375 539.599609375 623.200195312 539.599609375 607.049804688 c 0
 539.599609375 603.25 543.400390625 592.799804688 543.400390625 589.950195312 c 0
 543.400390625 576.650390625 383.799804688 291.650390625 238.450195312 121.599609375 c 1
 257.482670396 194.865311036 294.828491718 354.797450026 294.828491718 479.60570733 c 0
 294.828491718 574.983773765 267.178688537 649.849609375 173.650390625 649.849609375 c 0
 -12.5498046875 649.849609375 -110.099609375 515.049804688 -110.099609375 471.25 c 0
 -110.099609375 451.636201315 -93.982421875 437.434570312 -76.853515625 437.434570312 c 0
 -75.904296875 437.434570312 -74.9524229151 441.465587403 -74 441.528320312 c 0
 -61.0322265625 442.3828125 -44.4775390625 458.833984375 -41 474.094726562 c 0
 -29.6875 523.733398438 4.3095703125 603.892578125 114.049804688 605.650390625 c 0x78
EndSplineSet
EndChar

StartChar: uni0099
Encoding: 153 153 118
Width: 874
Flags: W
HStem: 1 30<539.562 643.831> 372.85 70<73.3846 142.692> 590.85 49.1504<153.949 406.5> 632.85 20G<724.85 750.975>
VStem: 9.15039 50<457.368 552.207> 49.4004 82.6494<20.5488 109.521> 702 76<85.9888 156> 703 82.6504<539.675 627.489>
LayerCount: 2
Fore
SplineSet
573 1 m 3xd2
 500.893456108 1 427.5 56.0498046875 418.950195312 134.900390625 c 0
 415.150390625 171.950195312 404.700195312 267.900390625 400.900390625 297.349609375 c 1
 338.200195312 263.150390625 249.849609375 208.049804688 223.25 191.900390625 c 0
 132.049804688 132.049804688 132.049804688 118.75 132.049804688 95.9501953125 c 0
 132.049804688 77.8305099856 153.049804688 78.009765625 153.049804688 33.5498046875 c 0
 153.049804688 9.2998046875 123.5 -2 95.9501953125 -2 c 0
 72.2001953125 -2 49.400390625 15.2001953125 49.400390625 54.150390625 c 0xd6
 49.400390625 78.849609375 51.2998046875 110.200195312 161.5 186.200195312 c 0
 228 231.799804688 296.400390625 270.75 398.049804688 329.650390625 c 1
 380.950195312 486.400390625 l 2
 370.320863343 583.838159496 340.091796875 591.849609375 286.150390625 591.849609375 c 27
 185.8828125 591.849609375 89.150390625 523.849609375 89.150390625 450.849609375 c 0
 89.150390625 404.849609375 112.150390625 388.849609375 149.150390625 382.849609375 c 0
 167.150390625 379.849609375 177.150390625 366.849609375 177.150390625 351.849609375 c 0
 177.150390625 333.849609375 163.150390625 312.849609375 127.150390625 312.849609375 c 0
 73.150390625 312.849609375 39.150390625 364.849609375 39.150390625 416.849609375 c 0
 39.150390625 566.849609375 200.774414062 640 378 640 c 0xe8
 435 640 453.150390625 612.75 463.599609375 532 c 0
 470.25 475 474.049804688 435.099609375 479.75 378.099609375 c 1
 549.099609375 416.099609375 611.799804688 457.900390625 622.25 464.549804688 c 0
 703 517.75 703 531.049804688 703 552.900390625 c 0
 703 581.019737449 684 567.841796875 684 612.299804688 c 0
 684 636.549804688 710.599609375 652.849609375 739.099609375 652.849609375 c 0
 762.849609375 652.849609375 785.650390625 633.650390625 785.650390625 594.700195312 c 0xd9
 785.650390625 566.200195312 779 538.650390625 684 470.25 c 0
 623.200195312 426.549804688 532 374.299804688 483.549804688 345.799804688 c 1
 501.599609375 181.450195312 l 2
 513 73.150390625 529.091388121 31 579 31 c 3
 632 31 702 68 702 105 c 0
 702 127 685 129 672 137 c 0
 663 143 656 151 656 168 c 0
 656 193 679 212 702 212 c 0
 754 212 778 174 778 138 c 0
 778 79 676 1 573 1 c 3xd2
EndSplineSet
EndChar

StartChar: uni009A
Encoding: 154 154 119
Width: 766
Flags: W
HStem: -129 30<40.1271 165.56> -20 105<18.231 65.8688> 572.85 76<561.568 632.082> 613.65 34.1992<92.2395 199.075>
VStem: -51 69<-64.728 20> -5.09961 84.0996<438.017 555.315> 326.8 73.1504<83.0498 387.466> 656.45 38.9502<448.571 544.818>
LayerCount: 2
Fore
SplineSet
113 -129 m 0xdb
 236.551155692 -130.047685251 369.549804688 -9.650390625 467.400390625 104.5 c 0
 657.018346816 325.704232569 695.400390625 490.200195312 695.400390625 537.700195312 c 0
 695.400390625 615.599609375 643.150390625 648.849609375 602.299804688 648.849609375 c 0
 574.75 648.849609375 554.25 626.5 554.25 606.049804688 c 0
 554.25 583.700195312 570.950195312 573.799804688 576.650390625 572.849609375 c 0xeb
 656.450195312 564.299804688 656.450195312 502.549804688 656.450195312 493.049804688 c 0
 656.450195312 467.400390625 621.799804688 375.349609375 533.799804688 248 c 0
 487.138416171 180.47375454 423.700195312 108.950195312 398.049804688 83.0498046875 c 1
 399.950195312 112.5 399.950195312 155.799804688 399.950195312 185.25 c 0
 399.950195312 289.75 424.25 647.849609375 176.650390625 647.849609375 c 0
 20.4501953125 647.849609375 -5.099609375 514.049804688 -5.099609375 470.25 c 0
 -5.099609375 441.134765625 25.0078125 432.528320312 39 432.528320312 c 3
 62.03515625 432.528320312 78.5862901683 456.448245354 79 472.094726562 c 0xd7
 80.3125 521.733398438 57.3106984951 611.847748308 128.049804688 613.650390625 c 0
 326.711914062 618.712890625 326.799804688 353.446815559 326.799804688 150.099609375 c 3
 326.799804688 148.200195312 326.0078125 68.447265625 321 19.400390625 c 0
 320.317382812 12.716796875 187.349609375 -99 108 -99 c 0
 35 -99 18 -71 18 -45 c 0
 18 -25 38.2718705403 -27.8446454055 52 -20 c 0
 66 -12 80 2 80 33 c 0
 80 60 46 85 19 85 c 0
 -31 85 -51 40 -51 0 c 0
 -51 -59 1.00488967588 -128.050307344 113 -129 c 0xdb
EndSplineSet
EndChar

StartChar: Ntilde
Encoding: 209 209 120
Width: 561
Flags: W
HStem: -12 27<143 197.5 143 204> 172 27<473.5 489.5 473.5 489.5> 455 27<257.5 275> 678 29<399.5 432.5>
VStem: 47 58<53 125.5 53 141> 354 95<289.5 369.5> 462 35<606 655>
LayerCount: 2
Fore
SplineSet
354 303 m 0
 354 367 386 418 420 418 c 0
 428 418 439 410 444 399 c 0
 449 389 449 376 449 363 c 0
 449 334 442 296 418 241 c 0
 415 235 415 229 420 224 c 0
 439 204 463 199 484 199 c 0
 495 199 505 200 511 203 c 0
 515 205 519 203 519 200 c 0
 519 189 517 176 506 174 c 0
 499 172 492 172 487 172 c 0
 456 172 430 179 405 198 c 0
 400 202 395 201 392 195 c 0
 325 67 246 -12 162 -12 c 0
 97 -12 47 16 47 89 c 0
 47 193 104 344 171 454 c 0
 174 460 172 464 166 466 c 0
 139 474 113 486 89 508 c 0
 80 516 92 539 103 529 c 0
 129 505 153 495 179 490 c 0
 186 489 191 491 194 497 c 0
 253 599 337 707 420 707 c 0
 470 707 497 682 497 634 c 0
 497 550 396 459 261 455 c 0
 254 455 249 452 246 446 c 0
 200 358 105 182 105 69 c 0
 105 37 127 15 159 15 c 0
 236 15 310 90 370 217 c 0
 373 223 373 229 370 235 c 0
 360 257 354 276 354 303 c 0
462 644 m 0
 462 666 444 678 421 678 c 0
 378 678 332 608 270 491 c 0
 267 485 268 482 275 482 c 0
 387 487 462 568 462 644 c 0
EndSplineSet
EndChar

StartChar: Ograve
Encoding: 210 210 121
Width: 654
Flags: W
HStem: -11 27<275.5 319.5 275.5 330> 168 27<90.5 114> 388 27<392 461 392 467.5>
VStem: 165 63<84 125 52 142.5> 494 40<348 365 320 371>
LayerCount: 2
Fore
SplineSet
172 185 m 0
 174 191 172 193 167 189 c 0
 149 176 128 168 100 168 c 0
 81 168 62 171 43 178 c 0
 34 182 30 194 30 203 c 0
 30 206 33 207 37 206 c 0
 56 199 75 195 93 195 c 0
 145 195 179 220 204 265 c 0
 256 360 348 415 436 415 c 0
 486 415 534 393 534 337 c 0
 534 303 516 274 484 274 c 0
 460 274 441 284 441 305 c 0
 441 350 494 331 494 365 c 0
 494 377 479 388 456 388 c 0
 327 388 228 175 228 75 c 0
 228 29 260 16 291 16 c 0
 348 16 444 65 542 200 c 0
 549 210 565 216 577 216 c 0
 581 216 583 211 580 207 c 0
 479 54 374 -11 286 -11 c 0
 222 -11 165 35 165 133 c 0
 165 152 166 163 172 185 c 0
EndSplineSet
EndChar

StartChar: Oacute
Encoding: 211 211 122
Width: 799
Flags: W
HStem: -8 27<527 558.5> 174 27<90.5 112> 390 32<419 466>
VStem: 159 59<84.5 89.5 52.5 132.5> 454 51<56.5 71.5 48 86>
LayerCount: 2
Fore
SplineSet
535 349 m 0
 536 342 539 342 541 348 c 0
 559 394 637 592 669 673 c 0
 679 698 709 711 735 711 c 0
 744 711 749 702 745 692 c 2
 524 124 l 2
 516 103 505 84 505 59 c 0
 505 37 515 19 539 19 c 0
 578 19 629 52 711 168 c 0
 718 178 735 185 747 185 c 0
 751 185 753 180 750 176 c 0
 670 52 605 -8 536 -8 c 0
 482 -8 454 31 454 82 c 0
 454 90 455 98 456 106 c 0
 457 113 456 113 452 108 c 0
 395 36 338 -11 264 -11 c 0
 197 -11 159 47 159 122 c 0
 159 143 162 165 168 187 c 0
 170 193 169 194 163 191 c 0
 145 180 124 174 100 174 c 0
 81 174 62 178 43 185 c 0
 34 189 30 200 30 210 c 0
 30 213 33 214 37 213 c 0
 56 205 75 201 93 201 c 0
 141 201 179 231 209 277 c 0
 268 369 357 422 448 422 c 0
 491 422 524 397 535 349 c 0
400 93 m 0
 461 160 501 244 501 307 c 0
 501 349 486 390 446 390 c 0
 392 390 333 351 279 251 c 0
 227 156 218 109 218 70 c 0
 218 35 235 19 267 19 c 0
 314 19 354 43 400 93 c 0
EndSplineSet
EndChar

StartChar: Ocircumflex
Encoding: 212 212 123
Width: 573
Flags: W
HStem: -11 27<198.284 256.284> 388 27<424.784 465.284>
VStem: 104.784 55 491.784 27
LayerCount: 2
Fore
SplineSet
140.784179688 218 m 0
 147.784179688 217 152.784179688 220 155.784179688 226 c 0
 223.784179688 340 338.784179688 415 454.784179688 415 c 0
 495.784179688 415 518.784179688 397 518.784179688 361 c 0
 518.784179688 294 417.784179688 225 225.784179688 194 c 0
 218.784179688 193 214.784179688 190 210.784179688 184 c 0
 185.784179688 144 159.784179688 101 159.784179688 73 c 0
 159.784179688 39 182.784179688 16 213.784179688 16 c 0
 301.784179688 16 403.784179688 82 523.784179688 191 c 0
 526.784179688 194 530.784179688 193 531.784179688 190 c 0
 535.784179688 181 535.784179688 170 528.784179688 163 c 0
 407.784179688 53 306.784179688 -11 205.784179688 -11 c 0
 136.784179688 -11 104.784179688 35 104.784179688 86 c 0
 104.784179688 115 119.784179688 153 133.784179688 183 c 0
 136.784179688 189 134.784179688 192 127.784179688 193 c 0
 85.7841796875 201 47.7841796875 228 30.7841796875 265 c 0
 28.7841796875 269 30.7841796875 273 34.7841796875 273 c 0
 45.7841796875 273 61.7841796875 263 68.7841796875 254 c 0
 86.7841796875 233 111.784179688 222 140.784179688 218 c 0
241.784179688 231 m 0
 237.784179688 226 238.784179688 223 245.784179688 224 c 0
 387.784179688 246 491.784179688 303 491.784179688 359 c 0
 491.784179688 380 473.784179688 388 456.784179688 388 c 0
 392.784179688 388 331.784179688 341 241.784179688 231 c 0
EndSplineSet
EndChar

StartChar: Otilde
Encoding: 213 213 124
Width: 516
Flags: W
HStem: 97 27<297.033 330.533 297.033 331.533> 658 29<438.033 480.533>
VStem: 518.533 25
LayerCount: 2
Fore
SplineSet
309.533203125 97 m 0
 278.533203125 97 250.533203125 103 226.533203125 113 c 0
 220.533203125 116 216.533203125 114 214.533203125 108 c 0
 180.533203125 14 145.533203125 -79 111.533203125 -173 c 0
 101.533203125 -201 67.533203125 -216 38.533203125 -216 c 0
 28.533203125 -216 24.533203125 -205 28.533203125 -194 c 0
 72.533203125 -77 114.533203125 39 158.533203125 156 c 0
 160.533203125 162 160.533203125 167 157.533203125 173 c 0
 148.533203125 188 141.533203125 205 141.533203125 223 c 0
 141.533203125 278 167.533203125 327 227.533203125 364 c 0
 233.533203125 367 237.533203125 372 239.533203125 378 c 0
 309.533203125 567 356.533203125 687 461.533203125 687 c 0
 511.533203125 687 543.533203125 649 543.533203125 618 c 0
 543.533203125 491 417.533203125 414 319.533203125 371 c 0
 313.533203125 368 309.533203125 364 307.533203125 358 c 0
 281.533203125 289 256.533203125 221 230.533203125 152 c 0
 228.533203125 146 230.533203125 142 236.533203125 139 c 0
 259.533203125 129 282.533203125 124 311.533203125 124 c 0
 349.533203125 124 392.533203125 140 427.533203125 174 c 0
 440.533203125 186 449.533203125 156 439.533203125 147 c 0
 395.533203125 109 353.533203125 97 309.533203125 97 c 0
324.533203125 413 m 0
 322.533203125 407 323.533203125 405 329.533203125 408 c 0
 416.533203125 445 518.533203125 518 518.533203125 608 c 0
 518.533203125 650 492.533203125 658 468.533203125 658 c 0
 407.533203125 658 374.533203125 554 354.533203125 499 c 0
 344.533203125 472 335.533203125 443 324.533203125 413 c 0
EndSplineSet
EndChar

StartChar: Odieresis
Encoding: 214 214 125
Width: 660
Flags: W
HStem: -290 31<184 227 183 258.5> -198 27<496.5 525> -143 27<232.5 270> -11 30<252 288.5> 174 27<91.5 113> 384 32<427.5 468.5 407.5 470.5>
VStem: 84 37<-231 -189 -231 -173.5> 157 63<78 91.5 54.5 124.5>
LayerCount: 2
Fore
SplineSet
541 354 m 0
 546 341 552 365 554 369 c 0
 564 392 594 405 618 405 c 0
 626 405 631 395 627 386 c 0
 563 225 484 22 420 -138 c 0
 418 -144 419 -148 425 -151 c 0
 452 -163 482 -171 511 -171 c 0
 541 -171 579 -163 606 -142 c 0
 611 -138 615 -140 615 -145 c 0
 615 -157 611 -171 600 -177 c 0
 567 -195 539 -198 511 -198 c 0
 480 -198 442 -191 414 -179 c 0
 408 -176 403 -178 400 -184 c 0
 358 -259 297 -290 220 -290 c 0
 148 -290 84 -271 84 -210 c 0
 84 -137 199 -116 266 -116 c 0
 283 -116 325 -120 349 -126 c 0
 355 -128 360 -126 363 -120 c 0
 394 -44 430 54 449 103 c 0
 451 109 451 109 447 104 c 0
 390 33 325 -11 252 -11 c 0
 188 -11 157 43 157 113 c 0
 157 136 160 161 167 186 c 0
 169 192 168 194 162 190 c 0
 144 179 125 174 101 174 c 0
 82 174 62 177 43 184 c 0
 34 188 30 200 30 209 c 0
 30 212 33 213 37 212 c 0
 56 205 75 201 93 201 c 0
 150 201 186 242 212 281 c 0
 273 372 368 416 447 416 c 0
 490 416 526 392 541 354 c 0
271 19 m 0
 352 19 515 222 515 322 c 0
 515 356 485 384 456 384 c 0
 399 384 339 358 279 247 c 0
 230 157 220 110 220 73 c 0
 220 36 233 19 271 19 c 0
345 -166 m 0
 348 -160 347 -156 341 -154 c 0
 316 -146 279 -143 261 -143 c 0
 198 -143 121 -161 121 -217 c 0
 121 -245 158 -259 208 -259 c 0
 246 -259 302 -247 345 -166 c 0
EndSplineSet
EndChar

StartChar: Oslash
Encoding: 216 216 126
Width: 468
Flags: W
HStem: -11 27<218.5 256 218.5 261.5> 306 27<125.5 149.5 119 151> 540 92<331 335.5>
VStem: 131 63<54 78 54 88> 284 95<578.5 591>
LayerCount: 2
Fore
SplineSet
284 575 m 0
 284 607 317 632 345 632 c 0
 362 632 379 616 379 594 c 0
 379 563 349 540 322 540 c 0
 300 540 284 555 284 575 c 0
219 331 m 0
 222 337 220 338 215 334 c 0
 193 317 167 306 135 306 c 0
 116 306 94 310 75 317 c 0
 66 320 62 333 62 342 c 0
 62 345 66 346 70 345 c 0
 89 338 110 333 128 333 c 0
 171 333 204 356 229 384 c 0
 247 403 282 418 307 418 c 0
 315 418 320 409 316 399 c 2
 206 128 l 2
 199 110 194 88 194 68 c 0
 194 40 204 16 233 16 c 0
 279 16 326 66 397 163 c 0
 404 173 419 179 431 179 c 0
 435 179 437 175 434 171 c 0
 350 48 291 -11 232 -11 c 0
 172 -11 131 21 131 68 c 0
 131 108 155 181 181 244 c 0
 194 275 206 300 219 331 c 0
EndSplineSet
EndChar

StartChar: Ugrave
Encoding: 217 217 127
Width: 460
Flags: W
HStem: -289 31<-27.5 8 -27.5 40.5> -197 27<277 306 277 306> -142 27<30.5 51.5> 286 27<200.5 229> 538 92<430.5 435.5>
VStem: -105 34<-224.5 -198> 383 96<576.5 589>
LayerCount: 2
Fore
SplineSet
383 573 m 0
 383 605 416 630 445 630 c 0
 462 630 479 614 479 592 c 0
 479 561 449 538 422 538 c 0
 400 538 383 553 383 573 c 0
47 -115 m 0
 64 -115 106 -119 130 -125 c 0
 136 -127 142 -125 144 -119 c 2
 315 324 l 2
 317 330 316 331 311 327 c 0
 276 298 250 286 208 286 c 0
 193 286 171 289 153 295 c 0
 144 298 140 310 140 320 c 0
 140 323 144 324 148 323 c 0
 166 316 189 313 205 313 c 0
 257 313 297 348 327 384 c 0
 344 404 378 417 403 417 c 0
 412 417 417 407 413 397 c 0
 351 236 268 22 206 -138 c 0
 204 -144 205 -148 211 -151 c 0
 237 -163 263 -170 291 -170 c 0
 321 -170 360 -162 387 -141 c 0
 392 -137 396 -139 396 -144 c 0
 396 -156 392 -170 381 -176 c 0
 349 -193 321 -197 291 -197 c 0
 260 -197 224 -189 197 -179 c 0
 191 -177 186 -178 183 -184 c 0
 137 -264 79 -289 2 -289 c 0
 -66 -289 -105 -250 -105 -209 c 0
 -105 -187 -94 -165 -71 -147 c 0
 -66 -143 -61 -139 -55 -136 c 0
 -24 -118 14 -115 47 -115 c 0
127 -165 m 0
 130 -159 128 -155 122 -153 c 0
 99 -146 60 -142 43 -142 c 0
 -20 -142 -71 -163 -71 -212 c 0
 -71 -237 -44 -258 -11 -258 c 0
 27 -258 84 -246 127 -165 c 0
EndSplineSet
EndChar

